<?xml version="1.0" encoding="UTF-8" standalone="no"?>
<!-- Generator: Adobe Illustrator 24.0.1, SVG Export Plug-In . SVG Version: 6.00 Build 0)  -->

<svg
   version="1.1"
   x="0px"
   y="0px"
   viewBox="0 0 157.50646 222.75271"
   xml:space="preserve"
   id="svg14"
   sodipodi:docname="bananablaster-pcb.svg"
   width="157.50645mm"
   height="222.75272mm"
   inkscape:version="1.1.2 (0a00cf5339, 2022-02-04)"
   xmlns:inkscape="http://www.inkscape.org/namespaces/inkscape"
   xmlns:sodipodi="http://sodipodi.sourceforge.net/DTD/sodipodi-0.dtd"
   xmlns="http://www.w3.org/2000/svg"
   xmlns:svg="http://www.w3.org/2000/svg"><defs
   id="defs18" /><sodipodi:namedview
   id="namedview16"
   pagecolor="#ffffff"
   bordercolor="#666666"
   borderopacity="1.0"
   inkscape:pageshadow="2"
   inkscape:pageopacity="0.0"
   inkscape:pagecheckerboard="0"
   showgrid="false"
   inkscape:document-units="mm"
   inkscape:zoom="0.81007243"
   inkscape:cx="162.94839"
   inkscape:cy="420.33278"
   inkscape:window-width="2560"
   inkscape:window-height="1391"
   inkscape:window-x="0"
   inkscape:window-y="25"
   inkscape:window-maximized="1"
   inkscape:current-layer="layer3"
   units="mm" />
<style
   type="text/css"
   id="style2">
	.st0{fill:#FBEA2A;}
	.st1{fill:#010202;}
	.st2{fill:#FBC00F;}
	.st3{fill:#FBC011;}
</style>



<g
   inkscape:groupmode="layer"
   id="layer1"
   inkscape:label="Edge.Cuts"
   style="display:inline"><g
     id="edgecuts"
     transform="matrix(0.37945663,0,0,0.37945663,-36.976101,-30.623023)">
	<path
   id="_x3C_Path_x3E__1_"
   class="st0"
   d="m 504.3,237.8 c 0.1,2.2 -0.8,3.8 -2.3,5.4 -3.5,3.7 -6.9,7.4 -10.4,10.9 -1.3,1.2 -2.7,2.2 -4.1,3.2 -1.9,1.4 -3.9,1.3 -5.9,0.6 -9.6,-3.6 -19.4,-7 -28.9,-10.9 -17.2,-7.1 -34.4,-14.1 -51.7,-21 -9.2,-3.6 -18.1,-7.8 -27.5,-10.9 -10.3,-3.5 -20.8,-6.1 -31.3,-8.6 -15.4,-3.7 -31,-5.3 -46.8,-5.1 -6.8,0.1 -13.6,0 -20.4,0.7 -9.2,0.9 -18.2,2.6 -27.1,5.3 -7.3,2.2 -14.6,4.6 -21.4,8.2 -5.4,2.9 -10.3,6.5 -15.5,9.8 -11.1,6.9 -21.6,14.7 -31.8,22.9 -7.6,6.2 -16,10.8 -25,14.4 -1.3,0.5 -2.4,1.2 -3.8,1.5 -0.8,0.2 -0.8,0.9 -0.8,1.4 -0.4,2.7 -0.7,5.4 -1.2,8.1 -1.4,8 -1.8,16.1 -3.1,24.1 -1,6.1 -2.2,12.3 -3.6,18.3 -0.3,1.3 -1,2 -2.4,2.2 -0.7,0.1 -1.3,0.3 -2,0.5 -3.4,1.3 -6.9,1.4 -10.4,2.2 -1.5,0.3 -2.9,0.7 -4.4,1.1 -3.3,0.9 -6.2,0 -9,-1.8 -1,-0.7 -2,-1.4 -3,-2.1 -1.3,-0.9 -1.7,-2 -1.4,-3.5 1.1,-5.5 2.1,-11.1 3.2,-16.6 2.2,-11 4.1,-22 4.6,-33.2 0.2,-3.8 -0.3,-7.5 -0.6,-11.2 -0.5,-6 -1,-12 -1.5,-18 -0.3,-3.6 -0.7,-7.2 -0.8,-10.9 -0.2,-10.4 2,-20.2 6.3,-29.8 4,-9 9.4,-16.8 16.2,-23.7 8.8,-9 17.6,-18 27.8,-25.5 16.4,-12 34.1,-22 53.5,-28.4 6.9,-2.3 13.7,-5.2 20.7,-7.1 8.5,-2.3 17.1,-3.6 25.7,-5.2 15.5,-2.8 31,-2.3 46.6,-1.9 14,0.4 27.8,2.4 41.4,5.3 8,1.7 15.9,4.3 23.6,7 8.8,3.1 17.7,6 26.4,9.4 10.4,4.1 20.1,9.6 29.4,15.7 9.5,6.2 18.7,12.9 27.6,20 9.9,7.9 17.9,17.5 24.4,28.4 4.4,7.3 8.4,14.9 12.3,22.5 2.9,5.6 5.3,11.5 6.8,17.6 1,2.8 1.5,5.7 1.6,8.7 z" />
</g></g><g
   inkscape:groupmode="layer"
   id="layer2"
   inkscape:label="B.Cu"
   style="display:inline"><g
     id="copper"
     transform="matrix(0.37945663,0,0,0.37945663,-36.976101,-30.623023)">
	<path
   class="st2"
   d="m 499.1,230.6 c -0.2,-0.6 -0.4,-1.2 -0.5,-1.8 -0.8,-3.3 -1.8,-6.5 -3.2,-9.5 -4.2,-9.2 -9.1,-18.1 -14.2,-26.9 -4.5,-7.8 -10,-14.7 -16.2,-21.2 -5.9,-6.2 -12.9,-11.1 -19.7,-16.2 -5.5,-4.2 -11.3,-8 -17.1,-11.8 -7.4,-4.8 -15.1,-9.2 -23.2,-12.7 -9,-3.9 -18.3,-6.8 -27.4,-10.1 -13.3,-4.8 -26.8,-8.5 -40.8,-10.7 -6,-0.9 -12,-1.6 -18.1,-2 -4.3,-0.3 -8.7,-0.5 -13,-0.5 -9.4,0 -18.8,-0.5 -28.1,0.5 -3.2,0.3 -6.3,0.6 -9.5,1.1 -4,0.6 -8,1.4 -11.9,2 -6.2,1 -12.3,2.4 -18.3,4.1 -5.5,1.5 -10.8,3.7 -16.2,5.6 -6.3,2.3 -12.7,4.4 -18.7,7.3 -6.8,3.2 -13.4,6.6 -19.8,10.6 -5.5,3.4 -10.9,6.9 -16.1,10.7 -6.7,4.8 -12.6,10.7 -18.6,16.4 -4.6,4.3 -9.1,8.8 -13.2,13.7 -2.9,3.5 -5.7,7.1 -7.8,11.1 -2.1,4.1 -3.9,8.2 -5.6,12.5 -1.2,3.1 -2.2,6.2 -2.5,9.5 -0.5,2.6 -0.8,5.2 -1,7.8 1.2,-0.5 2.1,-5.6 2.9,-7.8 v 0 c 0.7,-1.5 1.4,-3.1 2.1,-4.6 1.8,-3.8 4.3,-7.2 6.5,-10.7 4.1,-6.4 8.6,-12.4 14.3,-17.6 1.2,-1.1 2.5,-2 3.6,-3.1 2.9,-3 6,-5.7 9.1,-8.5 5.3,-4.7 10.8,-9.2 16.4,-13.5 3.9,-3 7.8,-6.1 12,-8.6 7.5,-4.6 15.3,-8.7 23.4,-12.4 4.4,-2.1 9,-3.9 13.6,-5.7 4.5,-1.7 9.1,-2.9 13.8,-4 4.6,-1.1 9.2,-2.4 13.9,-3.2 7.2,-1.2 14.3,-2.4 21.6,-3.2 4.9,-0.6 9.8,-1 14.7,-1.1 5.8,-0.1 11.6,0 17.3,0.4 3.5,0.2 6.9,0.4 10.4,0.6 1.4,0.1 2.9,0.1 4.3,0.2 4,0.3 8,0.6 12,0.9 3.1,0.2 6.3,0.4 9.4,0.8 4.8,0.6 9.7,1.5 14.4,2.5 9.4,2.1 18.8,4.1 27.9,7.3 10.5,3.7 20.9,7.9 30.9,12.9 3.9,1.9 7.6,4 11.4,6.1 3.7,2.1 7.3,4.3 10.8,6.8 4.1,2.8 8,5.8 11.8,9 3.7,3 7.4,6.1 10.9,9.3 2.1,1.9 4,4 6,5.8 4.6,4.1 8.7,8.5 12.5,13.3 5.6,7.1 10,15 14.2,22.9 2.4,4.5 5,9 7.3,13.6 0.1,0.1 0.1,0.2 0.2,0.3 0.4,0.9 0.9,1.6 1.1,1.8 z"
   id="path9" />
	<path
   class="st3"
   d="m 159.6,255.3 c -0.7,0.5 -1.3,0.9 -2,1.4 0.9,-0.1 1.7,-0.5 2.4,-1 0.2,-0.1 0.5,-0.1 0.7,-0.2 5.6,-2.8 10.9,-6.1 15.8,-10.1 6.6,-5.4 13.4,-10.6 20.4,-15.5 5.4,-3.8 11,-7.2 16.4,-10.9 6.8,-4.6 13.8,-8.8 21.6,-11.6 10,-3.5 20.1,-6.7 30.6,-8.2 5.3,-0.8 10.6,-1.5 15.9,-1.7 7,-0.3 14,-0.4 21,-0.3 2.9,0 5.8,0.1 8.6,0.3 4.7,0.3 9.4,0.8 14,1.5 3.9,0.6 7.7,1.1 11.5,1.9 6.7,1.5 13.3,3.1 20,4.8 10.5,2.7 20.7,6 30.7,10.1 6.3,2.6 12.6,5.3 18.9,7.9 7.5,3.1 15.1,5.7 22.6,8.8 11.5,4.8 22.9,9.9 34.6,14.2 5.8,2.1 11.5,4.3 17.2,6.6 0.8,0.3 1.1,0.1 1.3,-0.6 0.3,-0.9 0.5,-1.8 1,-2.7 0.4,-0.7 0.1,-1.1 -0.5,-1.4 -5.6,-3.2 -11.1,-6.5 -16.9,-9.5 -12.4,-6.4 -25.1,-12.3 -37.7,-18.2 -10,-4.7 -20.4,-8.3 -30.5,-12.6 -11.1,-4.7 -22.3,-9.1 -33.7,-13.3 -11.9,-4.3 -24.3,-6.7 -36.9,-8 -6.5,-0.7 -13,-1 -19.5,-1.3 -5.9,-0.2 -11.7,0 -17.6,0.4 -5.8,0.4 -11.6,1.1 -17.4,2.1 -5.8,1 -11.5,2.3 -17.2,3.9 -7.9,2.1 -15.7,4.4 -23,8.1 -5.3,2.6 -10.4,5.6 -15.5,8.5 -6.4,3.7 -12.4,7.9 -18,12.8 -3,2.6 -6.1,5.3 -9.2,7.9 -6.2,5.1 -12.5,10.2 -18.3,15.7 -2.1,1.9 -4.1,3.9 -6.3,5.7 -1.6,1.6 -3.3,3.1 -5,4.5 z"
   id="path11" />
</g></g><g
   inkscape:groupmode="layer"
   id="layer3"
   inkscape:label="B.SilkS"
   style="display:inline"><g
     id="silkscreen"
     transform="matrix(0.37945663,0,0,0.37945663,-36.976101,-30.623023)">
	<path
   class="st1"
   d="m 504.3,237.8 c 0.1,2.2 -0.8,3.8 -2.3,5.4 -3.5,3.7 -6.9,7.4 -10.4,10.9 -1.3,1.2 -2.7,2.2 -4.1,3.2 -1.9,1.4 -3.9,1.3 -5.9,0.6 -9.6,-3.6 -19.4,-7 -28.9,-10.9 -17.2,-7.1 -34.4,-14.1 -51.7,-21 -9.2,-3.6 -18.1,-7.8 -27.5,-10.9 -10.3,-3.5 -20.8,-6.1 -31.3,-8.6 -15.4,-3.7 -31,-5.3 -46.8,-5.1 -6.8,0.1 -13.6,0 -20.4,0.7 -9.2,0.9 -18.2,2.6 -27.1,5.3 -7.3,2.2 -14.6,4.6 -21.4,8.2 -5.4,2.9 -10.3,6.5 -15.5,9.8 -11.1,6.9 -21.6,14.7 -31.8,22.9 -7.6,6.2 -16,10.8 -25,14.4 -1.3,0.5 -2.4,1.2 -3.8,1.5 -0.8,0.2 -0.8,0.9 -0.8,1.4 -0.4,2.7 -0.7,5.4 -1.2,8.1 -1.4,8 -1.8,16.1 -3.1,24.1 -1,6.1 -2.2,12.3 -3.6,18.3 -0.3,1.3 -1,2 -2.4,2.2 -0.7,0.1 -1.3,0.3 -2,0.5 -3.4,1.3 -6.9,1.4 -10.4,2.2 -1.5,0.3 -2.9,0.7 -4.4,1.1 -3.3,0.9 -6.2,0 -9,-1.8 -1,-0.7 -2,-1.4 -3,-2.1 -1.3,-0.9 -1.7,-2 -1.4,-3.5 1.1,-5.5 2.1,-11.1 3.2,-16.6 2.2,-11 4.1,-22 4.6,-33.2 0.2,-3.8 -0.3,-7.5 -0.6,-11.2 -0.5,-6 -1,-12 -1.5,-18 -0.3,-3.6 -0.7,-7.2 -0.8,-10.9 -0.2,-10.4 2,-20.2 6.3,-29.8 4,-9 9.4,-16.8 16.2,-23.7 8.8,-9 17.6,-18 27.8,-25.5 16.4,-12 34.1,-22 53.5,-28.4 6.9,-2.3 13.7,-5.2 20.7,-7.1 8.5,-2.3 17.1,-3.6 25.7,-5.2 15.5,-2.8 31,-2.3 46.6,-1.9 14,0.4 27.8,2.4 41.4,5.3 8,1.7 15.9,4.3 23.6,7 8.8,3.1 17.7,6 26.4,9.4 10.4,4.1 20.1,9.6 29.4,15.7 9.5,6.2 18.7,12.9 27.6,20 9.9,7.9 17.9,17.5 24.4,28.4 4.4,7.3 8.4,14.9 12.3,22.5 2.9,5.6 5.3,11.5 6.8,17.6 1,2.8 1.5,5.7 1.6,8.7 z m -344.7,17.5 c -0.7,0.5 -1.3,0.9 -2,1.4 0.9,-0.1 1.7,-0.5 2.4,-1 0.2,-0.1 0.5,-0.1 0.7,-0.2 5.6,-2.8 10.9,-6.1 15.8,-10.1 6.6,-5.4 13.4,-10.6 20.4,-15.5 5.4,-3.8 11,-7.2 16.4,-10.9 6.8,-4.6 13.8,-8.8 21.6,-11.6 10,-3.5 20.1,-6.7 30.6,-8.2 5.3,-0.8 10.6,-1.5 15.9,-1.7 7,-0.3 14,-0.4 21,-0.3 2.9,0 5.8,0.1 8.6,0.3 4.7,0.3 9.4,0.8 14,1.5 3.9,0.6 7.7,1.1 11.5,1.9 6.7,1.5 13.3,3.1 20,4.8 10.5,2.7 20.7,6 30.7,10.1 6.3,2.6 12.6,5.3 18.9,7.9 7.5,3.1 15.1,5.7 22.6,8.8 11.5,4.8 22.9,9.9 34.6,14.2 5.8,2.1 11.5,4.3 17.2,6.6 0.8,0.3 1.1,0.1 1.3,-0.6 0.3,-0.9 0.5,-1.8 1,-2.7 0.4,-0.7 0.1,-1.1 -0.5,-1.4 -5.6,-3.2 -11.1,-6.5 -16.9,-9.5 -12.4,-6.4 -25.1,-12.3 -37.7,-18.2 -10,-4.7 -20.4,-8.3 -30.5,-12.6 -11.1,-4.7 -22.3,-9.1 -33.7,-13.3 -11.9,-4.3 -24.3,-6.7 -36.9,-8 -6.5,-0.7 -13,-1 -19.5,-1.3 -5.9,-0.2 -11.7,0 -17.6,0.4 -5.8,0.4 -11.6,1.1 -17.4,2.1 -5.8,1 -11.5,2.3 -17.2,3.9 -7.9,2.1 -15.7,4.4 -23,8.1 -5.3,2.6 -10.4,5.6 -15.5,8.5 -6.4,3.7 -12.4,7.9 -18,12.8 -3,2.6 -6.1,5.3 -9.2,7.9 -6.2,5.1 -12.5,10.2 -18.3,15.7 -2.1,1.9 -4.1,3.9 -6.3,5.7 -1.6,1.6 -3.3,3.1 -5,4.5 z m 338.9,-26.6 c -0.8,-3.3 -1.8,-6.5 -3.2,-9.5 -4.2,-9.2 -9.1,-18.1 -14.2,-26.9 -4.5,-7.8 -10,-14.7 -16.2,-21.2 -5.9,-6.2 -12.9,-11.1 -19.7,-16.2 -5.5,-4.2 -11.3,-8 -17.1,-11.8 -7.4,-4.8 -15.1,-9.2 -23.2,-12.7 -9,-3.9 -18.3,-6.8 -27.4,-10.1 -13.3,-4.8 -26.8,-8.5 -40.8,-10.7 -6,-0.9 -12,-1.6 -18.1,-2 -4.3,-0.3 -8.7,-0.5 -13,-0.5 -9.4,0 -18.8,-0.5 -28.1,0.5 -3.2,0.3 -6.3,0.6 -9.5,1.1 -4,0.6 -8,1.4 -11.9,2 -6.2,1 -12.3,2.4 -18.3,4.1 -5.5,1.5 -10.8,3.7 -16.2,5.6 -6.3,2.3 -12.7,4.4 -18.7,7.3 -6.8,3.2 -13.4,6.6 -19.8,10.6 -5.5,3.4 -10.9,6.9 -16.1,10.7 -6.7,4.8 -12.6,10.7 -18.6,16.4 -4.6,4.3 -9.1,8.8 -13.2,13.7 -2.9,3.5 -5.7,7.1 -7.8,11.1 -2.1,4.1 -3.9,8.2 -5.6,12.5 -1.2,3.1 -2.2,6.2 -2.5,9.5 -0.7,3.8 -1.1,7.7 -1.1,11.6 0,3.3 0.3,6.6 0.7,9.9 0.3,2.9 0.3,5.9 0.7,8.8 0.6,5.3 1,10.6 1.4,16 0.4,5.3 0.1,10.7 -0.5,16 -0.5,4.7 -1.2,9.3 -2,13.9 -1.2,7 -2.8,13.9 -4,20.9 -0.3,1.5 -0.8,3 -0.6,4.6 2.6,-1.1 5.2,-1.8 7.8,-2.4 2.1,-0.5 3.8,-1.5 4.9,-3.4 0.7,-1.2 1.5,-2.4 2.4,-3.4 2.4,-2.7 5.6,-2.5 7.6,0.4 0.8,1.2 1.2,2.5 1.7,3.8 0.1,0.4 0.1,1 0.7,1 0.5,-0.1 0.4,-0.7 0.5,-1.1 0.6,-3.1 1.2,-6.1 1.8,-9.2 0.7,-4.1 1.2,-8.2 1.6,-12.3 0.3,-2.7 0.5,-5.5 0.9,-8.2 0.6,-3.9 1.2,-7.8 1.7,-11.7 0.5,-4.5 2.2,-8.3 6.1,-10.9 5.5,-3.7 10.7,-7.7 15.4,-12.3 4.6,-4.4 9.5,-8.6 14.4,-12.7 3.4,-2.8 6.8,-5.6 10.1,-8.4 3,-2.5 5.9,-5.3 9,-7.7 9,-7.1 19.1,-12.6 29.2,-17.8 11.2,-5.8 23.4,-8.7 35.6,-11.5 6,-1.4 12.2,-2.2 18.3,-2.9 4.6,-0.5 9.1,-0.9 13.7,-1 5,0 9.9,-0.1 14.9,0.2 4.4,0.2 8.8,0.5 13.2,0.9 4.9,0.5 9.7,1.1 14.5,2 6.1,1.1 12,2.4 18,4.1 7.8,2.2 15.3,5.4 22.9,8.4 8.7,3.4 17.3,7 26,10.5 9.3,3.7 18.5,7.3 27.6,11.7 9.9,4.8 19.9,9.4 29.7,14.3 6.8,3.4 13.5,7.2 20,11.2 1.5,0.9 2.7,1.1 4.4,0 3.6,-2.4 7.5,-4.5 11.5,-6.4 0.6,-0.3 0.5,-0.7 0.5,-1.2 -0.3,-3.4 -1.1,-6.3 -2,-9.2 z"
   id="path6" />
</g></g></svg>
