%TF.GenerationSoftware,KiCad,Pcbnew,8.0.4-8.0.4-0~ubuntu22.04.1*%
%TF.CreationDate,2024-11-20T16:55:02+01:00*%
%TF.ProjectId,HH2025badge,48483230-3235-4626-9164-67652e6b6963,rev?*%
%TF.SameCoordinates,Original*%
%TF.FileFunction,Soldermask,Top*%
%TF.FilePolarity,Negative*%
%FSLAX46Y46*%
G04 Gerber Fmt 4.6, Leading zero omitted, Abs format (unit mm)*
G04 Created by KiCad (PCBNEW 8.0.4-8.0.4-0~ubuntu22.04.1) date 2024-11-20 16:55:02*
%MOMM*%
%LPD*%
G01*
G04 APERTURE LIST*
G04 Aperture macros list*
%AMRoundRect*
0 Rectangle with rounded corners*
0 $1 Rounding radius*
0 $2 $3 $4 $5 $6 $7 $8 $9 X,Y pos of 4 corners*
0 Add a 4 corners polygon primitive as box body*
4,1,4,$2,$3,$4,$5,$6,$7,$8,$9,$2,$3,0*
0 Add four circle primitives for the rounded corners*
1,1,$1+$1,$2,$3*
1,1,$1+$1,$4,$5*
1,1,$1+$1,$6,$7*
1,1,$1+$1,$8,$9*
0 Add four rect primitives between the rounded corners*
20,1,$1+$1,$2,$3,$4,$5,0*
20,1,$1+$1,$4,$5,$6,$7,0*
20,1,$1+$1,$6,$7,$8,$9,0*
20,1,$1+$1,$8,$9,$2,$3,0*%
%AMHorizOval*
0 Thick line with rounded ends*
0 $1 width*
0 $2 $3 position (X,Y) of the first rounded end (center of the circle)*
0 $4 $5 position (X,Y) of the second rounded end (center of the circle)*
0 Add line between two ends*
20,1,$1,$2,$3,$4,$5,0*
0 Add two circle primitives to create the rounded ends*
1,1,$1,$2,$3*
1,1,$1,$4,$5*%
%AMRotRect*
0 Rectangle, with rotation*
0 The origin of the aperture is its center*
0 $1 length*
0 $2 width*
0 $3 Rotation angle, in degrees counterclockwise*
0 Add horizontal line*
21,1,$1,$2,0,0,$3*%
G04 Aperture macros list end*
%ADD10RoundRect,0.250000X0.262500X0.450000X-0.262500X0.450000X-0.262500X-0.450000X0.262500X-0.450000X0*%
%ADD11RoundRect,0.150000X-0.587500X-0.150000X0.587500X-0.150000X0.587500X0.150000X-0.587500X0.150000X0*%
%ADD12RoundRect,0.250000X-0.262500X-0.450000X0.262500X-0.450000X0.262500X0.450000X-0.262500X0.450000X0*%
%ADD13RoundRect,0.218750X0.218750X0.256250X-0.218750X0.256250X-0.218750X-0.256250X0.218750X-0.256250X0*%
%ADD14RoundRect,0.250000X0.450000X-0.262500X0.450000X0.262500X-0.450000X0.262500X-0.450000X-0.262500X0*%
%ADD15RoundRect,0.250000X-0.250000X-0.475000X0.250000X-0.475000X0.250000X0.475000X-0.250000X0.475000X0*%
%ADD16RoundRect,0.135000X0.185000X-0.135000X0.185000X0.135000X-0.185000X0.135000X-0.185000X-0.135000X0*%
%ADD17RoundRect,0.218750X0.256250X-0.218750X0.256250X0.218750X-0.256250X0.218750X-0.256250X-0.218750X0*%
%ADD18RotRect,1.000000X0.800000X195.000000*%
%ADD19C,0.900000*%
%ADD20RotRect,0.700000X1.500000X195.000000*%
%ADD21RoundRect,0.140000X-0.140000X-0.170000X0.140000X-0.170000X0.140000X0.170000X-0.140000X0.170000X0*%
%ADD22RoundRect,0.135000X-0.135000X-0.185000X0.135000X-0.185000X0.135000X0.185000X-0.135000X0.185000X0*%
%ADD23RotRect,1.800000X1.800000X285.000000*%
%ADD24C,1.800000*%
%ADD25RoundRect,0.135000X-0.185000X0.135000X-0.185000X-0.135000X0.185000X-0.135000X0.185000X0.135000X0*%
%ADD26RoundRect,0.140000X0.170000X-0.140000X0.170000X0.140000X-0.170000X0.140000X-0.170000X-0.140000X0*%
%ADD27R,1.600000X1.400000*%
%ADD28RotRect,1.500000X0.900000X15.000000*%
%ADD29RotRect,0.500000X1.270000X105.000000*%
%ADD30RotRect,1.500000X0.900000X30.000000*%
%ADD31RoundRect,0.140000X-0.170000X0.140000X-0.170000X-0.140000X0.170000X-0.140000X0.170000X0.140000X0*%
%ADD32RoundRect,0.150000X-0.512500X-0.150000X0.512500X-0.150000X0.512500X0.150000X-0.512500X0.150000X0*%
%ADD33RoundRect,0.250000X-0.475000X0.250000X-0.475000X-0.250000X0.475000X-0.250000X0.475000X0.250000X0*%
%ADD34RoundRect,0.135000X0.135000X0.185000X-0.135000X0.185000X-0.135000X-0.185000X0.135000X-0.185000X0*%
%ADD35C,1.000000*%
%ADD36RoundRect,0.112500X-0.187500X-0.112500X0.187500X-0.112500X0.187500X0.112500X-0.187500X0.112500X0*%
%ADD37R,2.500000X0.700000*%
%ADD38R,1.900000X1.100000*%
%ADD39RoundRect,0.250000X0.475000X-0.250000X0.475000X0.250000X-0.475000X0.250000X-0.475000X-0.250000X0*%
%ADD40RoundRect,0.135000X0.082518X0.213637X-0.178282X0.143756X-0.082518X-0.213637X0.178282X-0.143756X0*%
%ADD41C,1.300000*%
%ADD42R,1.300000X0.800000*%
%ADD43R,1.000000X1.600000*%
%ADD44C,0.650000*%
%ADD45RotRect,0.600000X1.450000X340.000000*%
%ADD46RotRect,0.300000X1.450000X340.000000*%
%ADD47HorizOval,1.000000X-0.188111X-0.516831X0.188111X0.516831X0*%
%ADD48HorizOval,1.000000X-0.102606X-0.281908X0.102606X0.281908X0*%
%ADD49RoundRect,0.140000X0.140000X0.170000X-0.140000X0.170000X-0.140000X-0.170000X0.140000X-0.170000X0*%
%ADD50R,1.500000X0.900000*%
%ADD51RoundRect,0.050000X-0.387500X-0.050000X0.387500X-0.050000X0.387500X0.050000X-0.387500X0.050000X0*%
%ADD52RoundRect,0.050000X-0.050000X-0.387500X0.050000X-0.387500X0.050000X0.387500X-0.050000X0.387500X0*%
%ADD53RoundRect,0.144000X-1.456000X-1.456000X1.456000X-1.456000X1.456000X1.456000X-1.456000X1.456000X0*%
%ADD54C,3.200000*%
%ADD55RoundRect,0.112500X0.187500X0.112500X-0.187500X0.112500X-0.187500X-0.112500X0.187500X-0.112500X0*%
%ADD56RotRect,1.000000X0.800000X320.000000*%
%ADD57RotRect,0.700000X1.500000X320.000000*%
%ADD58RoundRect,0.112500X-0.112500X0.187500X-0.112500X-0.187500X0.112500X-0.187500X0.112500X0.187500X0*%
%ADD59RoundRect,0.150000X0.512500X0.150000X-0.512500X0.150000X-0.512500X-0.150000X0.512500X-0.150000X0*%
%ADD60RoundRect,0.135000X0.024413X0.227715X-0.209413X0.092715X-0.024413X-0.227715X0.209413X-0.092715X0*%
%ADD61R,1.400000X1.600000*%
%ADD62RoundRect,0.150000X-0.650000X-0.150000X0.650000X-0.150000X0.650000X0.150000X-0.650000X0.150000X0*%
%ADD63RotRect,1.000000X0.800000X210.000000*%
%ADD64RotRect,0.700000X1.500000X210.000000*%
%ADD65R,1.700000X1.700000*%
%ADD66O,1.700000X1.700000*%
%ADD67R,1.400000X1.200000*%
G04 APERTURE END LIST*
D10*
%TO.C,R5*%
X143787500Y-59690000D03*
X141962500Y-59690000D03*
%TD*%
D11*
%TO.C,Q2*%
X150827500Y-53025000D03*
X150827500Y-54925000D03*
X152702500Y-53975000D03*
%TD*%
D12*
%TO.C,R39*%
X150852500Y-50800000D03*
X152677500Y-50800000D03*
%TD*%
D13*
%TO.C,D5*%
X146837500Y-54610000D03*
X145262500Y-54610000D03*
%TD*%
D14*
%TO.C,R37*%
X224790000Y-67460500D03*
X224790000Y-65635500D03*
%TD*%
D15*
%TO.C,C18*%
X222316000Y-47498000D03*
X224216000Y-47498000D03*
%TD*%
D16*
%TO.C,R15*%
X169545000Y-59565000D03*
X169545000Y-58545000D03*
%TD*%
%TO.C,R31*%
X173355000Y-59565000D03*
X173355000Y-58545000D03*
%TD*%
D17*
%TO.C,D9*%
X171450000Y-57302500D03*
X171450000Y-55727500D03*
%TD*%
D18*
%TO.C,SW3*%
X169462508Y-34098733D03*
X168890518Y-31964037D03*
D19*
X167098478Y-33583017D03*
X164200700Y-34359473D03*
D18*
X162411250Y-35988110D03*
X161839260Y-33853417D03*
D20*
X168278444Y-35088931D03*
X165380667Y-35865388D03*
X163931778Y-36253617D03*
%TD*%
D21*
%TO.C,C21*%
X216436000Y-46482000D03*
X217396000Y-46482000D03*
%TD*%
D22*
%TO.C,R36*%
X224280000Y-64262000D03*
X225300000Y-64262000D03*
%TD*%
D23*
%TO.C,D4*%
X140005006Y-51473444D03*
D24*
X140662407Y-53926895D03*
%TD*%
D22*
%TO.C,R13*%
X144905000Y-51435000D03*
X145925000Y-51435000D03*
%TD*%
%TO.C,R25*%
X216406000Y-47498000D03*
X217426000Y-47498000D03*
%TD*%
D25*
%TO.C,R34*%
X163830000Y-50290000D03*
X163830000Y-51310000D03*
%TD*%
D26*
%TO.C,C10*%
X203450000Y-55330000D03*
X203450000Y-54370000D03*
%TD*%
D27*
%TO.C,SW1*%
X187535000Y-40410000D03*
X194735000Y-40410000D03*
X187535000Y-43410000D03*
X194735000Y-43410000D03*
%TD*%
D16*
%TO.C,R30*%
X207772000Y-44452000D03*
X207772000Y-43432000D03*
%TD*%
D28*
%TO.C,D2*%
X164846430Y-39680329D03*
X165700533Y-42867884D03*
X170433570Y-41599671D03*
X169579467Y-38412116D03*
%TD*%
D26*
%TO.C,C12*%
X203835000Y-58265000D03*
X203835000Y-57305000D03*
%TD*%
D25*
%TO.C,R23*%
X223800000Y-50890001D03*
X223800000Y-51909999D03*
%TD*%
D29*
%TO.C,U3*%
X138405656Y-58480082D03*
X138734356Y-59706807D03*
X139063056Y-60933533D03*
X139391756Y-62160259D03*
%TD*%
D30*
%TO.C,D3*%
X152628238Y-44881058D03*
X154278238Y-47738942D03*
X158521762Y-45288942D03*
X156871762Y-42431058D03*
%TD*%
D17*
%TO.C,D11*%
X175260000Y-57302500D03*
X175260000Y-55727500D03*
%TD*%
D31*
%TO.C,C1*%
X210252000Y-43462000D03*
X210252000Y-44422000D03*
%TD*%
%TO.C,C3*%
X212284000Y-43462000D03*
X212284000Y-44422000D03*
%TD*%
D32*
%TO.C,U5*%
X225430500Y-50866000D03*
X225430500Y-51816000D03*
X225430500Y-52766000D03*
X227705500Y-52766000D03*
X227705500Y-50866000D03*
%TD*%
D21*
%TO.C,C9*%
X201450000Y-46355000D03*
X202410000Y-46355000D03*
%TD*%
D33*
%TO.C,C16*%
X229870000Y-50866000D03*
X229870000Y-52766000D03*
%TD*%
D31*
%TO.C,C13*%
X210185000Y-57940000D03*
X210185000Y-58900000D03*
%TD*%
D34*
%TO.C,R1*%
X197994999Y-34925000D03*
X196975001Y-34925000D03*
%TD*%
D35*
%TO.C,TP1*%
X214376000Y-55372000D03*
%TD*%
D36*
%TO.C,D6*%
X229074000Y-48768000D03*
X231174000Y-48768000D03*
%TD*%
D17*
%TO.C,D10*%
X173355000Y-57302500D03*
X173355000Y-55727500D03*
%TD*%
D37*
%TO.C,J1*%
X216544000Y-42660001D03*
X216544000Y-41159999D03*
D38*
X220144000Y-44610000D03*
X220144000Y-39210000D03*
%TD*%
D39*
%TO.C,C24*%
X235204000Y-62606000D03*
X235204000Y-60706000D03*
%TD*%
D11*
%TO.C,Q3*%
X231726500Y-54676000D03*
X231726500Y-56576000D03*
X233601500Y-55626000D03*
%TD*%
D35*
%TO.C,TP2*%
X216662000Y-55372000D03*
%TD*%
D27*
%TO.C,SW2*%
X187535000Y-33425000D03*
X194735000Y-33425000D03*
X187535000Y-36425000D03*
X194735000Y-36425000D03*
%TD*%
D40*
%TO.C,R10*%
X172577622Y-34158002D03*
X171592378Y-34421998D03*
%TD*%
D32*
%TO.C,U6*%
X219842500Y-49850000D03*
X219842500Y-50800000D03*
X219842500Y-51750000D03*
X222117500Y-51750000D03*
X222117500Y-49850000D03*
%TD*%
D41*
%TO.C,S1*%
X215900000Y-67930000D03*
X215900000Y-63930000D03*
D42*
X221350000Y-67320000D03*
X210450000Y-67320000D03*
D43*
X212150000Y-62220000D03*
X213650000Y-62220000D03*
X215150000Y-62220000D03*
X216650000Y-62220000D03*
X218150000Y-62220000D03*
X219650000Y-62220000D03*
X221650000Y-63480000D03*
X210150000Y-63480000D03*
%TD*%
D17*
%TO.C,D8*%
X169495000Y-57302500D03*
X169495000Y-55727500D03*
%TD*%
D44*
%TO.C,J2*%
X254967541Y-125092361D03*
X260398964Y-127069237D03*
D45*
X255123470Y-123611378D03*
X255875225Y-123884994D03*
D46*
X257002856Y-124295418D03*
X257942548Y-124637438D03*
X258412395Y-124808448D03*
X259352087Y-125150469D03*
D45*
X260479718Y-125560893D03*
X261231472Y-125834509D03*
X261231472Y-125834509D03*
X260479718Y-125560893D03*
D46*
X259821935Y-125321479D03*
X258882241Y-124979458D03*
X257472702Y-124466428D03*
X256533009Y-124124408D03*
D45*
X255875225Y-123884994D03*
X255123470Y-123611378D03*
D47*
X253805051Y-124105235D03*
D48*
X252375407Y-128033150D03*
D47*
X261923995Y-127060289D03*
D48*
X260494351Y-130988204D03*
%TD*%
D49*
%TO.C,C23*%
X183106000Y-51308000D03*
X182146000Y-51308000D03*
%TD*%
%TO.C,C7*%
X201140000Y-50800000D03*
X200180000Y-50800000D03*
%TD*%
D15*
%TO.C,C20*%
X218760000Y-47498000D03*
X220660000Y-47498000D03*
%TD*%
D22*
%TO.C,R4*%
X184910000Y-43180000D03*
X185930000Y-43180000D03*
%TD*%
D10*
%TO.C,R18*%
X233576500Y-52832000D03*
X231751500Y-52832000D03*
%TD*%
D16*
%TO.C,R29*%
X208788000Y-44452000D03*
X208788000Y-43432000D03*
%TD*%
D50*
%TO.C,D1*%
X177255000Y-37720000D03*
X177255000Y-41020000D03*
X182155000Y-41020000D03*
X182155000Y-37720000D03*
%TD*%
D49*
%TO.C,C11*%
X197965000Y-33655000D03*
X197005000Y-33655000D03*
%TD*%
D22*
%TO.C,R3*%
X196975000Y-36195000D03*
X197995000Y-36195000D03*
%TD*%
D34*
%TO.C,R26*%
X217426000Y-48514000D03*
X216406000Y-48514000D03*
%TD*%
%TO.C,R35*%
X180088000Y-51308000D03*
X179068000Y-51308000D03*
%TD*%
D51*
%TO.C,U1*%
X203572500Y-46925000D03*
X203572500Y-47325000D03*
X203572500Y-47725000D03*
X203572500Y-48125000D03*
X203572500Y-48525000D03*
X203572500Y-48925000D03*
X203572500Y-49325000D03*
X203572500Y-49725000D03*
X203572500Y-50125000D03*
X203572500Y-50525000D03*
X203572500Y-50925000D03*
X203572500Y-51325000D03*
X203572500Y-51725000D03*
X203572500Y-52125000D03*
D52*
X204410000Y-52962500D03*
X204810000Y-52962500D03*
X205210000Y-52962500D03*
X205610000Y-52962500D03*
X206010000Y-52962500D03*
X206410000Y-52962500D03*
X206810000Y-52962500D03*
X207210000Y-52962500D03*
X207610000Y-52962500D03*
X208010000Y-52962500D03*
X208410000Y-52962500D03*
X208810000Y-52962500D03*
X209210000Y-52962500D03*
X209610000Y-52962500D03*
D51*
X210447500Y-52125000D03*
X210447500Y-51725000D03*
X210447500Y-51325000D03*
X210447500Y-50925000D03*
X210447500Y-50525000D03*
X210447500Y-50125000D03*
X210447500Y-49725000D03*
X210447500Y-49325000D03*
X210447500Y-48925000D03*
X210447500Y-48525000D03*
X210447500Y-48125000D03*
X210447500Y-47725000D03*
X210447500Y-47325000D03*
X210447500Y-46925000D03*
D52*
X209610000Y-46087500D03*
X209210000Y-46087500D03*
X208810000Y-46087500D03*
X208410000Y-46087500D03*
X208010000Y-46087500D03*
X207610000Y-46087500D03*
X207210000Y-46087500D03*
X206810000Y-46087500D03*
X206410000Y-46087500D03*
X206010000Y-46087500D03*
X205610000Y-46087500D03*
X205210000Y-46087500D03*
X204810000Y-46087500D03*
X204410000Y-46087500D03*
D53*
X207010000Y-49525000D03*
%TD*%
D54*
%TO.C,H1*%
X267843000Y-101117400D03*
%TD*%
D16*
%TO.C,R16*%
X171450000Y-59565000D03*
X171450000Y-58545000D03*
%TD*%
%TO.C,R28*%
X260858000Y-123446000D03*
X260858000Y-122426000D03*
%TD*%
D55*
%TO.C,D7*%
X234476000Y-48768000D03*
X232376000Y-48768000D03*
%TD*%
D26*
%TO.C,C22*%
X167640000Y-51280000D03*
X167640000Y-50320000D03*
%TD*%
D56*
%TO.C,SW5*%
X227829312Y-72240311D03*
X226408752Y-73933269D03*
D19*
X228762813Y-74472613D03*
X231060947Y-76400975D03*
D56*
X233421436Y-76932659D03*
X232000876Y-78625618D03*
D57*
X229319586Y-72642285D03*
X231617720Y-74570647D03*
X232766787Y-75534829D03*
%TD*%
D22*
%TO.C,R14*%
X144905000Y-52705000D03*
X145925000Y-52705000D03*
%TD*%
D58*
%TO.C,D13*%
X234950000Y-67530000D03*
X234950000Y-69630000D03*
%TD*%
D59*
%TO.C,U4*%
X229483500Y-59243000D03*
X229483500Y-58293000D03*
X229483500Y-57343000D03*
X227208500Y-57343000D03*
X227208500Y-59243000D03*
%TD*%
D22*
%TO.C,R38*%
X154430000Y-51435000D03*
X155450000Y-51435000D03*
%TD*%
D60*
%TO.C,R11*%
X158556673Y-37210000D03*
X157673327Y-37720000D03*
%TD*%
D21*
%TO.C,C8*%
X211610000Y-58674000D03*
X212570000Y-58674000D03*
%TD*%
D61*
%TO.C,SW7*%
X179475000Y-60115000D03*
X179475000Y-52915000D03*
X182475000Y-60115000D03*
X182475000Y-52915000D03*
%TD*%
D25*
%TO.C,R7*%
X213614000Y-58672000D03*
X213614000Y-59692000D03*
%TD*%
D34*
%TO.C,R20*%
X236095000Y-56134000D03*
X235075000Y-56134000D03*
%TD*%
D26*
%TO.C,C4*%
X213300000Y-44422000D03*
X213300000Y-43462000D03*
%TD*%
D22*
%TO.C,R6*%
X142365000Y-61595000D03*
X143385000Y-61595000D03*
%TD*%
D62*
%TO.C,U2*%
X197695000Y-38100000D03*
X197695000Y-39370000D03*
X197695000Y-40640000D03*
X197695000Y-41910000D03*
X204895000Y-41910000D03*
X204895000Y-40640000D03*
X204895000Y-39370000D03*
X204895000Y-38100000D03*
%TD*%
D34*
%TO.C,R21*%
X225919998Y-54200000D03*
X224900000Y-54200000D03*
%TD*%
D10*
%TO.C,R17*%
X233576500Y-50800000D03*
X231751500Y-50800000D03*
%TD*%
D25*
%TO.C,R27*%
X257048000Y-120902000D03*
X257048000Y-121922000D03*
%TD*%
D34*
%TO.C,R24*%
X217934000Y-49784000D03*
X216914000Y-49784000D03*
%TD*%
D11*
%TO.C,Q1*%
X226900500Y-65598000D03*
X226900500Y-67498000D03*
X228775500Y-66548000D03*
%TD*%
D63*
%TO.C,SW4*%
X155950993Y-38220500D03*
X154845993Y-36306584D03*
D19*
X153534038Y-38334212D03*
X150935961Y-39834212D03*
D63*
X149629009Y-41870500D03*
X148524007Y-39956583D03*
D64*
X155063557Y-39483416D03*
X152465480Y-40983416D03*
X151166441Y-41733416D03*
%TD*%
D61*
%TO.C,SW6*%
X164235000Y-60115000D03*
X164235000Y-52915000D03*
X167235000Y-60115000D03*
X167235000Y-52915000D03*
%TD*%
D34*
%TO.C,R22*%
X224709999Y-49500000D03*
X223690001Y-49500000D03*
%TD*%
D16*
%TO.C,R32*%
X175260000Y-59565000D03*
X175260000Y-58545000D03*
%TD*%
D21*
%TO.C,C6*%
X204625000Y-36195000D03*
X205585000Y-36195000D03*
%TD*%
%TO.C,C19*%
X221600000Y-53200000D03*
X222560000Y-53200000D03*
%TD*%
D22*
%TO.C,R19*%
X235075000Y-54991000D03*
X236095000Y-54991000D03*
%TD*%
D21*
%TO.C,C5*%
X212626000Y-50546000D03*
X213586000Y-50546000D03*
%TD*%
D25*
%TO.C,R2*%
X210185000Y-56005000D03*
X210185000Y-57025000D03*
%TD*%
D65*
%TO.C,M1*%
X231775000Y-67305000D03*
D66*
X231775000Y-69845000D03*
%TD*%
D25*
%TO.C,R9*%
X219710000Y-58672000D03*
X219710000Y-59692000D03*
%TD*%
D15*
%TO.C,C17*%
X229428000Y-61341000D03*
X231328000Y-61341000D03*
%TD*%
D31*
%TO.C,C2*%
X211268000Y-43462000D03*
X211268000Y-44422000D03*
%TD*%
D16*
%TO.C,R33*%
X177165000Y-59565000D03*
X177165000Y-58545000D03*
%TD*%
D17*
%TO.C,D12*%
X177165000Y-57302500D03*
X177165000Y-55727500D03*
%TD*%
D67*
%TO.C,Y1*%
X205910000Y-58635000D03*
X208110000Y-58635000D03*
X208110000Y-56935000D03*
X205910000Y-56935000D03*
%TD*%
D12*
%TO.C,R12*%
X227179500Y-69342000D03*
X229004500Y-69342000D03*
%TD*%
D26*
%TO.C,C14*%
X185900000Y-41580000D03*
X185900000Y-40620000D03*
%TD*%
D54*
%TO.C,H2*%
X232410000Y-41656000D03*
%TD*%
D15*
%TO.C,C15*%
X141925000Y-57658000D03*
X143825000Y-57658000D03*
%TD*%
D25*
%TO.C,R8*%
X216662000Y-58672000D03*
X216662000Y-59692000D03*
%TD*%
D65*
%TO.C,J3*%
X261605000Y-114051000D03*
D66*
X261605000Y-111511000D03*
X259065000Y-114051000D03*
X259065000Y-111511000D03*
X256525000Y-114051000D03*
X256525000Y-111511000D03*
%TD*%
M02*
