%TF.GenerationSoftware,KiCad,Pcbnew,8.0.4-8.0.4-0~ubuntu22.04.1*%
%TF.CreationDate,2024-11-20T16:55:02+01:00*%
%TF.ProjectId,HH2025badge,48483230-3235-4626-9164-67652e6b6963,rev?*%
%TF.SameCoordinates,Original*%
%TF.FileFunction,Copper,L2,Bot*%
%TF.FilePolarity,Positive*%
%FSLAX46Y46*%
G04 Gerber Fmt 4.6, Leading zero omitted, Abs format (unit mm)*
G04 Created by KiCad (PCBNEW 8.0.4-8.0.4-0~ubuntu22.04.1) date 2024-11-20 16:55:02*
%MOMM*%
%LPD*%
G01*
G04 APERTURE LIST*
G04 Aperture macros list*
%AMHorizOval*
0 Thick line with rounded ends*
0 $1 width*
0 $2 $3 position (X,Y) of the first rounded end (center of the circle)*
0 $4 $5 position (X,Y) of the second rounded end (center of the circle)*
0 Add line between two ends*
20,1,$1,$2,$3,$4,$5,0*
0 Add two circle primitives to create the rounded ends*
1,1,$1,$2,$3*
1,1,$1,$4,$5*%
%AMRotRect*
0 Rectangle, with rotation*
0 The origin of the aperture is its center*
0 $1 length*
0 $2 width*
0 $3 Rotation angle, in degrees counterclockwise*
0 Add horizontal line*
21,1,$1,$2,0,0,$3*%
G04 Aperture macros list end*
%TA.AperFunction,ComponentPad*%
%ADD10RotRect,1.800000X1.800000X285.000000*%
%TD*%
%TA.AperFunction,ComponentPad*%
%ADD11C,1.800000*%
%TD*%
%TA.AperFunction,ComponentPad*%
%ADD12C,1.300000*%
%TD*%
%TA.AperFunction,ComponentPad*%
%ADD13HorizOval,1.000000X-0.188111X-0.516831X0.188111X0.516831X0*%
%TD*%
%TA.AperFunction,ComponentPad*%
%ADD14HorizOval,1.000000X-0.102606X-0.281908X0.102606X0.281908X0*%
%TD*%
%TA.AperFunction,ComponentPad*%
%ADD15C,0.600000*%
%TD*%
%TA.AperFunction,ComponentPad*%
%ADD16R,1.700000X1.700000*%
%TD*%
%TA.AperFunction,ComponentPad*%
%ADD17O,1.700000X1.700000*%
%TD*%
%TA.AperFunction,ViaPad*%
%ADD18C,0.600000*%
%TD*%
%TA.AperFunction,ViaPad*%
%ADD19C,0.800000*%
%TD*%
%TA.AperFunction,ViaPad*%
%ADD20C,0.450000*%
%TD*%
%TA.AperFunction,Conductor*%
%ADD21C,0.400000*%
%TD*%
%TA.AperFunction,Conductor*%
%ADD22C,0.200000*%
%TD*%
G04 APERTURE END LIST*
D10*
%TO.P,D4,1,K*%
%TO.N,Net-(D4-K)*%
X140005006Y-51473444D03*
D11*
%TO.P,D4,2,A*%
%TO.N,+3V3*%
X140662407Y-53926895D03*
%TD*%
D12*
%TO.P,S1,*%
%TO.N,*%
X215900000Y-67930000D03*
X215900000Y-63930000D03*
%TD*%
D13*
%TO.P,J2,S1,SHIELD*%
%TO.N,GND*%
X253805051Y-124105235D03*
D14*
X252375407Y-128033150D03*
D13*
X261923995Y-127060289D03*
D14*
X260494351Y-130988204D03*
%TD*%
D15*
%TO.P,U1,57,GND*%
%TO.N,GND*%
X205735000Y-48250000D03*
X205735000Y-49525000D03*
X205735000Y-50800000D03*
X207010000Y-48250000D03*
X207010000Y-49525000D03*
X207010000Y-50800000D03*
X208285000Y-48250000D03*
X208285000Y-49525000D03*
X208285000Y-50800000D03*
%TD*%
D16*
%TO.P,M1,1,+*%
%TO.N,+3V3*%
X231775000Y-67305000D03*
D17*
%TO.P,M1,2,-*%
%TO.N,Net-(D13-A)*%
X231775000Y-69845000D03*
%TD*%
D16*
%TO.P,J3,1,Pin_1*%
%TO.N,GND*%
X261605000Y-114051000D03*
D17*
%TO.P,J3,2,Pin_2*%
%TO.N,+3V3*%
X261605000Y-111511000D03*
%TO.P,J3,3,Pin_3*%
%TO.N,SAOCLK*%
X259065000Y-114051000D03*
%TO.P,J3,4,Pin_4*%
%TO.N,SAOSDA*%
X259065000Y-111511000D03*
%TO.P,J3,5,Pin_5*%
%TO.N,SAOGP2*%
X256525000Y-114051000D03*
%TO.P,J3,6,Pin_6*%
%TO.N,SAOGP1*%
X256525000Y-111511000D03*
%TD*%
D18*
%TO.N,GND*%
X187535000Y-37800000D03*
X211100000Y-58700000D03*
X218313000Y-60706000D03*
X165600000Y-55900000D03*
X221500000Y-53900000D03*
X188800000Y-40400000D03*
X214376000Y-50546000D03*
X196540000Y-33660000D03*
X216500000Y-43700000D03*
D19*
X205700000Y-55800000D03*
D18*
X267462000Y-92456000D03*
X211248000Y-42800000D03*
X174244000Y-54610000D03*
X176276000Y-54610000D03*
X229900000Y-53700000D03*
X163322000Y-43942000D03*
X237998000Y-61214000D03*
X204640000Y-57305000D03*
X172466000Y-54610000D03*
X186400000Y-36400000D03*
X203300000Y-57200000D03*
X220100000Y-40500000D03*
X222758000Y-55499000D03*
X187500000Y-35300000D03*
X210140000Y-61910000D03*
X151650000Y-42560000D03*
X178390000Y-57400000D03*
X220100000Y-45900000D03*
X182118000Y-43434000D03*
X201295000Y-38735000D03*
X159800000Y-44600000D03*
X257060000Y-120360000D03*
D19*
X236095000Y-56805000D03*
D18*
X224500000Y-51900000D03*
X260858000Y-122021600D03*
X194790000Y-35370000D03*
X168170000Y-57790000D03*
X200900000Y-46400000D03*
X263050000Y-107650000D03*
X213348000Y-42800000D03*
X203047600Y-33807400D03*
X134137400Y-59639200D03*
X157400000Y-45900000D03*
X225900000Y-54800000D03*
D19*
X230600000Y-58300000D03*
D18*
X193400000Y-40400000D03*
X223574000Y-53180000D03*
X156200000Y-51435000D03*
X201752200Y-54051200D03*
X203470000Y-55984999D03*
X215366600Y-35458400D03*
X214600000Y-42700000D03*
D19*
X208100000Y-59700000D03*
D18*
X169418000Y-50038000D03*
X222885000Y-44323000D03*
X158242000Y-40894000D03*
D19*
X226000000Y-64300000D03*
D18*
X220800000Y-53200000D03*
X181102000Y-55880000D03*
X209350000Y-58635000D03*
X178144936Y-51398936D03*
X153670000Y-40132000D03*
X137100000Y-58900000D03*
X233680000Y-54356000D03*
X218700000Y-50800000D03*
D19*
X226905862Y-68042000D03*
D18*
X218186000Y-55753000D03*
X137300000Y-62600000D03*
X199390000Y-50800000D03*
D19*
X144700000Y-57658000D03*
D18*
X225044000Y-43942000D03*
X194700000Y-41800000D03*
X260160000Y-100010000D03*
X220268800Y-64897000D03*
X215138000Y-60706000D03*
X212248000Y-42800000D03*
X173736000Y-36322000D03*
X163200000Y-51310000D03*
X139700000Y-58100000D03*
X232820000Y-56580000D03*
X211600000Y-59200000D03*
X170434000Y-54610000D03*
X220100000Y-43400000D03*
X211963000Y-47371000D03*
X254558800Y-104165400D03*
X188900000Y-36425000D03*
X221700000Y-64600000D03*
D19*
X205710000Y-53998305D03*
D18*
X194790000Y-37540000D03*
X159100000Y-46300000D03*
X231700000Y-57300000D03*
X221800000Y-39200000D03*
X193690000Y-36425000D03*
X187600000Y-41800000D03*
X199390000Y-41910000D03*
X210248000Y-42800000D03*
X140716000Y-47498000D03*
X194700000Y-39100000D03*
X223520000Y-60706000D03*
X218313000Y-48895000D03*
X182118000Y-39370000D03*
X187500000Y-39000000D03*
X210200000Y-59400000D03*
X186500000Y-40640000D03*
X158000000Y-44300000D03*
X264261600Y-118110000D03*
%TO.N,+3V3*%
X182880000Y-35158002D03*
X226100000Y-58700000D03*
X211014573Y-45197128D03*
X235374603Y-64522692D03*
X203560000Y-52930000D03*
X233800000Y-67530000D03*
X207325000Y-45325000D03*
X204588520Y-52039929D03*
X216310000Y-49764000D03*
X212882941Y-51023772D03*
X143510000Y-52073444D03*
X213100000Y-58672000D03*
X219690000Y-58160000D03*
X184150000Y-34036000D03*
X204510000Y-48000000D03*
X216700000Y-58200000D03*
X143510000Y-50800000D03*
D20*
%TO.N,RESET*%
X208873569Y-52195537D03*
D18*
X203735000Y-46255000D03*
%TO.N,Net-(D7-K)*%
X222500000Y-52400000D03*
X225100000Y-47498000D03*
%TO.N,VBAT*%
X240700000Y-65800000D03*
X236128000Y-70908894D03*
%TO.N,SAOGP1*%
X259615000Y-109220000D03*
%TO.N,SAOCLK*%
X259080000Y-109855000D03*
%TO.N,SWITCH2*%
X171450000Y-35560000D03*
X162572501Y-36876653D03*
%TO.N,Net-(SW5-B)*%
X235712000Y-68580000D03*
X238200000Y-65700000D03*
%TO.N,/SWCLK_1*%
X212555806Y-54435221D03*
X209052078Y-55397222D03*
%TO.N,/SWD_1*%
X211955808Y-53835221D03*
X209406473Y-54680000D03*
%TD*%
D21*
%TO.N,+3V3*%
X143510000Y-50800000D02*
X143510000Y-52073444D01*
X219710000Y-58180000D02*
X225580000Y-58180000D01*
X213572000Y-58200000D02*
X216700000Y-58200000D01*
X233800000Y-67500000D02*
X235374603Y-65925397D01*
X219650000Y-58200000D02*
X216700000Y-58200000D01*
D22*
X212882941Y-51023772D02*
X214142713Y-49764000D01*
D21*
X182880000Y-35158002D02*
X183027998Y-35158002D01*
X183027998Y-35158002D02*
X184150000Y-34036000D01*
X203698449Y-52930000D02*
X204588520Y-52039929D01*
X204510000Y-48000000D02*
X204650000Y-48000000D01*
X207325000Y-45325000D02*
X209696256Y-45325000D01*
X213100000Y-58672000D02*
X213572000Y-58200000D01*
X209696256Y-45325000D02*
X209824128Y-45197128D01*
X219690000Y-58160000D02*
X219710000Y-58180000D01*
X219690000Y-58160000D02*
X219650000Y-58200000D01*
X204650000Y-48000000D02*
X207325000Y-45325000D01*
X209824128Y-45197128D02*
X211014573Y-45197128D01*
X235374603Y-65925397D02*
X235374603Y-64522692D01*
X225580000Y-58180000D02*
X226100000Y-58700000D01*
X203560000Y-52930000D02*
X203698449Y-52930000D01*
X233800000Y-67530000D02*
X233800000Y-67500000D01*
D22*
X214142713Y-49764000D02*
X216310000Y-49764000D01*
%TO.N,RESET*%
X203835000Y-46355000D02*
X203835000Y-50395000D01*
X206580000Y-53140000D02*
X207929106Y-53140000D01*
X203735000Y-46255000D02*
X203835000Y-46355000D01*
X203835000Y-50395000D02*
X206580000Y-53140000D01*
X207929106Y-53140000D02*
X208873569Y-52195537D01*
%TO.N,Net-(D7-K)*%
X222500000Y-52400000D02*
X225100000Y-49800000D01*
X225100000Y-49800000D02*
X225100000Y-47498000D01*
D21*
%TO.N,VBAT*%
X240700000Y-65800000D02*
X240700000Y-66336894D01*
X240700000Y-66336894D02*
X236128000Y-70908894D01*
D22*
%TO.N,SAOGP1*%
X257175000Y-109220000D02*
X256525000Y-109870000D01*
X259615000Y-109220000D02*
X257175000Y-109220000D01*
X256525000Y-109870000D02*
X256525000Y-111511000D01*
%TO.N,SAOCLK*%
X259080000Y-109855000D02*
X260215000Y-110990000D01*
X260215000Y-112901000D02*
X259065000Y-114051000D01*
X260215000Y-110990000D02*
X260215000Y-112901000D01*
%TO.N,SWITCH2*%
X163889154Y-35560000D02*
X171450000Y-35560000D01*
X163889154Y-35560000D02*
X162572501Y-36876653D01*
%TO.N,Net-(SW5-B)*%
X235712000Y-68188000D02*
X235712000Y-68580000D01*
X238200000Y-65700000D02*
X235712000Y-68188000D01*
%TO.N,/SWCLK_1*%
X211711027Y-55280000D02*
X212555806Y-54435221D01*
X209052078Y-55397222D02*
X209169300Y-55280000D01*
X209169300Y-55280000D02*
X211711027Y-55280000D01*
%TO.N,/SWD_1*%
X209406473Y-54680000D02*
X211111029Y-54680000D01*
X211111029Y-54680000D02*
X211955808Y-53835221D01*
%TD*%
%TA.AperFunction,Conductor*%
%TO.N,GND*%
G36*
X194487794Y-30759399D02*
G01*
X194487799Y-30759401D01*
X194487800Y-30759400D01*
X198774584Y-30886227D01*
X198786174Y-30887117D01*
X202662371Y-31368474D01*
X202670776Y-31369813D01*
X205536574Y-31927756D01*
X205537195Y-31927879D01*
X211626375Y-33145715D01*
X211639043Y-33148951D01*
X212850896Y-33527655D01*
X212853122Y-33528374D01*
X215898473Y-34543491D01*
X215901520Y-34544551D01*
X219964000Y-36017200D01*
X220971031Y-36117903D01*
X220988742Y-36120985D01*
X221984439Y-36369909D01*
X222006800Y-36377840D01*
X223511485Y-37080026D01*
X223527822Y-37089215D01*
X224663000Y-37846000D01*
X229616000Y-39954200D01*
X231076662Y-38642079D01*
X231139687Y-38611923D01*
X231165531Y-38610472D01*
X233412604Y-38719553D01*
X233467682Y-38735499D01*
X234062019Y-39071972D01*
X234063449Y-39072795D01*
X234076576Y-39080459D01*
X234101010Y-39099141D01*
X235251358Y-40230631D01*
X235285348Y-40291675D01*
X235286762Y-40298920D01*
X235451979Y-41303989D01*
X235567708Y-42008010D01*
X235583358Y-42103211D01*
X235585000Y-42123325D01*
X235585000Y-42875200D01*
X239420400Y-45440600D01*
X242909736Y-47741539D01*
X242920417Y-47748582D01*
X242930420Y-47755922D01*
X243537549Y-48250000D01*
X246606453Y-50747453D01*
X246610633Y-50751010D01*
X248619781Y-52539500D01*
X250943418Y-54607940D01*
X250997990Y-54656518D01*
X251007142Y-54665559D01*
X258669532Y-63063742D01*
X258677214Y-63073031D01*
X263722394Y-69816841D01*
X263732734Y-69833180D01*
X267256266Y-76500005D01*
X267260903Y-76509791D01*
X267387238Y-76809600D01*
X268957525Y-80536104D01*
X268962719Y-80551019D01*
X271649546Y-90208386D01*
X271653827Y-90233661D01*
X272251857Y-99529009D01*
X272245620Y-99576569D01*
X272118613Y-99953448D01*
X272117420Y-99956825D01*
X271868469Y-100630602D01*
X271867042Y-100634284D01*
X271675204Y-101106656D01*
X271674383Y-101108628D01*
X271473334Y-101580207D01*
X271472646Y-101581792D01*
X271265036Y-102050545D01*
X271264499Y-102051740D01*
X271052115Y-102517908D01*
X271051642Y-102518933D01*
X270212250Y-104317754D01*
X270209922Y-104322020D01*
X270180713Y-104385337D01*
X270180486Y-104385826D01*
X270150995Y-104449026D01*
X270149239Y-104453565D01*
X267309790Y-110608953D01*
X267309567Y-110609434D01*
X266445589Y-112461514D01*
X266439320Y-112473262D01*
X266435981Y-112478782D01*
X266412466Y-112532439D01*
X266411284Y-112535051D01*
X266399323Y-112560691D01*
X266386510Y-112588159D01*
X266384568Y-112594317D01*
X266379887Y-112606776D01*
X266225617Y-112958789D01*
X266219687Y-112970573D01*
X266216153Y-112976751D01*
X266194066Y-113030689D01*
X266192888Y-113033468D01*
X266169499Y-113086840D01*
X266167519Y-113093669D01*
X266163176Y-113106126D01*
X266016299Y-113464811D01*
X266009487Y-113477178D01*
X266010007Y-113477454D01*
X266006201Y-113484626D01*
X265986642Y-113537072D01*
X265985212Y-113540728D01*
X265963989Y-113592560D01*
X265961916Y-113600423D01*
X265961347Y-113600273D01*
X265957962Y-113613976D01*
X265821512Y-113979868D01*
X265815383Y-113991842D01*
X265816043Y-113992169D01*
X265812439Y-113999449D01*
X265794018Y-114053453D01*
X265792843Y-114056744D01*
X265772894Y-114110240D01*
X265771073Y-114118161D01*
X265770355Y-114117996D01*
X265767515Y-114131155D01*
X265728083Y-114246759D01*
X265722999Y-114259358D01*
X265720922Y-114263787D01*
X265702955Y-114320340D01*
X265702137Y-114322822D01*
X265683007Y-114378907D01*
X265682048Y-114383692D01*
X265678648Y-114396854D01*
X265641466Y-114513896D01*
X265636505Y-114526925D01*
X265635269Y-114529690D01*
X265628928Y-114551000D01*
X265618087Y-114587426D01*
X265617461Y-114589458D01*
X265608089Y-114618961D01*
X265599224Y-114646868D01*
X265598692Y-114649850D01*
X265595473Y-114663414D01*
X265182926Y-116049664D01*
X265177601Y-116062059D01*
X265178279Y-116062339D01*
X265175174Y-116069854D01*
X265160473Y-116124933D01*
X265159517Y-116128321D01*
X265143254Y-116182970D01*
X265141972Y-116191000D01*
X265141248Y-116190884D01*
X265139307Y-116204237D01*
X264767166Y-117598528D01*
X264763133Y-117610965D01*
X264760338Y-117618248D01*
X264746821Y-117674594D01*
X264746050Y-117677639D01*
X264731096Y-117733670D01*
X264730084Y-117741417D01*
X264727710Y-117754265D01*
X264391522Y-119155719D01*
X264387683Y-119168602D01*
X264385766Y-119173953D01*
X264373300Y-119231546D01*
X264372687Y-119234235D01*
X264358939Y-119291551D01*
X264358349Y-119297174D01*
X264356220Y-119310463D01*
X264051280Y-120719363D01*
X264047601Y-120732707D01*
X264046465Y-120736077D01*
X264034913Y-120794873D01*
X264034434Y-120797194D01*
X264021762Y-120855745D01*
X264021469Y-120859299D01*
X264019563Y-120873004D01*
X263741450Y-122288519D01*
X263737913Y-122302293D01*
X263737450Y-122303743D01*
X263726668Y-122363671D01*
X263726302Y-122365617D01*
X263714559Y-122425386D01*
X263714465Y-122426886D01*
X263712754Y-122441007D01*
X263457048Y-123862304D01*
X263453792Y-123875930D01*
X263453043Y-123878429D01*
X263443403Y-123938036D01*
X263443035Y-123940192D01*
X263432347Y-123999600D01*
X263432225Y-124002203D01*
X263430773Y-124016147D01*
X263129009Y-125882321D01*
X263098875Y-125945359D01*
X263039445Y-125982098D01*
X262969586Y-125980874D01*
X262911478Y-125942076D01*
X262906600Y-125935849D01*
X262860315Y-125872723D01*
X262860309Y-125872717D01*
X262715086Y-125739644D01*
X262715076Y-125739637D01*
X262678741Y-125717589D01*
X262404142Y-126472044D01*
X262400690Y-126452467D01*
X262367307Y-126380877D01*
X262316532Y-126320366D01*
X262251826Y-126275059D01*
X262177598Y-126248042D01*
X262098907Y-126241157D01*
X262021115Y-126254874D01*
X261949525Y-126288257D01*
X261934293Y-126301037D01*
X262208895Y-125546579D01*
X262166883Y-125540112D01*
X261970088Y-125548705D01*
X261778752Y-125595525D01*
X261778744Y-125595528D01*
X261600222Y-125678774D01*
X261441371Y-125795248D01*
X261441365Y-125795254D01*
X261308292Y-125940477D01*
X261308282Y-125940491D01*
X261206101Y-126108882D01*
X261206100Y-126108883D01*
X261069807Y-126483344D01*
X261727592Y-126722758D01*
X261556582Y-127192606D01*
X260973980Y-126980556D01*
X260917716Y-126939130D01*
X260896616Y-126896125D01*
X260894052Y-126886555D01*
X260888652Y-126866401D01*
X260819469Y-126746572D01*
X260721629Y-126648732D01*
X260721628Y-126648731D01*
X260721625Y-126648729D01*
X260601802Y-126579550D01*
X260601801Y-126579549D01*
X260601800Y-126579549D01*
X260468147Y-126543737D01*
X260329781Y-126543737D01*
X260196128Y-126579549D01*
X260196125Y-126579550D01*
X260076302Y-126648729D01*
X260076297Y-126648733D01*
X259978460Y-126746570D01*
X259978456Y-126746575D01*
X259909277Y-126866398D01*
X259909276Y-126866401D01*
X259873464Y-127000054D01*
X259873464Y-127138420D01*
X259900513Y-127239366D01*
X259909276Y-127272072D01*
X259909277Y-127272075D01*
X259978456Y-127391898D01*
X259978458Y-127391901D01*
X259978459Y-127391902D01*
X260076299Y-127489742D01*
X260196128Y-127558925D01*
X260329781Y-127594737D01*
X260329783Y-127594737D01*
X260468144Y-127594737D01*
X260468147Y-127594737D01*
X260583374Y-127563862D01*
X260653219Y-127565525D01*
X260711081Y-127604687D01*
X260738586Y-127668915D01*
X260739345Y-127678228D01*
X260741131Y-127719137D01*
X260787951Y-127910473D01*
X260787954Y-127910481D01*
X260871200Y-128089003D01*
X260987677Y-128247857D01*
X261132913Y-128380940D01*
X261169247Y-128402987D01*
X261443847Y-127648529D01*
X261447300Y-127668111D01*
X261480683Y-127739701D01*
X261531458Y-127800212D01*
X261596164Y-127845519D01*
X261670392Y-127872536D01*
X261749083Y-127879421D01*
X261826875Y-127865704D01*
X261898465Y-127832321D01*
X261913692Y-127819543D01*
X261639094Y-128573997D01*
X261681113Y-128580464D01*
X261877901Y-128571872D01*
X262069237Y-128525052D01*
X262069245Y-128525049D01*
X262247767Y-128441803D01*
X262406621Y-128325326D01*
X262526657Y-128194330D01*
X262586461Y-128158202D01*
X262656304Y-128160141D01*
X262714011Y-128199533D01*
X262741260Y-128263870D01*
X262740523Y-128297691D01*
X261921015Y-133420416D01*
X261920629Y-133422693D01*
X261905917Y-133504818D01*
X261904520Y-133511538D01*
X261888206Y-133580402D01*
X261886788Y-133585836D01*
X261879802Y-133610323D01*
X261878647Y-133614138D01*
X261870043Y-133640993D01*
X261868709Y-133644929D01*
X261859801Y-133669828D01*
X261858266Y-133673894D01*
X261849109Y-133696912D01*
X261847364Y-133701075D01*
X261837980Y-133722372D01*
X261836009Y-133726626D01*
X261826465Y-133746241D01*
X261824269Y-133750538D01*
X261814578Y-133768630D01*
X261812140Y-133772970D01*
X261802270Y-133789742D01*
X261799595Y-133794081D01*
X261789561Y-133809632D01*
X261786656Y-133813935D01*
X261776384Y-133828480D01*
X261773246Y-133832727D01*
X261762684Y-133846407D01*
X261759340Y-133850552D01*
X261748384Y-133863548D01*
X261744840Y-133867572D01*
X261733374Y-133880037D01*
X261729659Y-133883904D01*
X261717516Y-133896010D01*
X261713652Y-133899700D01*
X261700679Y-133911564D01*
X261696703Y-133915048D01*
X261682780Y-133926731D01*
X261678721Y-133929993D01*
X261663633Y-133941610D01*
X261659515Y-133944648D01*
X261643106Y-133956236D01*
X261638964Y-133959037D01*
X261620986Y-133970676D01*
X261616853Y-133973239D01*
X261597217Y-133984885D01*
X261593116Y-133987213D01*
X261571710Y-133998832D01*
X261567672Y-134000928D01*
X261544274Y-134012538D01*
X261540315Y-134014417D01*
X261521434Y-134022967D01*
X261515539Y-134025638D01*
X261514863Y-134025944D01*
X261511021Y-134027606D01*
X261495461Y-134034026D01*
X261483359Y-134039019D01*
X261479614Y-134040493D01*
X261449716Y-134051707D01*
X261446086Y-134053004D01*
X261413890Y-134063951D01*
X261410401Y-134065081D01*
X261375787Y-134075719D01*
X261372439Y-134076696D01*
X261329755Y-134088511D01*
X261328752Y-134088784D01*
X260005779Y-134443078D01*
X259999134Y-134444663D01*
X259796181Y-134487192D01*
X259792088Y-134487978D01*
X259585659Y-134524040D01*
X259581142Y-134524744D01*
X259378775Y-134552453D01*
X259373823Y-134553030D01*
X259175601Y-134572093D01*
X259170211Y-134572493D01*
X258976157Y-134582647D01*
X258970336Y-134582814D01*
X258780392Y-134583824D01*
X258774162Y-134583701D01*
X258588150Y-134575336D01*
X258581553Y-134574863D01*
X258399262Y-134556888D01*
X258392350Y-134556009D01*
X258213495Y-134528157D01*
X258206345Y-134526828D01*
X258030465Y-134488763D01*
X258023169Y-134486951D01*
X257849834Y-134438273D01*
X257842495Y-134435964D01*
X257671155Y-134376156D01*
X257663885Y-134373359D01*
X257493984Y-134301793D01*
X257486905Y-134298545D01*
X257317938Y-134214488D01*
X257311125Y-134210829D01*
X257142673Y-134113467D01*
X257136216Y-134109466D01*
X257056783Y-134056815D01*
X256958787Y-133991859D01*
X256956292Y-133990161D01*
X256952074Y-133987213D01*
X256314677Y-133541701D01*
X256304236Y-133533440D01*
X256282638Y-133518740D01*
X256252352Y-133498127D01*
X256251197Y-133497330D01*
X256200365Y-133461802D01*
X256199853Y-133461444D01*
X256188432Y-133454623D01*
X256133977Y-133417560D01*
X256124501Y-133410244D01*
X256071407Y-133374965D01*
X256070325Y-133374238D01*
X256018674Y-133339084D01*
X256017590Y-133338346D01*
X256007227Y-133332321D01*
X255952096Y-133295690D01*
X255940518Y-133286982D01*
X255940333Y-133286825D01*
X255940331Y-133286823D01*
X255888635Y-133253511D01*
X255887221Y-133252585D01*
X255835937Y-133218510D01*
X255835695Y-133218392D01*
X255823105Y-133211283D01*
X255766512Y-133174815D01*
X255755095Y-133166499D01*
X255753547Y-133165230D01*
X255741091Y-133157496D01*
X255701956Y-133133196D01*
X255700321Y-133132162D01*
X255649269Y-133099265D01*
X255649266Y-133099263D01*
X255647459Y-133098409D01*
X255635037Y-133091646D01*
X255576456Y-133055272D01*
X255573727Y-133053325D01*
X255513362Y-133016094D01*
X255513047Y-133015899D01*
X255452555Y-132978339D01*
X255449574Y-132976754D01*
X255141069Y-132786486D01*
X255129975Y-132777738D01*
X255129617Y-132778208D01*
X255123156Y-132773278D01*
X255123154Y-132773276D01*
X255112468Y-132767145D01*
X255074564Y-132745396D01*
X255071185Y-132743385D01*
X255023567Y-132714017D01*
X255016151Y-132710690D01*
X255016392Y-132710152D01*
X255003416Y-132704575D01*
X254691830Y-132525799D01*
X254679776Y-132517919D01*
X254679220Y-132517507D01*
X254651432Y-132502104D01*
X254625603Y-132487786D01*
X254624098Y-132486937D01*
X254570865Y-132456394D01*
X254570862Y-132456393D01*
X254570208Y-132456124D01*
X254557242Y-132449891D01*
X253748351Y-132001499D01*
X253746330Y-132000354D01*
X253324093Y-131755848D01*
X253321537Y-131754326D01*
X253119586Y-131630819D01*
X253117325Y-131629403D01*
X252918015Y-131501540D01*
X252915375Y-131499798D01*
X252720733Y-131367802D01*
X252717747Y-131365713D01*
X252527981Y-131228714D01*
X252524694Y-131226257D01*
X252510570Y-131215332D01*
X259388399Y-131215332D01*
X259388399Y-131215335D01*
X259396992Y-131412130D01*
X259443812Y-131603465D01*
X259443815Y-131603473D01*
X259527061Y-131781995D01*
X259643535Y-131940846D01*
X259643541Y-131940852D01*
X259788767Y-132073927D01*
X259788771Y-132073930D01*
X259825108Y-132095980D01*
X260099708Y-131341521D01*
X260103161Y-131361103D01*
X260136544Y-131432693D01*
X260187319Y-131493204D01*
X260252025Y-131538511D01*
X260326253Y-131565528D01*
X260404944Y-131572413D01*
X260482736Y-131558696D01*
X260554326Y-131525313D01*
X260569553Y-131512535D01*
X260294955Y-132266989D01*
X260336974Y-132273456D01*
X260533763Y-132264864D01*
X260725098Y-132218044D01*
X260725106Y-132218041D01*
X260903628Y-132134795D01*
X261062479Y-132018321D01*
X261062485Y-132018315D01*
X261195558Y-131873092D01*
X261195568Y-131873078D01*
X261297748Y-131704688D01*
X261297754Y-131704676D01*
X261348538Y-131565147D01*
X260690753Y-131325732D01*
X260861763Y-130855886D01*
X261519547Y-131095299D01*
X261570334Y-130955764D01*
X261600302Y-130761069D01*
X261591709Y-130564278D01*
X261544889Y-130372942D01*
X261544886Y-130372934D01*
X261461643Y-130194420D01*
X261345160Y-130035555D01*
X261199937Y-129902482D01*
X261199927Y-129902475D01*
X261163592Y-129880427D01*
X260888992Y-130634881D01*
X260885541Y-130615306D01*
X260852158Y-130543715D01*
X260801383Y-130483204D01*
X260736677Y-130437897D01*
X260662449Y-130410880D01*
X260583758Y-130403995D01*
X260505966Y-130417712D01*
X260434376Y-130451095D01*
X260419143Y-130463876D01*
X260693745Y-129709418D01*
X260651734Y-129702951D01*
X260454937Y-129711544D01*
X260263604Y-129758363D01*
X260263594Y-129758366D01*
X260085081Y-129841609D01*
X259926216Y-129958092D01*
X259793143Y-130103315D01*
X259793133Y-130103329D01*
X259690952Y-130271720D01*
X259690951Y-130271722D01*
X259640163Y-130411260D01*
X260297947Y-130650674D01*
X260126938Y-131120520D01*
X259469153Y-130881106D01*
X259418366Y-131020642D01*
X259388399Y-131215332D01*
X252510570Y-131215332D01*
X252353716Y-131094000D01*
X252339962Y-131083361D01*
X252336442Y-131080533D01*
X252195356Y-130962910D01*
X252178055Y-130945285D01*
X252175930Y-130942637D01*
X252138481Y-130915181D01*
X252132403Y-130910426D01*
X252096747Y-130880700D01*
X252096742Y-130880696D01*
X252093657Y-130879270D01*
X252072390Y-130866726D01*
X252020010Y-130828323D01*
X252018282Y-130826877D01*
X251960083Y-130784389D01*
X251959880Y-130784240D01*
X251939901Y-130769592D01*
X251931718Y-130762814D01*
X251928537Y-130760544D01*
X251879274Y-130725387D01*
X251878346Y-130724717D01*
X251855151Y-130707783D01*
X251845323Y-130699808D01*
X251845317Y-130699802D01*
X251835557Y-130693097D01*
X251795516Y-130665589D01*
X251793775Y-130664370D01*
X251767040Y-130645291D01*
X251758419Y-130638544D01*
X251757055Y-130637376D01*
X251708317Y-130605640D01*
X251705767Y-130603934D01*
X251673773Y-130581955D01*
X251666280Y-130576381D01*
X251664599Y-130575029D01*
X251616515Y-130545792D01*
X251613313Y-130543777D01*
X251574042Y-130518206D01*
X251567541Y-130513670D01*
X251567180Y-130513400D01*
X251567178Y-130513398D01*
X251567175Y-130513396D01*
X251567172Y-130513394D01*
X251519509Y-130486715D01*
X251515654Y-130484465D01*
X251468954Y-130456070D01*
X251461516Y-130452790D01*
X251461679Y-130452419D01*
X251447902Y-130446635D01*
X251425024Y-130433828D01*
X251424377Y-130433463D01*
X251406857Y-130423478D01*
X251357300Y-130395234D01*
X251351109Y-130391460D01*
X251305751Y-130361951D01*
X251299106Y-130357311D01*
X251258075Y-130326622D01*
X251252887Y-130322521D01*
X251241958Y-130313399D01*
X251238431Y-130310341D01*
X251225186Y-130298412D01*
X251221657Y-130295106D01*
X251210184Y-130283929D01*
X251206653Y-130280347D01*
X251196746Y-130269879D01*
X251193246Y-130266022D01*
X251184709Y-130256207D01*
X251181291Y-130252102D01*
X251177639Y-130247519D01*
X251173945Y-130242882D01*
X251170644Y-130238546D01*
X251164317Y-130229844D01*
X251161138Y-130225258D01*
X251155617Y-130216898D01*
X251152631Y-130212147D01*
X251147768Y-130204004D01*
X251145005Y-130199126D01*
X251140613Y-130190943D01*
X251138058Y-130185906D01*
X251134078Y-130177599D01*
X251131762Y-130172471D01*
X251128040Y-130163697D01*
X251125982Y-130158523D01*
X251122479Y-130149109D01*
X251120680Y-130143926D01*
X251117370Y-130133659D01*
X251115856Y-130128594D01*
X251112710Y-130117160D01*
X251111450Y-130112173D01*
X251108529Y-130099492D01*
X251107509Y-130094605D01*
X251104859Y-130080479D01*
X251104056Y-130075679D01*
X251102581Y-130065656D01*
X251101761Y-130058741D01*
X251099670Y-130035555D01*
X251097914Y-130016080D01*
X251097441Y-130007553D01*
X251096519Y-129963452D01*
X251096597Y-129955775D01*
X251098743Y-129903848D01*
X251099215Y-129897021D01*
X251105534Y-129831975D01*
X251105977Y-129828066D01*
X251222137Y-128934708D01*
X251250300Y-128870771D01*
X251308563Y-128832206D01*
X251378427Y-128831263D01*
X251437709Y-128868241D01*
X251445100Y-128877379D01*
X251524591Y-128985791D01*
X251524597Y-128985798D01*
X251669823Y-129118873D01*
X251669827Y-129118876D01*
X251706164Y-129140926D01*
X251980764Y-128386469D01*
X251984217Y-128406049D01*
X252017600Y-128477639D01*
X252068375Y-128538150D01*
X252133081Y-128583457D01*
X252207309Y-128610474D01*
X252286000Y-128617359D01*
X252363792Y-128603642D01*
X252435382Y-128570259D01*
X252450609Y-128557481D01*
X252176011Y-129311935D01*
X252218030Y-129318402D01*
X252414819Y-129309810D01*
X252606154Y-129262990D01*
X252606162Y-129262987D01*
X252784684Y-129179741D01*
X252943535Y-129063267D01*
X252943541Y-129063261D01*
X253076614Y-128918038D01*
X253076624Y-128918024D01*
X253178804Y-128749634D01*
X253178810Y-128749622D01*
X253229594Y-128610093D01*
X252571809Y-128370678D01*
X252742819Y-127900832D01*
X253400603Y-128140245D01*
X253451390Y-128000710D01*
X253481358Y-127806015D01*
X253472765Y-127609224D01*
X253425945Y-127417888D01*
X253425942Y-127417880D01*
X253342699Y-127239366D01*
X253226216Y-127080501D01*
X253080993Y-126947428D01*
X253080983Y-126947421D01*
X253044648Y-126925373D01*
X252770048Y-127679827D01*
X252766597Y-127660252D01*
X252733214Y-127588661D01*
X252682439Y-127528150D01*
X252617733Y-127482843D01*
X252543505Y-127455826D01*
X252464814Y-127448941D01*
X252387022Y-127462658D01*
X252315432Y-127496041D01*
X252300202Y-127508820D01*
X252574801Y-126754364D01*
X252532790Y-126747897D01*
X252335993Y-126756490D01*
X252144660Y-126803309D01*
X252144650Y-126803312D01*
X251966137Y-126886555D01*
X251807274Y-127003036D01*
X251705973Y-127113587D01*
X251646168Y-127149714D01*
X251576326Y-127147774D01*
X251518619Y-127108382D01*
X251491370Y-127044045D01*
X251491890Y-127011640D01*
X251590013Y-126349624D01*
X251590307Y-126347744D01*
X251877958Y-124605820D01*
X251878279Y-124603966D01*
X251884921Y-124567286D01*
X252613594Y-124567286D01*
X252613594Y-124567289D01*
X252622187Y-124764083D01*
X252669007Y-124955419D01*
X252669010Y-124955427D01*
X252752256Y-125133949D01*
X252868733Y-125292803D01*
X253013969Y-125425886D01*
X253050303Y-125447933D01*
X253324903Y-124693475D01*
X253328356Y-124713057D01*
X253361739Y-124784647D01*
X253412514Y-124845158D01*
X253477220Y-124890465D01*
X253551448Y-124917482D01*
X253630139Y-124924367D01*
X253707931Y-124910650D01*
X253779521Y-124877267D01*
X253794748Y-124864489D01*
X253520150Y-125618943D01*
X253562169Y-125625410D01*
X253758957Y-125616818D01*
X253950293Y-125569998D01*
X253950301Y-125569995D01*
X254128823Y-125486749D01*
X254287676Y-125370273D01*
X254316680Y-125338620D01*
X254376484Y-125302491D01*
X254446327Y-125304429D01*
X254504034Y-125343819D01*
X254515492Y-125360391D01*
X254547033Y-125415022D01*
X254547035Y-125415025D01*
X254547036Y-125415026D01*
X254644876Y-125512866D01*
X254764705Y-125582049D01*
X254898358Y-125617861D01*
X254898360Y-125617861D01*
X255036722Y-125617861D01*
X255036724Y-125617861D01*
X255170377Y-125582049D01*
X255290206Y-125512866D01*
X255388046Y-125415026D01*
X255457229Y-125295197D01*
X255493041Y-125161544D01*
X255493041Y-125023178D01*
X255457229Y-124889525D01*
X255388046Y-124769696D01*
X255290206Y-124671856D01*
X255290205Y-124671855D01*
X255290202Y-124671853D01*
X255170379Y-124602674D01*
X255170378Y-124602673D01*
X255170377Y-124602673D01*
X255036724Y-124566861D01*
X254898358Y-124566861D01*
X254764705Y-124602673D01*
X254764704Y-124602673D01*
X254689538Y-124646070D01*
X254621638Y-124662541D01*
X254585129Y-124655204D01*
X254001453Y-124442763D01*
X254172463Y-123972917D01*
X254830248Y-124212331D01*
X254830248Y-124212330D01*
X254966540Y-123837871D01*
X254996507Y-123643184D01*
X254996507Y-123643181D01*
X254987914Y-123446386D01*
X254941094Y-123255050D01*
X254941091Y-123255042D01*
X254857845Y-123076520D01*
X254741371Y-122917669D01*
X254741365Y-122917663D01*
X254596142Y-122784590D01*
X254596132Y-122784583D01*
X254559797Y-122762535D01*
X254285197Y-123516989D01*
X254281746Y-123497413D01*
X254248363Y-123425823D01*
X254197588Y-123365312D01*
X254132882Y-123320005D01*
X254058654Y-123292988D01*
X253979963Y-123286103D01*
X253902171Y-123299820D01*
X253830581Y-123333203D01*
X253815349Y-123345983D01*
X254089951Y-122591525D01*
X254047939Y-122585058D01*
X253851144Y-122593651D01*
X253659808Y-122640471D01*
X253659800Y-122640474D01*
X253481278Y-122723720D01*
X253322427Y-122840194D01*
X253322421Y-122840200D01*
X253189348Y-122985423D01*
X253189338Y-122985437D01*
X253087157Y-123153828D01*
X253087156Y-123153829D01*
X252950863Y-123528290D01*
X253608648Y-123767704D01*
X253437638Y-124237551D01*
X252779852Y-123998138D01*
X252643561Y-124372596D01*
X252613594Y-124567286D01*
X251884921Y-124567286D01*
X252190992Y-122876823D01*
X252191493Y-122874221D01*
X252198415Y-122840200D01*
X252418656Y-121757617D01*
X252419186Y-121755145D01*
X252452749Y-121605952D01*
X252669542Y-120642265D01*
X252669958Y-120640483D01*
X253193342Y-118477531D01*
X253194358Y-118474262D01*
X253195767Y-118468357D01*
X253195769Y-118468355D01*
X253210902Y-118404964D01*
X253226208Y-118341712D01*
X253226207Y-118341707D01*
X253227646Y-118335764D01*
X253228224Y-118332402D01*
X253729177Y-116234014D01*
X253733079Y-116220919D01*
X253734618Y-116216628D01*
X253734625Y-116216617D01*
X253747255Y-116158396D01*
X253747769Y-116156136D01*
X253761592Y-116098241D01*
X253761591Y-116098233D01*
X253762065Y-116093675D01*
X253764218Y-116080200D01*
X253977430Y-115097387D01*
X253980946Y-115084555D01*
X253983008Y-115078351D01*
X253983011Y-115078347D01*
X253994077Y-115020815D01*
X253994635Y-115018085D01*
X254007060Y-114960816D01*
X254007059Y-114960806D01*
X254007601Y-114954286D01*
X254009407Y-114941122D01*
X254199650Y-113952119D01*
X254203155Y-113938264D01*
X254203539Y-113937039D01*
X254203542Y-113937035D01*
X254214129Y-113876929D01*
X254214467Y-113875094D01*
X254225998Y-113815153D01*
X254225998Y-113815151D01*
X254226075Y-113813858D01*
X254227738Y-113799671D01*
X254262863Y-113600273D01*
X254281875Y-113492336D01*
X254282200Y-113490574D01*
X254284593Y-113478064D01*
X254353568Y-113117449D01*
X254353885Y-113115858D01*
X254510040Y-112361998D01*
X254510190Y-112361289D01*
X254540512Y-112219766D01*
X254692367Y-111510999D01*
X255169341Y-111510999D01*
X255169341Y-111511000D01*
X255189936Y-111746403D01*
X255189938Y-111746413D01*
X255251094Y-111974655D01*
X255251096Y-111974659D01*
X255251097Y-111974663D01*
X255255000Y-111983032D01*
X255350965Y-112188830D01*
X255350967Y-112188834D01*
X255459281Y-112343521D01*
X255486501Y-112382396D01*
X255486506Y-112382402D01*
X255653597Y-112549493D01*
X255653603Y-112549498D01*
X255839158Y-112679425D01*
X255882783Y-112734002D01*
X255889977Y-112803500D01*
X255858454Y-112865855D01*
X255839158Y-112882575D01*
X255653597Y-113012505D01*
X255486505Y-113179597D01*
X255350965Y-113373169D01*
X255350964Y-113373171D01*
X255251098Y-113587335D01*
X255251094Y-113587344D01*
X255189938Y-113815586D01*
X255189936Y-113815596D01*
X255169341Y-114050999D01*
X255169341Y-114051000D01*
X255189936Y-114286403D01*
X255189938Y-114286413D01*
X255251094Y-114514655D01*
X255251096Y-114514659D01*
X255251097Y-114514663D01*
X255320461Y-114663414D01*
X255350965Y-114728830D01*
X255350967Y-114728834D01*
X255413917Y-114818735D01*
X255486505Y-114922401D01*
X255653599Y-115089495D01*
X255730135Y-115143086D01*
X255847165Y-115225032D01*
X255847167Y-115225033D01*
X255847170Y-115225035D01*
X256061337Y-115324903D01*
X256289592Y-115386063D01*
X256460319Y-115401000D01*
X256524999Y-115406659D01*
X256525000Y-115406659D01*
X256525001Y-115406659D01*
X256589681Y-115401000D01*
X256760408Y-115386063D01*
X256988663Y-115324903D01*
X257202830Y-115225035D01*
X257396401Y-115089495D01*
X257563495Y-114922401D01*
X257693425Y-114736842D01*
X257748002Y-114693217D01*
X257817500Y-114686023D01*
X257879855Y-114717546D01*
X257896575Y-114736842D01*
X258026500Y-114922395D01*
X258026505Y-114922401D01*
X258193599Y-115089495D01*
X258270135Y-115143086D01*
X258387165Y-115225032D01*
X258387167Y-115225033D01*
X258387170Y-115225035D01*
X258601337Y-115324903D01*
X258829592Y-115386063D01*
X259000319Y-115401000D01*
X259064999Y-115406659D01*
X259065000Y-115406659D01*
X259065001Y-115406659D01*
X259129681Y-115401000D01*
X259300408Y-115386063D01*
X259528663Y-115324903D01*
X259742830Y-115225035D01*
X259936401Y-115089495D01*
X260058717Y-114967178D01*
X260120036Y-114933696D01*
X260189728Y-114938680D01*
X260245662Y-114980551D01*
X260262577Y-115011528D01*
X260311646Y-115143088D01*
X260311649Y-115143093D01*
X260397809Y-115258187D01*
X260397812Y-115258190D01*
X260512906Y-115344350D01*
X260512913Y-115344354D01*
X260647620Y-115394596D01*
X260647627Y-115394598D01*
X260707155Y-115400999D01*
X260707172Y-115401000D01*
X261355000Y-115401000D01*
X261355000Y-114484012D01*
X261412007Y-114516925D01*
X261539174Y-114551000D01*
X261670826Y-114551000D01*
X261797993Y-114516925D01*
X261855000Y-114484012D01*
X261855000Y-115401000D01*
X262502828Y-115401000D01*
X262502844Y-115400999D01*
X262562372Y-115394598D01*
X262562379Y-115394596D01*
X262697086Y-115344354D01*
X262697093Y-115344350D01*
X262812187Y-115258190D01*
X262812190Y-115258187D01*
X262898350Y-115143093D01*
X262898354Y-115143086D01*
X262948596Y-115008379D01*
X262948598Y-115008372D01*
X262954999Y-114948844D01*
X262955000Y-114948827D01*
X262955000Y-114301000D01*
X262038012Y-114301000D01*
X262070925Y-114243993D01*
X262105000Y-114116826D01*
X262105000Y-113985174D01*
X262070925Y-113858007D01*
X262038012Y-113801000D01*
X262955000Y-113801000D01*
X262955000Y-113153172D01*
X262954999Y-113153155D01*
X262948598Y-113093627D01*
X262948596Y-113093620D01*
X262898354Y-112958913D01*
X262898350Y-112958906D01*
X262812190Y-112843812D01*
X262812187Y-112843809D01*
X262697093Y-112757649D01*
X262697088Y-112757646D01*
X262565528Y-112708577D01*
X262509595Y-112666705D01*
X262485178Y-112601241D01*
X262500030Y-112532968D01*
X262521175Y-112504720D01*
X262643495Y-112382401D01*
X262779035Y-112188830D01*
X262878903Y-111974663D01*
X262940063Y-111746408D01*
X262960659Y-111511000D01*
X262940063Y-111275592D01*
X262878903Y-111047337D01*
X262779035Y-110833171D01*
X262773061Y-110824638D01*
X262643494Y-110639597D01*
X262476402Y-110472506D01*
X262476395Y-110472501D01*
X262462673Y-110462893D01*
X262399985Y-110418998D01*
X262282834Y-110336967D01*
X262282830Y-110336965D01*
X262236815Y-110315508D01*
X262068663Y-110237097D01*
X262068659Y-110237096D01*
X262068655Y-110237094D01*
X261840413Y-110175938D01*
X261840403Y-110175936D01*
X261605001Y-110155341D01*
X261604999Y-110155341D01*
X261369596Y-110175936D01*
X261369586Y-110175938D01*
X261141344Y-110237094D01*
X261141335Y-110237098D01*
X260927171Y-110336964D01*
X260927169Y-110336965D01*
X260733597Y-110472505D01*
X260727850Y-110478253D01*
X260666527Y-110511738D01*
X260596835Y-110506754D01*
X260552488Y-110478253D01*
X260107886Y-110033651D01*
X260074401Y-109972328D01*
X260079385Y-109902636D01*
X260113368Y-109855770D01*
X260112338Y-109854740D01*
X260178464Y-109788614D01*
X260244816Y-109722262D01*
X260340789Y-109569522D01*
X260400368Y-109399255D01*
X260401469Y-109389482D01*
X260420565Y-109220003D01*
X260420565Y-109219996D01*
X260400369Y-109040750D01*
X260400368Y-109040745D01*
X260340788Y-108870476D01*
X260258477Y-108739480D01*
X260244816Y-108717738D01*
X260117262Y-108590184D01*
X259964523Y-108494211D01*
X259794254Y-108434631D01*
X259794249Y-108434630D01*
X259615004Y-108414435D01*
X259614996Y-108414435D01*
X259435746Y-108434631D01*
X259435745Y-108434631D01*
X259356764Y-108462267D01*
X259341338Y-108466569D01*
X259316314Y-108471833D01*
X258932503Y-108611978D01*
X258889972Y-108619500D01*
X257261669Y-108619500D01*
X257261653Y-108619499D01*
X257254057Y-108619499D01*
X257095943Y-108619499D01*
X257016010Y-108640917D01*
X256943216Y-108660422D01*
X256911886Y-108678511D01*
X256911885Y-108678510D01*
X256806287Y-108739477D01*
X256806282Y-108739481D01*
X256156286Y-109389478D01*
X256156282Y-109389482D01*
X256133833Y-109411929D01*
X256130201Y-109415417D01*
X256126611Y-109418725D01*
X256125477Y-109419998D01*
X256120615Y-109425146D01*
X256044479Y-109501283D01*
X255999586Y-109579042D01*
X255999586Y-109579043D01*
X255987081Y-109600702D01*
X255965422Y-109638215D01*
X255965422Y-109638217D01*
X255946736Y-109707948D01*
X255936544Y-109733884D01*
X255368635Y-110806278D01*
X255360630Y-110819367D01*
X255350965Y-110833169D01*
X255327021Y-110884517D01*
X255324224Y-110890139D01*
X255298973Y-110937823D01*
X255288401Y-110958967D01*
X255287934Y-110959958D01*
X255272267Y-111001154D01*
X255268750Y-111009476D01*
X255251097Y-111047335D01*
X255189938Y-111275586D01*
X255189936Y-111275596D01*
X255169341Y-111510999D01*
X254692367Y-111510999D01*
X254823816Y-110897477D01*
X254827076Y-110885318D01*
X254827335Y-110884517D01*
X254836326Y-110856713D01*
X254842291Y-110843613D01*
X254841805Y-110843402D01*
X254845049Y-110835947D01*
X254845048Y-110835947D01*
X254845051Y-110835944D01*
X254853009Y-110808221D01*
X254855332Y-110800982D01*
X254859197Y-110790094D01*
X254861484Y-110784962D01*
X254861474Y-110784958D01*
X254864386Y-110777369D01*
X254870166Y-110753277D01*
X254872762Y-110744045D01*
X254878663Y-110725799D01*
X254878663Y-110725796D01*
X254880947Y-110718734D01*
X254881165Y-110717868D01*
X254883023Y-110712079D01*
X254883026Y-110712073D01*
X254886074Y-110695299D01*
X254888890Y-110683251D01*
X254892318Y-110671316D01*
X254892318Y-110671307D01*
X254892721Y-110668624D01*
X254895558Y-110654972D01*
X254897225Y-110648729D01*
X254897229Y-110648722D01*
X254898761Y-110637022D01*
X254901129Y-110624214D01*
X254904434Y-110610443D01*
X254904433Y-110610433D01*
X254905039Y-110604631D01*
X254905112Y-110602421D01*
X254905886Y-110594116D01*
X254909087Y-110578617D01*
X254908874Y-110578578D01*
X254910354Y-110570585D01*
X254910356Y-110570582D01*
X254910597Y-110565985D01*
X254912425Y-110550299D01*
X254912506Y-110549852D01*
X254913746Y-110543030D01*
X254913745Y-110543022D01*
X254913894Y-110540000D01*
X254914946Y-110528843D01*
X254914967Y-110528685D01*
X254914970Y-110528676D01*
X254915043Y-110519840D01*
X254916090Y-110504764D01*
X254917144Y-110496719D01*
X254917472Y-110489516D01*
X254917903Y-110484828D01*
X254917685Y-110479287D01*
X254918125Y-110462893D01*
X254918444Y-110459472D01*
X254918445Y-110459465D01*
X254918443Y-110459455D01*
X254918375Y-110457653D01*
X254919074Y-110447372D01*
X254918485Y-110447349D01*
X254918815Y-110439229D01*
X254918816Y-110439224D01*
X254918614Y-110437000D01*
X254918280Y-110419327D01*
X254918297Y-110419012D01*
X254918295Y-110419005D01*
X254918296Y-110418998D01*
X254917659Y-110410901D01*
X254919178Y-110410781D01*
X254918684Y-110400031D01*
X254917495Y-110400048D01*
X254917365Y-110390399D01*
X254916712Y-110380815D01*
X254915237Y-110368846D01*
X254915982Y-110368754D01*
X254914278Y-110351179D01*
X254913851Y-110351210D01*
X254913012Y-110339407D01*
X254911802Y-110332362D01*
X254906929Y-110307759D01*
X254906673Y-110304925D01*
X254906170Y-110293769D01*
X254906170Y-110293144D01*
X254905995Y-110291821D01*
X254905147Y-110288047D01*
X254905146Y-110288036D01*
X254905141Y-110288024D01*
X254904926Y-110287064D01*
X254902425Y-110279170D01*
X254901181Y-110274530D01*
X254898241Y-110260255D01*
X254896661Y-110249385D01*
X254896072Y-110243714D01*
X254895804Y-110242348D01*
X254895804Y-110242344D01*
X254890200Y-110225678D01*
X254886257Y-110211038D01*
X254882813Y-110194200D01*
X254882812Y-110194198D01*
X254882529Y-110192813D01*
X254882500Y-110192638D01*
X254882262Y-110191855D01*
X254875884Y-110176287D01*
X254870854Y-110161375D01*
X254866612Y-110145547D01*
X254864577Y-110140108D01*
X254864537Y-110140026D01*
X254858017Y-110126680D01*
X254851901Y-110111774D01*
X254847236Y-110097900D01*
X254847181Y-110097787D01*
X254843845Y-110090369D01*
X254843498Y-110089524D01*
X254836530Y-110077374D01*
X254829350Y-110062687D01*
X254824079Y-110049818D01*
X254823268Y-110048401D01*
X254819565Y-110041422D01*
X254818914Y-110040095D01*
X254818912Y-110040089D01*
X254811424Y-110028831D01*
X254803266Y-110014607D01*
X254797330Y-110002455D01*
X254797325Y-110002450D01*
X254795871Y-110000255D01*
X254791707Y-109993515D01*
X254790945Y-109992190D01*
X254790945Y-109992189D01*
X254782826Y-109981563D01*
X254773792Y-109967971D01*
X254771762Y-109964431D01*
X254767079Y-109956265D01*
X254767077Y-109956263D01*
X254767076Y-109956261D01*
X254765137Y-109953719D01*
X254760391Y-109947050D01*
X254759856Y-109946244D01*
X254750919Y-109935984D01*
X254741171Y-109923208D01*
X254733497Y-109911670D01*
X254731441Y-109909316D01*
X254725970Y-109902590D01*
X254725882Y-109902474D01*
X254715952Y-109892415D01*
X254705665Y-109880585D01*
X254696865Y-109869068D01*
X254696864Y-109869067D01*
X254696861Y-109869063D01*
X254696856Y-109869059D01*
X254695073Y-109867269D01*
X254689613Y-109861357D01*
X254678245Y-109851144D01*
X254667615Y-109840351D01*
X254661531Y-109833368D01*
X254657520Y-109828763D01*
X254657514Y-109828759D01*
X254656297Y-109827684D01*
X254651303Y-109822896D01*
X254638118Y-109812352D01*
X254627312Y-109802618D01*
X254615761Y-109790915D01*
X254615432Y-109790660D01*
X254611185Y-109787038D01*
X254605428Y-109782927D01*
X254595827Y-109776072D01*
X254585034Y-109767415D01*
X254571899Y-109755616D01*
X254571896Y-109755613D01*
X254570327Y-109754538D01*
X254562551Y-109750035D01*
X254554514Y-109744776D01*
X254544965Y-109737858D01*
X254526266Y-109722905D01*
X254526267Y-109722905D01*
X254526265Y-109722904D01*
X254526262Y-109722902D01*
X254526261Y-109722902D01*
X254525421Y-109722534D01*
X254503112Y-109709866D01*
X254479072Y-109692700D01*
X254479068Y-109692698D01*
X254471901Y-109688883D01*
X254472002Y-109688692D01*
X254457899Y-109681546D01*
X254441102Y-109670554D01*
X254437300Y-109667964D01*
X254374266Y-109623290D01*
X254370894Y-109620813D01*
X254308775Y-109573528D01*
X254305800Y-109571190D01*
X254244180Y-109521227D01*
X254241643Y-109519114D01*
X254180130Y-109466417D01*
X254178058Y-109464600D01*
X254117945Y-109410648D01*
X254115574Y-109408462D01*
X253987672Y-109287440D01*
X253985675Y-109285508D01*
X253818175Y-109119748D01*
X253792661Y-109083250D01*
X253773193Y-109040750D01*
X252552200Y-106375200D01*
X252552198Y-106375197D01*
X252552196Y-106375192D01*
X251414112Y-104445399D01*
X250801096Y-103405937D01*
X250798223Y-103400789D01*
X250543644Y-102917898D01*
X249532216Y-100999395D01*
X266042500Y-100999395D01*
X266042500Y-101235404D01*
X266042501Y-101235420D01*
X266073306Y-101469410D01*
X266134394Y-101697393D01*
X266224714Y-101915445D01*
X266224719Y-101915456D01*
X266295156Y-102037454D01*
X266342727Y-102119850D01*
X266342729Y-102119853D01*
X266342730Y-102119854D01*
X266486406Y-102307097D01*
X266486412Y-102307104D01*
X266653295Y-102473987D01*
X266653302Y-102473993D01*
X266763306Y-102558401D01*
X266840550Y-102617673D01*
X266971918Y-102693518D01*
X267044943Y-102735680D01*
X267044948Y-102735682D01*
X267044951Y-102735684D01*
X267263007Y-102826006D01*
X267490986Y-102887093D01*
X267724989Y-102917900D01*
X267724996Y-102917900D01*
X267961004Y-102917900D01*
X267961011Y-102917900D01*
X268195014Y-102887093D01*
X268422993Y-102826006D01*
X268641049Y-102735684D01*
X268845450Y-102617673D01*
X269032699Y-102473992D01*
X269199592Y-102307099D01*
X269343273Y-102119850D01*
X269461284Y-101915449D01*
X269551606Y-101697393D01*
X269612693Y-101469414D01*
X269643500Y-101235411D01*
X269643500Y-100999389D01*
X269612693Y-100765386D01*
X269551606Y-100537407D01*
X269461284Y-100319351D01*
X269461282Y-100319348D01*
X269461280Y-100319343D01*
X269419118Y-100246318D01*
X269343273Y-100114950D01*
X269220634Y-99955123D01*
X269199593Y-99927702D01*
X269199587Y-99927695D01*
X269032704Y-99760812D01*
X269032697Y-99760806D01*
X268845454Y-99617130D01*
X268845453Y-99617129D01*
X268845450Y-99617127D01*
X268763957Y-99570077D01*
X268641056Y-99499119D01*
X268641045Y-99499114D01*
X268422993Y-99408794D01*
X268195010Y-99347706D01*
X267961020Y-99316901D01*
X267961017Y-99316900D01*
X267961011Y-99316900D01*
X267724989Y-99316900D01*
X267724983Y-99316900D01*
X267724979Y-99316901D01*
X267490989Y-99347706D01*
X267263006Y-99408794D01*
X267044954Y-99499114D01*
X267044943Y-99499119D01*
X266840545Y-99617130D01*
X266653302Y-99760806D01*
X266653295Y-99760812D01*
X266486412Y-99927695D01*
X266486406Y-99927702D01*
X266342730Y-100114945D01*
X266224719Y-100319343D01*
X266224714Y-100319354D01*
X266134394Y-100537406D01*
X266073306Y-100765389D01*
X266042501Y-100999379D01*
X266042500Y-100999395D01*
X249532216Y-100999395D01*
X247599200Y-97332800D01*
X247599195Y-97332791D01*
X244043212Y-91135220D01*
X240411007Y-84988412D01*
X240411000Y-84988400D01*
X237921800Y-81737200D01*
X233578400Y-76809600D01*
X233259042Y-76509795D01*
X231089206Y-74472806D01*
X231089207Y-74472806D01*
X231089203Y-74472802D01*
X231089200Y-74472800D01*
X229650365Y-73329800D01*
X228371401Y-72313800D01*
X228371388Y-72313791D01*
X224784379Y-69844999D01*
X230419341Y-69844999D01*
X230419341Y-69845000D01*
X230439936Y-70080403D01*
X230439938Y-70080413D01*
X230501094Y-70308655D01*
X230501096Y-70308659D01*
X230501097Y-70308663D01*
X230546779Y-70406628D01*
X230600965Y-70522830D01*
X230600967Y-70522834D01*
X230709281Y-70677521D01*
X230736505Y-70716401D01*
X230903599Y-70883495D01*
X230980750Y-70937517D01*
X231097165Y-71019032D01*
X231097167Y-71019033D01*
X231097170Y-71019035D01*
X231311337Y-71118903D01*
X231539592Y-71180063D01*
X231727918Y-71196539D01*
X231774999Y-71200659D01*
X231775000Y-71200659D01*
X231775001Y-71200659D01*
X231814234Y-71197226D01*
X232010408Y-71180063D01*
X232238663Y-71118903D01*
X232452830Y-71019035D01*
X232610133Y-70908890D01*
X235322435Y-70908890D01*
X235322435Y-70908897D01*
X235342630Y-71088143D01*
X235342631Y-71088148D01*
X235402211Y-71258417D01*
X235471062Y-71367992D01*
X235498184Y-71411156D01*
X235625738Y-71538710D01*
X235778478Y-71634683D01*
X235948745Y-71694262D01*
X235948750Y-71694263D01*
X236127996Y-71714459D01*
X236128000Y-71714459D01*
X236128004Y-71714459D01*
X236307249Y-71694263D01*
X236307252Y-71694262D01*
X236307255Y-71694262D01*
X236477522Y-71634683D01*
X236630262Y-71538710D01*
X236757816Y-71411156D01*
X236782988Y-71371094D01*
X236787071Y-71365003D01*
X237092422Y-70937511D01*
X237105634Y-70921915D01*
X241244113Y-66783437D01*
X241248471Y-66776916D01*
X241320775Y-66668705D01*
X241358817Y-66576863D01*
X241373580Y-66541223D01*
X241385669Y-66480446D01*
X241393666Y-66440243D01*
X241400500Y-66405889D01*
X241400500Y-66283214D01*
X241405619Y-66247955D01*
X241458806Y-66068628D01*
X241465789Y-66042550D01*
X241466713Y-66037379D01*
X241467682Y-66037552D01*
X241471743Y-66018190D01*
X241474188Y-66011204D01*
X241485368Y-65979255D01*
X241496635Y-65879255D01*
X241505565Y-65800003D01*
X241505565Y-65799996D01*
X241485369Y-65620750D01*
X241485368Y-65620745D01*
X241425788Y-65450476D01*
X241368462Y-65359243D01*
X241329816Y-65297738D01*
X241202262Y-65170184D01*
X241174882Y-65152980D01*
X241049523Y-65074211D01*
X240879254Y-65014631D01*
X240879249Y-65014630D01*
X240700004Y-64994435D01*
X240699996Y-64994435D01*
X240520750Y-65014630D01*
X240520745Y-65014631D01*
X240350476Y-65074211D01*
X240197737Y-65170184D01*
X240070184Y-65297737D01*
X239974211Y-65450476D01*
X239914631Y-65620745D01*
X239914630Y-65620750D01*
X239894435Y-65799996D01*
X239894435Y-65800003D01*
X239914630Y-65979246D01*
X239914631Y-65979252D01*
X239928390Y-66018572D01*
X239931951Y-66088351D01*
X239899029Y-66147207D01*
X236114992Y-69931243D01*
X236099385Y-69944465D01*
X235671874Y-70249831D01*
X235665773Y-70253921D01*
X235625740Y-70279075D01*
X235625732Y-70279082D01*
X235612452Y-70292361D01*
X235602891Y-70300801D01*
X235602934Y-70300851D01*
X235599578Y-70303683D01*
X235599569Y-70303691D01*
X235527938Y-70376729D01*
X235527922Y-70376714D01*
X235526620Y-70378193D01*
X235498187Y-70406628D01*
X235498184Y-70406632D01*
X235402211Y-70559370D01*
X235342631Y-70729639D01*
X235342630Y-70729644D01*
X235322435Y-70908890D01*
X232610133Y-70908890D01*
X232646401Y-70883495D01*
X232813495Y-70716401D01*
X232949035Y-70522830D01*
X233048903Y-70308663D01*
X233110063Y-70080408D01*
X233130659Y-69845000D01*
X233110063Y-69609592D01*
X233048903Y-69381337D01*
X232949035Y-69167171D01*
X232889581Y-69082262D01*
X232813496Y-68973600D01*
X232769418Y-68929522D01*
X232691567Y-68851671D01*
X232658084Y-68790351D01*
X232663068Y-68720659D01*
X232704939Y-68664725D01*
X232735915Y-68647810D01*
X232867331Y-68598796D01*
X232892445Y-68579996D01*
X234906435Y-68579996D01*
X234906435Y-68580003D01*
X234926630Y-68759249D01*
X234926631Y-68759254D01*
X234986211Y-68929523D01*
X235013906Y-68973599D01*
X235082184Y-69082262D01*
X235209738Y-69209816D01*
X235362478Y-69305789D01*
X235532745Y-69365368D01*
X235532750Y-69365369D01*
X235711996Y-69385565D01*
X235712000Y-69385565D01*
X235712004Y-69385565D01*
X235891249Y-69365369D01*
X235891252Y-69365368D01*
X235891255Y-69365368D01*
X236061522Y-69305789D01*
X236214262Y-69209816D01*
X236341816Y-69082262D01*
X236437789Y-68929522D01*
X236497368Y-68759255D01*
X236509059Y-68655500D01*
X236517565Y-68580002D01*
X236517565Y-68579998D01*
X236508544Y-68499945D01*
X236507823Y-68489890D01*
X236507484Y-68478916D01*
X236504491Y-68461866D01*
X236503405Y-68454333D01*
X236497368Y-68400745D01*
X236493476Y-68389624D01*
X236488386Y-68370115D01*
X236483219Y-68340679D01*
X236491017Y-68271249D01*
X236517668Y-68231565D01*
X238111950Y-66637283D01*
X238147337Y-66612532D01*
X238517830Y-66440236D01*
X238530117Y-66433878D01*
X238546135Y-66426973D01*
X238549522Y-66425789D01*
X238702262Y-66329816D01*
X238829816Y-66202262D01*
X238925789Y-66049522D01*
X238985368Y-65879255D01*
X238987943Y-65856403D01*
X239005565Y-65700003D01*
X239005565Y-65699996D01*
X238985369Y-65520750D01*
X238985368Y-65520745D01*
X238925789Y-65350478D01*
X238919355Y-65340239D01*
X238842001Y-65217131D01*
X238829816Y-65197738D01*
X238702262Y-65070184D01*
X238680616Y-65056583D01*
X238549523Y-64974211D01*
X238379254Y-64914631D01*
X238379249Y-64914630D01*
X238200004Y-64894435D01*
X238199996Y-64894435D01*
X238020750Y-64914630D01*
X238020745Y-64914631D01*
X237850476Y-64974211D01*
X237697737Y-65070184D01*
X237570184Y-65197737D01*
X237546308Y-65235736D01*
X237474211Y-65350478D01*
X237474210Y-65350479D01*
X237474209Y-65350482D01*
X237471972Y-65356874D01*
X237461539Y-65378080D01*
X237461916Y-65378290D01*
X237459766Y-65382163D01*
X237287463Y-65752663D01*
X237262708Y-65788055D01*
X235343286Y-67707478D01*
X235231481Y-67819282D01*
X235231479Y-67819285D01*
X235181361Y-67906094D01*
X235181359Y-67906096D01*
X235152425Y-67956209D01*
X235152422Y-67956216D01*
X235145724Y-67981213D01*
X235126319Y-68021932D01*
X235101238Y-68056504D01*
X235088554Y-68071366D01*
X235082187Y-68077732D01*
X234986211Y-68230475D01*
X234926631Y-68400745D01*
X234926630Y-68400750D01*
X234906435Y-68579996D01*
X232892445Y-68579996D01*
X232982546Y-68512546D01*
X233068796Y-68397331D01*
X233119091Y-68262483D01*
X233119520Y-68258492D01*
X233120716Y-68255602D01*
X233120874Y-68254938D01*
X233120981Y-68254963D01*
X233146256Y-68193943D01*
X233203648Y-68154094D01*
X233273473Y-68151599D01*
X233308779Y-68166754D01*
X233352051Y-68193943D01*
X233450475Y-68255788D01*
X233620745Y-68315368D01*
X233620750Y-68315369D01*
X233799996Y-68335565D01*
X233800000Y-68335565D01*
X233800004Y-68335565D01*
X233979249Y-68315369D01*
X233979252Y-68315368D01*
X233979255Y-68315368D01*
X234149522Y-68255789D01*
X234302262Y-68159816D01*
X234429816Y-68032262D01*
X234495682Y-67927434D01*
X234502336Y-67917876D01*
X234504272Y-67915353D01*
X234504287Y-67915338D01*
X234748157Y-67546054D01*
X234763940Y-67526715D01*
X235918717Y-66371940D01*
X235995378Y-66257208D01*
X236048183Y-66129725D01*
X236061827Y-66061134D01*
X236075103Y-65994393D01*
X236075103Y-65204791D01*
X236076790Y-65184406D01*
X236098094Y-65056583D01*
X236152927Y-64727579D01*
X236158200Y-64707008D01*
X236159971Y-64701947D01*
X236165390Y-64653843D01*
X236166285Y-64647428D01*
X236170962Y-64619372D01*
X236176049Y-64578780D01*
X236176208Y-64576896D01*
X236176110Y-64566931D01*
X236176883Y-64551838D01*
X236180168Y-64522692D01*
X236173824Y-64466385D01*
X236159972Y-64343442D01*
X236159971Y-64343437D01*
X236136723Y-64276997D01*
X236100392Y-64173170D01*
X236004419Y-64020430D01*
X235876865Y-63892876D01*
X235819236Y-63856665D01*
X235724126Y-63796903D01*
X235553857Y-63737323D01*
X235553852Y-63737322D01*
X235374607Y-63717127D01*
X235374599Y-63717127D01*
X235195353Y-63737322D01*
X235195348Y-63737323D01*
X235025079Y-63796903D01*
X234872340Y-63892876D01*
X234744787Y-64020429D01*
X234648814Y-64173168D01*
X234589234Y-64343437D01*
X234589233Y-64343442D01*
X234569038Y-64522688D01*
X234569038Y-64522695D01*
X234577200Y-64595139D01*
X234577949Y-64606246D01*
X234578242Y-64619365D01*
X234578243Y-64619375D01*
X234582914Y-64647397D01*
X234583821Y-64653899D01*
X234589234Y-64701948D01*
X234591005Y-64707008D01*
X234596276Y-64727574D01*
X234672416Y-65184408D01*
X234674103Y-65204794D01*
X234674103Y-65583877D01*
X234654418Y-65650916D01*
X234637784Y-65671558D01*
X233766357Y-66542984D01*
X233752485Y-66554299D01*
X233752736Y-66554626D01*
X233749226Y-66557315D01*
X233749224Y-66557317D01*
X233603886Y-66668705D01*
X233325169Y-66882315D01*
X233315890Y-66888777D01*
X233315649Y-66888929D01*
X233248444Y-66908043D01*
X233181575Y-66887788D01*
X233136271Y-66834597D01*
X233125499Y-66784047D01*
X233125499Y-66407129D01*
X233125498Y-66407123D01*
X233125497Y-66407116D01*
X233119091Y-66347517D01*
X233088394Y-66265215D01*
X233068797Y-66212671D01*
X233068793Y-66212664D01*
X232982547Y-66097455D01*
X232982544Y-66097452D01*
X232867335Y-66011206D01*
X232867328Y-66011202D01*
X232732482Y-65960908D01*
X232732483Y-65960908D01*
X232672883Y-65954501D01*
X232672881Y-65954500D01*
X232672873Y-65954500D01*
X232672864Y-65954500D01*
X230877129Y-65954500D01*
X230877123Y-65954501D01*
X230817516Y-65960908D01*
X230682671Y-66011202D01*
X230682664Y-66011206D01*
X230567455Y-66097452D01*
X230567452Y-66097455D01*
X230481206Y-66212664D01*
X230481202Y-66212671D01*
X230430908Y-66347517D01*
X230424633Y-66405887D01*
X230424501Y-66407123D01*
X230424500Y-66407135D01*
X230424500Y-68202870D01*
X230424501Y-68202876D01*
X230430908Y-68262483D01*
X230481202Y-68397328D01*
X230481206Y-68397335D01*
X230567452Y-68512544D01*
X230567455Y-68512547D01*
X230682664Y-68598793D01*
X230682671Y-68598797D01*
X230814081Y-68647810D01*
X230870015Y-68689681D01*
X230894432Y-68755145D01*
X230879580Y-68823418D01*
X230858430Y-68851673D01*
X230736503Y-68973600D01*
X230600965Y-69167169D01*
X230600964Y-69167171D01*
X230501098Y-69381335D01*
X230501094Y-69381344D01*
X230439938Y-69609586D01*
X230439936Y-69609596D01*
X230419341Y-69844999D01*
X224784379Y-69844999D01*
X222097603Y-67995801D01*
X218421626Y-65981567D01*
X218372293Y-65932089D01*
X218371800Y-65931175D01*
X218331922Y-65856403D01*
X217779600Y-64820800D01*
X216916280Y-63388951D01*
X216911479Y-63380212D01*
X216882366Y-63321745D01*
X216853480Y-63283495D01*
X216846245Y-63272798D01*
X216738200Y-63093600D01*
X216738198Y-63093599D01*
X216738197Y-63093598D01*
X216718196Y-63089962D01*
X216655760Y-63058602D01*
X216652699Y-63055644D01*
X216649506Y-63052451D01*
X216649498Y-63052445D01*
X216633464Y-63040795D01*
X216622823Y-63032125D01*
X216596302Y-63007948D01*
X216596303Y-63007948D01*
X216596298Y-63007944D01*
X216596296Y-63007943D01*
X216545724Y-62976630D01*
X216538125Y-62971528D01*
X216502994Y-62946004D01*
X216469555Y-62928965D01*
X216460577Y-62923910D01*
X216415022Y-62895703D01*
X216415016Y-62895700D01*
X216376057Y-62880608D01*
X216364558Y-62875467D01*
X216341639Y-62863789D01*
X216341636Y-62863788D01*
X216341634Y-62863787D01*
X216289119Y-62846723D01*
X216282646Y-62844420D01*
X216216203Y-62818680D01*
X216216194Y-62818678D01*
X216192546Y-62814257D01*
X216177025Y-62810303D01*
X216169416Y-62807831D01*
X216169413Y-62807830D01*
X216169409Y-62807829D01*
X216154590Y-62805482D01*
X216097447Y-62796431D01*
X216094062Y-62795847D01*
X216023967Y-62782744D01*
X216006610Y-62779500D01*
X215793390Y-62779500D01*
X215705935Y-62795847D01*
X215702551Y-62796431D01*
X215630590Y-62807829D01*
X215630587Y-62807829D01*
X215622975Y-62810303D01*
X215607449Y-62814258D01*
X215583806Y-62818677D01*
X215583795Y-62818680D01*
X215517358Y-62844418D01*
X215510887Y-62846721D01*
X215458365Y-62863787D01*
X215458356Y-62863791D01*
X215435436Y-62875469D01*
X215423942Y-62880607D01*
X215384984Y-62895700D01*
X215384977Y-62895704D01*
X215347499Y-62918908D01*
X215299761Y-62936233D01*
X212806884Y-63292359D01*
X212746345Y-63285909D01*
X209753225Y-62179208D01*
X209753186Y-62179195D01*
X201549010Y-59715402D01*
X201548997Y-59715399D01*
X196329232Y-58843332D01*
X195303699Y-58671996D01*
X212294435Y-58671996D01*
X212294435Y-58672003D01*
X212314630Y-58851249D01*
X212314631Y-58851254D01*
X212374211Y-59021523D01*
X212391805Y-59049523D01*
X212470184Y-59174262D01*
X212597738Y-59301816D01*
X212750478Y-59397789D01*
X212920745Y-59457368D01*
X212920750Y-59457369D01*
X213099996Y-59477565D01*
X213100000Y-59477565D01*
X213100004Y-59477565D01*
X213279249Y-59457369D01*
X213279252Y-59457368D01*
X213279255Y-59457368D01*
X213449522Y-59397789D01*
X213602262Y-59301816D01*
X213729816Y-59174262D01*
X213754983Y-59134208D01*
X213759066Y-59128117D01*
X213884560Y-58952426D01*
X213939544Y-58909316D01*
X213985463Y-58900500D01*
X216017903Y-58900500D01*
X216038288Y-58902187D01*
X216266794Y-58940271D01*
X216495112Y-58978324D01*
X216515683Y-58983596D01*
X216520745Y-58985368D01*
X216530232Y-58986436D01*
X216568820Y-58990785D01*
X216575325Y-58991693D01*
X216578248Y-58992180D01*
X216603318Y-58996359D01*
X216634791Y-59000303D01*
X216643901Y-59001445D01*
X216643907Y-59001445D01*
X216643911Y-59001446D01*
X216645795Y-59001605D01*
X216655757Y-59001507D01*
X216670851Y-59002280D01*
X216700000Y-59005565D01*
X216772472Y-58997398D01*
X216783565Y-58996651D01*
X216796681Y-58996359D01*
X216824705Y-58991688D01*
X216831197Y-58990782D01*
X216879255Y-58985368D01*
X216879264Y-58985365D01*
X216884316Y-58983597D01*
X216904892Y-58978322D01*
X217361711Y-58902187D01*
X217382096Y-58900500D01*
X219028288Y-58900500D01*
X219053099Y-58903539D01*
X219053153Y-58903232D01*
X219057506Y-58903990D01*
X219242974Y-58922785D01*
X219626195Y-58961623D01*
X219634346Y-58962250D01*
X219650603Y-58963501D01*
X219650609Y-58963501D01*
X219650618Y-58963502D01*
X219651759Y-58963562D01*
X219659878Y-58963354D01*
X219676934Y-58964092D01*
X219690000Y-58965565D01*
X219718928Y-58962305D01*
X219729627Y-58961567D01*
X219730641Y-58961542D01*
X219730645Y-58961541D01*
X219737434Y-58960612D01*
X219737543Y-58961411D01*
X219756864Y-58959105D01*
X219770458Y-58959233D01*
X220238055Y-58896470D01*
X220343126Y-58882368D01*
X220345755Y-58881961D01*
X220364734Y-58880500D01*
X225180251Y-58880500D01*
X225247290Y-58900185D01*
X225281152Y-58932425D01*
X225364793Y-59049522D01*
X225440928Y-59156112D01*
X225445019Y-59162213D01*
X225470183Y-59202261D01*
X225483457Y-59215535D01*
X225491892Y-59225094D01*
X225491945Y-59225050D01*
X225494780Y-59228409D01*
X225567868Y-59300093D01*
X225567852Y-59300108D01*
X225569330Y-59301408D01*
X225597738Y-59329816D01*
X225750478Y-59425789D01*
X225860748Y-59464374D01*
X225920745Y-59485368D01*
X225920750Y-59485369D01*
X226099996Y-59505565D01*
X226100000Y-59505565D01*
X226100004Y-59505565D01*
X226279249Y-59485369D01*
X226279252Y-59485368D01*
X226279255Y-59485368D01*
X226449522Y-59425789D01*
X226602262Y-59329816D01*
X226729816Y-59202262D01*
X226825789Y-59049522D01*
X226885368Y-58879255D01*
X226888523Y-58851254D01*
X226905565Y-58700003D01*
X226905565Y-58699996D01*
X226885369Y-58520750D01*
X226885368Y-58520745D01*
X226825788Y-58350476D01*
X226729815Y-58197737D01*
X226602262Y-58070184D01*
X226562212Y-58045019D01*
X226556110Y-58040928D01*
X226128616Y-57735574D01*
X226113014Y-57722357D01*
X226026543Y-57635886D01*
X225911811Y-57559225D01*
X225911812Y-57559225D01*
X225911807Y-57559222D01*
X225784332Y-57506421D01*
X225784322Y-57506418D01*
X225648996Y-57479500D01*
X225648994Y-57479500D01*
X225648993Y-57479500D01*
X220373701Y-57479500D01*
X220349159Y-57477047D01*
X219914887Y-57389361D01*
X219898477Y-57384856D01*
X219869259Y-57374633D01*
X219869248Y-57374630D01*
X219690004Y-57354435D01*
X219689996Y-57354435D01*
X219510746Y-57374631D01*
X219472303Y-57388082D01*
X219449239Y-57393177D01*
X219449304Y-57393556D01*
X219444949Y-57394300D01*
X219164250Y-57463212D01*
X219031008Y-57495924D01*
X219001445Y-57499500D01*
X217382102Y-57499500D01*
X217361717Y-57497813D01*
X217237121Y-57477047D01*
X216904886Y-57421674D01*
X216884329Y-57416407D01*
X216879251Y-57414630D01*
X216831200Y-57409217D01*
X216824698Y-57408310D01*
X216796671Y-57403639D01*
X216756055Y-57398549D01*
X216754185Y-57398392D01*
X216754184Y-57398392D01*
X216753783Y-57398395D01*
X216744210Y-57398489D01*
X216729128Y-57397716D01*
X216706385Y-57395154D01*
X216700000Y-57394435D01*
X216699999Y-57394435D01*
X216699996Y-57394435D01*
X216627552Y-57402597D01*
X216616445Y-57403346D01*
X216603319Y-57403639D01*
X216575296Y-57408310D01*
X216568802Y-57409216D01*
X216558764Y-57410347D01*
X216520742Y-57414632D01*
X216515686Y-57416402D01*
X216495119Y-57421673D01*
X216038281Y-57497813D01*
X216017895Y-57499500D01*
X213503004Y-57499500D01*
X213367677Y-57526418D01*
X213367667Y-57526421D01*
X213240191Y-57579223D01*
X213125457Y-57655885D01*
X213125453Y-57655889D01*
X213086990Y-57694351D01*
X213071385Y-57707571D01*
X212643874Y-58012937D01*
X212637773Y-58017027D01*
X212597740Y-58042181D01*
X212597732Y-58042188D01*
X212584452Y-58055467D01*
X212574891Y-58063907D01*
X212574934Y-58063957D01*
X212571578Y-58066789D01*
X212571569Y-58066797D01*
X212499938Y-58139835D01*
X212499922Y-58139820D01*
X212498620Y-58141299D01*
X212470187Y-58169734D01*
X212470184Y-58169738D01*
X212374211Y-58322476D01*
X212314631Y-58492745D01*
X212314630Y-58492750D01*
X212294435Y-58671996D01*
X195303699Y-58671996D01*
X191058800Y-57962800D01*
X191058796Y-57962799D01*
X191058791Y-57962799D01*
X185343827Y-57835800D01*
X185343778Y-57835800D01*
X174015423Y-58140598D01*
X164261800Y-58470800D01*
X155549600Y-59182000D01*
X153115544Y-59457368D01*
X142976615Y-60604397D01*
X137591800Y-61594999D01*
X137617200Y-63322208D01*
X137674303Y-64273931D01*
X137658669Y-64342030D01*
X137608700Y-64390865D01*
X137551012Y-64405357D01*
X136971151Y-64407632D01*
X136966983Y-64407578D01*
X136839363Y-64403787D01*
X136834741Y-64403564D01*
X136711471Y-64395290D01*
X136706360Y-64394840D01*
X136587932Y-64381952D01*
X136582323Y-64381212D01*
X136468829Y-64363591D01*
X136462731Y-64362488D01*
X136354366Y-64340069D01*
X136347810Y-64338525D01*
X136244600Y-64311253D01*
X136237627Y-64309190D01*
X136139490Y-64276997D01*
X136132184Y-64274344D01*
X136038845Y-64237098D01*
X136031310Y-64233798D01*
X135942442Y-64191304D01*
X135934804Y-64187320D01*
X135849888Y-64139205D01*
X135842298Y-64134536D01*
X135760803Y-64080278D01*
X135753422Y-64074963D01*
X135674782Y-64013834D01*
X135667759Y-64007946D01*
X135591456Y-63939015D01*
X135584922Y-63932661D01*
X135510597Y-63854866D01*
X135504658Y-63848183D01*
X135432130Y-63760391D01*
X135426843Y-63753515D01*
X135423749Y-63749186D01*
X135347863Y-63643004D01*
X135346323Y-63640799D01*
X135075747Y-63244285D01*
X135075144Y-63243392D01*
X134942684Y-63045050D01*
X134941902Y-63043864D01*
X134812538Y-62845050D01*
X134811478Y-62843393D01*
X134795948Y-62818677D01*
X134686150Y-62643929D01*
X134684878Y-62641858D01*
X134586466Y-62478164D01*
X134564207Y-62441139D01*
X134562792Y-62438721D01*
X134447291Y-62236005D01*
X134445680Y-62233087D01*
X134340237Y-62035843D01*
X134336962Y-62029251D01*
X134050858Y-61407514D01*
X134050517Y-61406764D01*
X133762506Y-60765994D01*
X133762046Y-60764956D01*
X133192766Y-59465044D01*
X133192475Y-59464374D01*
X133189463Y-59457369D01*
X132057990Y-56825591D01*
X132057279Y-56823902D01*
X132003683Y-56693906D01*
X132002373Y-56690594D01*
X131955727Y-56567539D01*
X131954355Y-56563735D01*
X131945790Y-56538706D01*
X131913532Y-56444441D01*
X131912185Y-56440256D01*
X131877315Y-56324705D01*
X131875972Y-56319900D01*
X131847135Y-56208081D01*
X131845870Y-56202683D01*
X131841636Y-56182591D01*
X131822993Y-56094112D01*
X131821895Y-56088190D01*
X131804963Y-55982662D01*
X131804105Y-55976251D01*
X131801183Y-55949024D01*
X131793035Y-55873109D01*
X131792497Y-55866337D01*
X131787269Y-55765073D01*
X131787108Y-55757954D01*
X131787747Y-55657861D01*
X131788016Y-55650453D01*
X131794633Y-55550718D01*
X131795363Y-55543204D01*
X131808200Y-55442893D01*
X131809387Y-55435438D01*
X131816682Y-55397218D01*
X208246513Y-55397218D01*
X208246513Y-55397225D01*
X208266708Y-55576471D01*
X208266709Y-55576476D01*
X208326289Y-55746745D01*
X208410334Y-55880501D01*
X208422262Y-55899484D01*
X208549816Y-56027038D01*
X208581433Y-56046904D01*
X208656563Y-56094112D01*
X208702556Y-56123011D01*
X208796162Y-56155765D01*
X208872823Y-56182590D01*
X208872828Y-56182591D01*
X209052074Y-56202787D01*
X209052078Y-56202787D01*
X209052082Y-56202787D01*
X209231327Y-56182591D01*
X209231328Y-56182590D01*
X209231333Y-56182590D01*
X209308011Y-56155758D01*
X209318569Y-56152689D01*
X209319743Y-56152289D01*
X209319747Y-56152289D01*
X209320838Y-56151793D01*
X209331123Y-56147671D01*
X209333974Y-56146673D01*
X209401600Y-56123011D01*
X209439340Y-56099295D01*
X209446992Y-56095188D01*
X209446881Y-56094982D01*
X209450774Y-56092869D01*
X209450776Y-56092867D01*
X209450782Y-56092865D01*
X209522096Y-56047298D01*
X209522381Y-56047118D01*
X209554340Y-56027038D01*
X209554343Y-56027034D01*
X209557131Y-56025283D01*
X209561947Y-56021836D01*
X209752625Y-55900006D01*
X209819386Y-55880500D01*
X211624358Y-55880500D01*
X211624374Y-55880501D01*
X211631970Y-55880501D01*
X211790081Y-55880501D01*
X211790084Y-55880501D01*
X211942812Y-55839577D01*
X212012757Y-55799194D01*
X212079743Y-55760520D01*
X212191547Y-55648716D01*
X212191547Y-55648714D01*
X212201751Y-55638511D01*
X212201755Y-55638506D01*
X212467756Y-55372504D01*
X212503143Y-55347753D01*
X212873636Y-55175457D01*
X212885923Y-55169099D01*
X212901941Y-55162194D01*
X212905328Y-55161010D01*
X213058068Y-55065037D01*
X213185622Y-54937483D01*
X213281595Y-54784743D01*
X213341174Y-54614476D01*
X213341175Y-54614470D01*
X213361371Y-54435224D01*
X213361371Y-54435217D01*
X213341175Y-54255971D01*
X213341174Y-54255966D01*
X213281594Y-54085697D01*
X213242388Y-54023301D01*
X213185622Y-53932959D01*
X213058068Y-53805405D01*
X212954774Y-53740501D01*
X212905325Y-53709430D01*
X212795955Y-53671159D01*
X212739179Y-53630437D01*
X212719868Y-53595072D01*
X212688135Y-53504385D01*
X212681597Y-53485699D01*
X212585624Y-53332959D01*
X212458070Y-53205405D01*
X212426183Y-53185369D01*
X212305331Y-53109432D01*
X212135062Y-53049852D01*
X212135057Y-53049851D01*
X211955812Y-53029656D01*
X211955804Y-53029656D01*
X211776558Y-53049851D01*
X211776553Y-53049852D01*
X211606284Y-53109432D01*
X211453545Y-53205405D01*
X211325992Y-53332958D01*
X211310261Y-53357994D01*
X211230019Y-53485699D01*
X211230018Y-53485700D01*
X211230017Y-53485703D01*
X211227780Y-53492095D01*
X211217347Y-53513301D01*
X211217724Y-53513511D01*
X211215574Y-53517384D01*
X211043271Y-53887884D01*
X211018516Y-53923276D01*
X210898611Y-54043182D01*
X210837291Y-54076666D01*
X210810932Y-54079500D01*
X210131500Y-54079500D01*
X210088969Y-54071978D01*
X209705160Y-53931834D01*
X209689651Y-53926901D01*
X209664584Y-53918927D01*
X209664577Y-53918926D01*
X209664568Y-53918924D01*
X209663191Y-53918754D01*
X209637465Y-53912735D01*
X209585725Y-53894631D01*
X209406477Y-53874435D01*
X209406469Y-53874435D01*
X209227223Y-53894630D01*
X209227218Y-53894631D01*
X209056949Y-53954211D01*
X208904210Y-54050184D01*
X208776657Y-54177737D01*
X208680684Y-54330476D01*
X208621104Y-54500745D01*
X208621103Y-54500749D01*
X208600881Y-54680228D01*
X208573814Y-54744642D01*
X208554986Y-54763281D01*
X208549820Y-54767401D01*
X208422262Y-54894959D01*
X208326289Y-55047698D01*
X208266709Y-55217967D01*
X208266708Y-55217972D01*
X208246513Y-55397218D01*
X131816682Y-55397218D01*
X131828813Y-55333668D01*
X131830449Y-55326324D01*
X131856959Y-55222271D01*
X131858994Y-55215173D01*
X131859422Y-55213833D01*
X131893185Y-55108076D01*
X131895544Y-55101361D01*
X131940636Y-54983935D01*
X131942111Y-54980273D01*
X132099445Y-54607531D01*
X132101173Y-54603629D01*
X132269869Y-54240104D01*
X132271810Y-54236113D01*
X132452424Y-53881406D01*
X132454595Y-53877336D01*
X132647415Y-53531661D01*
X132649848Y-53527495D01*
X132656018Y-53517384D01*
X132855313Y-53190780D01*
X132857942Y-53186661D01*
X133078271Y-52856197D01*
X133080376Y-52853143D01*
X133192860Y-52695168D01*
X133194302Y-52693186D01*
X133312079Y-52534837D01*
X133313562Y-52532885D01*
X133434899Y-52376686D01*
X133436480Y-52374696D01*
X133463576Y-52341293D01*
X133528189Y-52261640D01*
X133544527Y-52244985D01*
X133549775Y-52240559D01*
X133574348Y-52205264D01*
X133579802Y-52198013D01*
X133606887Y-52164626D01*
X133609683Y-52158359D01*
X133621153Y-52138041D01*
X134092200Y-51461508D01*
X134094675Y-51458081D01*
X134541969Y-50861107D01*
X138397662Y-50861107D01*
X138406899Y-50920345D01*
X138897555Y-52751494D01*
X138919173Y-52807415D01*
X139002656Y-52924651D01*
X139002657Y-52924652D01*
X139002658Y-52924653D01*
X139002659Y-52924654D01*
X139090282Y-52993560D01*
X139115787Y-53013617D01*
X139249399Y-53067108D01*
X139329656Y-53074771D01*
X139394521Y-53100739D01*
X139435050Y-53157653D01*
X139438375Y-53227443D01*
X139428436Y-53253302D01*
X139428543Y-53253349D01*
X139427534Y-53255649D01*
X139426933Y-53257213D01*
X139426484Y-53258042D01*
X139333249Y-53470594D01*
X139276273Y-53695586D01*
X139276271Y-53695597D01*
X139257107Y-53926888D01*
X139257107Y-53926901D01*
X139276271Y-54158192D01*
X139276273Y-54158203D01*
X139333249Y-54383195D01*
X139426482Y-54595743D01*
X139553423Y-54790042D01*
X139553426Y-54790046D01*
X139553428Y-54790048D01*
X139710623Y-54960808D01*
X139710626Y-54960810D01*
X139710629Y-54960813D01*
X139893772Y-55103359D01*
X139893778Y-55103363D01*
X139893781Y-55103365D01*
X140097904Y-55213831D01*
X140149355Y-55231494D01*
X140317422Y-55289192D01*
X140317424Y-55289192D01*
X140317426Y-55289193D01*
X140546358Y-55327395D01*
X140546359Y-55327395D01*
X140778455Y-55327395D01*
X140778456Y-55327395D01*
X141007388Y-55289193D01*
X141226910Y-55213831D01*
X141431033Y-55103365D01*
X141614191Y-54960808D01*
X141771386Y-54790048D01*
X141898331Y-54595744D01*
X141991564Y-54383195D01*
X142048541Y-54158200D01*
X142050008Y-54140501D01*
X142067707Y-53926901D01*
X142067707Y-53926888D01*
X142048542Y-53695597D01*
X142048540Y-53695586D01*
X141991564Y-53470594D01*
X141898331Y-53258046D01*
X141771390Y-53063747D01*
X141771387Y-53063744D01*
X141771386Y-53063742D01*
X141648265Y-52929996D01*
X202754435Y-52929996D01*
X202754435Y-52930003D01*
X202774630Y-53109249D01*
X202774631Y-53109254D01*
X202834211Y-53279523D01*
X202918948Y-53414380D01*
X202930184Y-53432262D01*
X203057738Y-53559816D01*
X203113848Y-53595072D01*
X203170130Y-53630437D01*
X203210478Y-53655789D01*
X203324223Y-53695590D01*
X203380745Y-53715368D01*
X203380750Y-53715369D01*
X203559996Y-53735565D01*
X203560000Y-53735565D01*
X203560004Y-53735565D01*
X203739249Y-53715369D01*
X203739252Y-53715368D01*
X203739255Y-53715368D01*
X203909522Y-53655789D01*
X204062262Y-53559816D01*
X204189816Y-53432262D01*
X204189816Y-53432261D01*
X204189819Y-53432259D01*
X204194162Y-53426813D01*
X204194559Y-53427130D01*
X204204720Y-53414384D01*
X204787809Y-52831295D01*
X204834531Y-52801937D01*
X204938042Y-52765718D01*
X205090782Y-52669745D01*
X205090786Y-52669740D01*
X205096225Y-52665404D01*
X205097695Y-52667248D01*
X205149288Y-52639077D01*
X205218980Y-52644061D01*
X205263327Y-52672562D01*
X206095139Y-53504374D01*
X206095149Y-53504385D01*
X206099479Y-53508715D01*
X206099480Y-53508716D01*
X206211284Y-53620520D01*
X206272679Y-53655966D01*
X206348215Y-53699577D01*
X206500942Y-53740500D01*
X206500943Y-53740500D01*
X207842437Y-53740500D01*
X207842453Y-53740501D01*
X207850049Y-53740501D01*
X208008160Y-53740501D01*
X208008163Y-53740501D01*
X208160891Y-53699577D01*
X208236427Y-53655966D01*
X208297822Y-53620520D01*
X208409626Y-53508716D01*
X208409626Y-53508714D01*
X208419830Y-53498511D01*
X208419834Y-53498506D01*
X208903477Y-53014862D01*
X208932011Y-52993560D01*
X209191560Y-52852708D01*
X209214660Y-52839371D01*
X209214924Y-52839151D01*
X209228153Y-52829568D01*
X209328770Y-52766347D01*
X209328770Y-52766346D01*
X209328773Y-52766345D01*
X209444377Y-52650741D01*
X209531358Y-52512312D01*
X209570659Y-52399996D01*
X221694435Y-52399996D01*
X221694435Y-52400003D01*
X221714630Y-52579249D01*
X221714631Y-52579254D01*
X221774211Y-52749523D01*
X221842883Y-52858813D01*
X221870184Y-52902262D01*
X221997738Y-53029816D01*
X222078859Y-53080788D01*
X222124162Y-53109254D01*
X222150478Y-53125789D01*
X222241540Y-53157653D01*
X222320745Y-53185368D01*
X222320750Y-53185369D01*
X222499996Y-53205565D01*
X222500000Y-53205565D01*
X222500004Y-53205565D01*
X222679249Y-53185369D01*
X222679252Y-53185368D01*
X222679255Y-53185368D01*
X222849522Y-53125789D01*
X223002262Y-53029816D01*
X223129816Y-52902262D01*
X223225789Y-52749522D01*
X223228024Y-52743132D01*
X223238470Y-52721917D01*
X223238085Y-52721704D01*
X223240225Y-52717845D01*
X223240236Y-52717830D01*
X223412532Y-52347337D01*
X223437283Y-52311950D01*
X225458506Y-50290728D01*
X225458511Y-50290724D01*
X225468714Y-50280520D01*
X225468716Y-50280520D01*
X225580520Y-50168716D01*
X225640323Y-50065133D01*
X225659577Y-50031785D01*
X225700500Y-49879058D01*
X225700500Y-49720943D01*
X225700500Y-48223025D01*
X225708022Y-48180494D01*
X225848166Y-47796686D01*
X225861071Y-47756117D01*
X225861241Y-47754739D01*
X225867262Y-47728994D01*
X225885368Y-47677255D01*
X225885369Y-47677247D01*
X225905565Y-47498003D01*
X225905565Y-47497996D01*
X225885369Y-47318750D01*
X225885368Y-47318745D01*
X225825789Y-47148478D01*
X225729816Y-46995738D01*
X225602262Y-46868184D01*
X225449523Y-46772211D01*
X225279254Y-46712631D01*
X225279249Y-46712630D01*
X225100004Y-46692435D01*
X225099996Y-46692435D01*
X224920750Y-46712630D01*
X224920745Y-46712631D01*
X224750476Y-46772211D01*
X224597737Y-46868184D01*
X224470184Y-46995737D01*
X224374211Y-47148476D01*
X224314631Y-47318745D01*
X224314630Y-47318750D01*
X224294435Y-47497996D01*
X224294435Y-47498003D01*
X224314631Y-47677252D01*
X224342268Y-47756236D01*
X224346570Y-47771663D01*
X224351833Y-47796685D01*
X224451946Y-48070861D01*
X224486750Y-48166178D01*
X224491978Y-48180494D01*
X224499500Y-48223025D01*
X224499500Y-49499902D01*
X224479815Y-49566941D01*
X224463181Y-49587583D01*
X222588055Y-51462708D01*
X222552663Y-51487463D01*
X222182159Y-51659767D01*
X222169870Y-51666125D01*
X222153870Y-51673024D01*
X222150476Y-51674211D01*
X221997737Y-51770184D01*
X221870184Y-51897737D01*
X221774211Y-52050476D01*
X221714631Y-52220745D01*
X221714630Y-52220750D01*
X221694435Y-52399996D01*
X209570659Y-52399996D01*
X209585355Y-52357998D01*
X209586556Y-52347340D01*
X209603660Y-52195540D01*
X209603660Y-52195533D01*
X209585356Y-52033081D01*
X209585355Y-52033079D01*
X209585355Y-52033076D01*
X209531358Y-51878762D01*
X209444377Y-51740333D01*
X209328773Y-51624729D01*
X209206420Y-51547849D01*
X209190343Y-51537747D01*
X209036025Y-51483749D01*
X209011882Y-51481029D01*
X208947469Y-51453960D01*
X208907915Y-51396365D01*
X208905780Y-51326528D01*
X208920775Y-51291837D01*
X209010336Y-51149301D01*
X209054261Y-51023768D01*
X212077376Y-51023768D01*
X212077376Y-51023775D01*
X212097571Y-51203021D01*
X212097572Y-51203026D01*
X212157152Y-51373295D01*
X212226557Y-51483751D01*
X212253125Y-51526034D01*
X212380679Y-51653588D01*
X212420231Y-51678440D01*
X212531375Y-51748277D01*
X212533419Y-51749561D01*
X212660173Y-51793914D01*
X212703686Y-51809140D01*
X212703691Y-51809141D01*
X212882937Y-51829337D01*
X212882941Y-51829337D01*
X212882945Y-51829337D01*
X213062190Y-51809141D01*
X213062193Y-51809140D01*
X213062196Y-51809140D01*
X213232463Y-51749561D01*
X213385203Y-51653588D01*
X213512757Y-51526034D01*
X213608730Y-51373294D01*
X213668309Y-51203027D01*
X213678102Y-51116101D01*
X213705167Y-51051690D01*
X213713630Y-51042316D01*
X214355130Y-50400819D01*
X214416453Y-50367334D01*
X214442811Y-50364500D01*
X215727588Y-50364500D01*
X215794627Y-50384185D01*
X215804903Y-50391555D01*
X215807736Y-50393814D01*
X215807738Y-50393816D01*
X215960478Y-50489789D01*
X216087189Y-50534127D01*
X216130745Y-50549368D01*
X216130750Y-50549369D01*
X216309996Y-50569565D01*
X216310000Y-50569565D01*
X216310004Y-50569565D01*
X216489249Y-50549369D01*
X216489252Y-50549368D01*
X216489255Y-50549368D01*
X216659522Y-50489789D01*
X216812262Y-50393816D01*
X216939816Y-50266262D01*
X217035789Y-50113522D01*
X217095368Y-49943255D01*
X217102520Y-49879780D01*
X217115565Y-49764003D01*
X217115565Y-49763996D01*
X217095369Y-49584750D01*
X217095368Y-49584745D01*
X217043781Y-49437319D01*
X217035789Y-49414478D01*
X216939816Y-49261738D01*
X216812262Y-49134184D01*
X216659523Y-49038211D01*
X216489254Y-48978631D01*
X216489249Y-48978630D01*
X216310004Y-48958435D01*
X216309996Y-48958435D01*
X216130750Y-48978630D01*
X216130745Y-48978631D01*
X215960476Y-49038211D01*
X215807736Y-49134185D01*
X215804903Y-49136445D01*
X215802724Y-49137334D01*
X215801842Y-49137889D01*
X215801744Y-49137734D01*
X215740217Y-49162855D01*
X215727588Y-49163500D01*
X214229383Y-49163500D01*
X214229367Y-49163499D01*
X214221771Y-49163499D01*
X214063656Y-49163499D01*
X214018119Y-49175701D01*
X213910927Y-49204423D01*
X213910922Y-49204426D01*
X213774003Y-49283475D01*
X213773995Y-49283481D01*
X212864406Y-50193070D01*
X212803083Y-50226555D01*
X212790609Y-50228609D01*
X212703691Y-50238402D01*
X212533419Y-50297982D01*
X212380678Y-50393956D01*
X212253125Y-50521509D01*
X212157152Y-50674248D01*
X212097572Y-50844517D01*
X212097571Y-50844522D01*
X212077376Y-51023768D01*
X209054261Y-51023768D01*
X209069877Y-50979141D01*
X209069878Y-50979138D01*
X209090062Y-50800002D01*
X209090062Y-50799997D01*
X209069878Y-50620861D01*
X209010333Y-50450692D01*
X209001661Y-50436892D01*
X209001660Y-50436892D01*
X207921892Y-51516660D01*
X207921892Y-51516661D01*
X207935692Y-51525333D01*
X207935691Y-51525333D01*
X208105861Y-51584878D01*
X208184858Y-51593779D01*
X208249272Y-51620845D01*
X208288828Y-51678440D01*
X208290965Y-51748277D01*
X208275968Y-51782972D01*
X208219934Y-51872148D01*
X208218588Y-51874113D01*
X208216402Y-51877536D01*
X208075541Y-52137097D01*
X208054237Y-52165632D01*
X207716688Y-52503182D01*
X207655367Y-52536666D01*
X207629009Y-52539500D01*
X206880097Y-52539500D01*
X206813058Y-52519815D01*
X206792416Y-52503181D01*
X206024032Y-51734797D01*
X205990547Y-51673474D01*
X205995531Y-51603782D01*
X206037403Y-51547849D01*
X206070763Y-51530073D01*
X206084304Y-51525335D01*
X206084306Y-51525334D01*
X206098106Y-51516661D01*
X206098106Y-51516660D01*
X206646892Y-51516660D01*
X206646892Y-51516661D01*
X206660692Y-51525333D01*
X206660691Y-51525333D01*
X206830861Y-51584878D01*
X207009997Y-51605062D01*
X207010003Y-51605062D01*
X207189138Y-51584878D01*
X207189141Y-51584877D01*
X207359305Y-51525334D01*
X207359306Y-51525334D01*
X207373106Y-51516661D01*
X207373106Y-51516660D01*
X207010001Y-51153553D01*
X207010000Y-51153553D01*
X206646892Y-51516660D01*
X206098106Y-51516660D01*
X205735000Y-51153553D01*
X205346637Y-50765190D01*
X205560000Y-50765190D01*
X205560000Y-50834810D01*
X205586643Y-50899129D01*
X205635871Y-50948357D01*
X205700190Y-50975000D01*
X205769810Y-50975000D01*
X205834129Y-50948357D01*
X205883357Y-50899129D01*
X205910000Y-50834810D01*
X205910000Y-50765190D01*
X205883357Y-50700871D01*
X205834129Y-50651643D01*
X205769810Y-50625000D01*
X205700190Y-50625000D01*
X205635871Y-50651643D01*
X205586643Y-50700871D01*
X205560000Y-50765190D01*
X205346637Y-50765190D01*
X205018338Y-50436891D01*
X205018337Y-50436891D01*
X205009667Y-50450691D01*
X205009659Y-50450706D01*
X205004924Y-50464241D01*
X204964202Y-50521017D01*
X204899250Y-50546764D01*
X204830688Y-50533307D01*
X204800202Y-50510967D01*
X204471819Y-50182584D01*
X204438334Y-50121261D01*
X204435500Y-50094903D01*
X204435500Y-49524997D01*
X204929938Y-49524997D01*
X204929938Y-49525002D01*
X204950121Y-49704138D01*
X205009665Y-49874304D01*
X205018338Y-49888107D01*
X205381446Y-49525000D01*
X205381446Y-49524999D01*
X205346637Y-49490190D01*
X205560000Y-49490190D01*
X205560000Y-49559810D01*
X205586643Y-49624129D01*
X205635871Y-49673357D01*
X205700190Y-49700000D01*
X205769810Y-49700000D01*
X205834129Y-49673357D01*
X205883357Y-49624129D01*
X205910000Y-49559810D01*
X205910000Y-49490190D01*
X205883357Y-49425871D01*
X205834129Y-49376643D01*
X205769810Y-49350000D01*
X205700190Y-49350000D01*
X205635871Y-49376643D01*
X205586643Y-49425871D01*
X205560000Y-49490190D01*
X205346637Y-49490190D01*
X205018338Y-49161891D01*
X205018337Y-49161891D01*
X205009667Y-49175691D01*
X205009662Y-49175701D01*
X204950122Y-49345858D01*
X204950121Y-49345861D01*
X204929938Y-49524997D01*
X204435500Y-49524997D01*
X204435500Y-48924772D01*
X204446444Y-48887500D01*
X205451053Y-48887500D01*
X206000872Y-49437319D01*
X206034357Y-49498642D01*
X206029373Y-49568334D01*
X206000872Y-49612681D01*
X205451053Y-50162500D01*
X206372499Y-51083946D01*
X206691256Y-50765190D01*
X206835000Y-50765190D01*
X206835000Y-50834810D01*
X206861643Y-50899129D01*
X206910871Y-50948357D01*
X206975190Y-50975000D01*
X207044810Y-50975000D01*
X207109129Y-50948357D01*
X207158357Y-50899129D01*
X207185000Y-50834810D01*
X207185000Y-50765190D01*
X207158357Y-50700871D01*
X207109129Y-50651643D01*
X207044810Y-50625000D01*
X206975190Y-50625000D01*
X206910871Y-50651643D01*
X206861643Y-50700871D01*
X206835000Y-50765190D01*
X206691256Y-50765190D01*
X206922319Y-50534127D01*
X206983642Y-50500642D01*
X207053334Y-50505626D01*
X207097681Y-50534127D01*
X207647500Y-51083946D01*
X207966257Y-50765190D01*
X208110000Y-50765190D01*
X208110000Y-50834810D01*
X208136643Y-50899129D01*
X208185871Y-50948357D01*
X208250190Y-50975000D01*
X208319810Y-50975000D01*
X208384129Y-50948357D01*
X208433357Y-50899129D01*
X208460000Y-50834810D01*
X208460000Y-50765190D01*
X208433357Y-50700871D01*
X208384129Y-50651643D01*
X208319810Y-50625000D01*
X208250190Y-50625000D01*
X208185871Y-50651643D01*
X208136643Y-50700871D01*
X208110000Y-50765190D01*
X207966257Y-50765190D01*
X208285000Y-50446447D01*
X208568946Y-50162500D01*
X208019127Y-49612681D01*
X207985642Y-49551358D01*
X207990016Y-49490190D01*
X208110000Y-49490190D01*
X208110000Y-49559810D01*
X208136643Y-49624129D01*
X208185871Y-49673357D01*
X208250190Y-49700000D01*
X208319810Y-49700000D01*
X208384129Y-49673357D01*
X208433357Y-49624129D01*
X208460000Y-49559810D01*
X208460000Y-49525000D01*
X208638553Y-49525000D01*
X209001660Y-49888106D01*
X209001661Y-49888106D01*
X209010334Y-49874306D01*
X209010334Y-49874305D01*
X209069877Y-49704141D01*
X209069878Y-49704138D01*
X209090062Y-49525002D01*
X209090062Y-49524997D01*
X209069878Y-49345861D01*
X209010333Y-49175692D01*
X209001661Y-49161892D01*
X209001660Y-49161892D01*
X208638553Y-49525000D01*
X208460000Y-49525000D01*
X208460000Y-49490190D01*
X208433357Y-49425871D01*
X208384129Y-49376643D01*
X208319810Y-49350000D01*
X208250190Y-49350000D01*
X208185871Y-49376643D01*
X208136643Y-49425871D01*
X208110000Y-49490190D01*
X207990016Y-49490190D01*
X207990626Y-49481666D01*
X208019127Y-49437319D01*
X208285000Y-49171447D01*
X208568946Y-48887500D01*
X208568946Y-48887499D01*
X207896637Y-48215190D01*
X208110000Y-48215190D01*
X208110000Y-48284810D01*
X208136643Y-48349129D01*
X208185871Y-48398357D01*
X208250190Y-48425000D01*
X208319810Y-48425000D01*
X208384129Y-48398357D01*
X208433357Y-48349129D01*
X208460000Y-48284810D01*
X208460000Y-48250000D01*
X208638553Y-48250000D01*
X209001660Y-48613106D01*
X209001661Y-48613106D01*
X209010334Y-48599306D01*
X209010334Y-48599305D01*
X209069877Y-48429141D01*
X209069878Y-48429138D01*
X209090062Y-48250002D01*
X209090062Y-48249997D01*
X209069878Y-48070861D01*
X209010333Y-47900692D01*
X209001661Y-47886892D01*
X209001660Y-47886892D01*
X208638553Y-48250000D01*
X208460000Y-48250000D01*
X208460000Y-48215190D01*
X208433357Y-48150871D01*
X208384129Y-48101643D01*
X208319810Y-48075000D01*
X208250190Y-48075000D01*
X208185871Y-48101643D01*
X208136643Y-48150871D01*
X208110000Y-48215190D01*
X207896637Y-48215190D01*
X207647500Y-47966053D01*
X207097681Y-48515872D01*
X207036358Y-48549357D01*
X206966666Y-48544373D01*
X206922319Y-48515872D01*
X206621637Y-48215190D01*
X206835000Y-48215190D01*
X206835000Y-48284810D01*
X206861643Y-48349129D01*
X206910871Y-48398357D01*
X206975190Y-48425000D01*
X207044810Y-48425000D01*
X207109129Y-48398357D01*
X207158357Y-48349129D01*
X207185000Y-48284810D01*
X207185000Y-48215190D01*
X207158357Y-48150871D01*
X207109129Y-48101643D01*
X207044810Y-48075000D01*
X206975190Y-48075000D01*
X206910871Y-48101643D01*
X206861643Y-48150871D01*
X206835000Y-48215190D01*
X206621637Y-48215190D01*
X206372500Y-47966053D01*
X205451053Y-48887500D01*
X204446444Y-48887500D01*
X204455185Y-48857733D01*
X204507989Y-48811978D01*
X204545617Y-48801552D01*
X204689249Y-48785369D01*
X204689252Y-48785368D01*
X204689255Y-48785368D01*
X204859522Y-48725789D01*
X205012262Y-48629816D01*
X205053942Y-48588134D01*
X205067131Y-48576686D01*
X205088437Y-48560680D01*
X205432733Y-48215190D01*
X205560000Y-48215190D01*
X205560000Y-48284810D01*
X205586643Y-48349129D01*
X205635871Y-48398357D01*
X205700190Y-48425000D01*
X205769810Y-48425000D01*
X205834129Y-48398357D01*
X205883357Y-48349129D01*
X205910000Y-48284810D01*
X205910000Y-48215190D01*
X205883357Y-48150871D01*
X205834129Y-48101643D01*
X205769810Y-48075000D01*
X205700190Y-48075000D01*
X205635871Y-48101643D01*
X205586643Y-48150871D01*
X205560000Y-48215190D01*
X205432733Y-48215190D01*
X205481576Y-48166178D01*
X205517381Y-48126215D01*
X205517385Y-48126207D01*
X205519844Y-48122855D01*
X205532164Y-48108491D01*
X206107318Y-47533337D01*
X206646891Y-47533337D01*
X206646891Y-47533338D01*
X207010000Y-47896446D01*
X207010001Y-47896446D01*
X207373107Y-47533338D01*
X207373105Y-47533337D01*
X207921891Y-47533337D01*
X207921891Y-47533338D01*
X208285000Y-47896446D01*
X208285001Y-47896446D01*
X208648107Y-47533338D01*
X208634304Y-47524665D01*
X208464138Y-47465121D01*
X208285003Y-47444938D01*
X208284997Y-47444938D01*
X208105861Y-47465121D01*
X208105858Y-47465122D01*
X207935701Y-47524662D01*
X207935691Y-47524667D01*
X207921891Y-47533337D01*
X207373105Y-47533337D01*
X207359304Y-47524665D01*
X207189138Y-47465121D01*
X207010003Y-47444938D01*
X207009997Y-47444938D01*
X206830861Y-47465121D01*
X206830858Y-47465122D01*
X206660701Y-47524662D01*
X206660691Y-47524667D01*
X206646891Y-47533337D01*
X206107318Y-47533337D01*
X207338021Y-46302634D01*
X207353617Y-46289422D01*
X207616440Y-46101692D01*
X207668122Y-46080285D01*
X207986711Y-46027187D01*
X208007096Y-46025500D01*
X209765252Y-46025500D01*
X209856296Y-46007389D01*
X209900584Y-45998580D01*
X210028067Y-45945775D01*
X210068850Y-45918524D01*
X210135528Y-45897648D01*
X210137740Y-45897628D01*
X210332476Y-45897628D01*
X210352861Y-45899315D01*
X210581367Y-45937399D01*
X210809685Y-45975452D01*
X210830256Y-45980724D01*
X210835318Y-45982496D01*
X210844805Y-45983564D01*
X210883393Y-45987913D01*
X210889898Y-45988821D01*
X210892821Y-45989308D01*
X210917891Y-45993487D01*
X210949364Y-45997431D01*
X210958474Y-45998573D01*
X210958480Y-45998573D01*
X210958484Y-45998574D01*
X210960368Y-45998733D01*
X210970329Y-45998635D01*
X210985425Y-45999408D01*
X211014573Y-46002693D01*
X211014573Y-46002692D01*
X211014574Y-46002693D01*
X211014576Y-46002693D01*
X211193822Y-45982497D01*
X211193825Y-45982496D01*
X211193828Y-45982496D01*
X211364095Y-45922917D01*
X211516835Y-45826944D01*
X211644389Y-45699390D01*
X211740362Y-45546650D01*
X211799941Y-45376383D01*
X211820138Y-45197128D01*
X211799941Y-45017873D01*
X211740362Y-44847606D01*
X211724736Y-44822738D01*
X211701155Y-44785208D01*
X211644389Y-44694866D01*
X211516835Y-44567312D01*
X211481203Y-44544923D01*
X211364096Y-44471339D01*
X211193827Y-44411759D01*
X211193822Y-44411758D01*
X211014577Y-44391563D01*
X211014570Y-44391563D01*
X210942125Y-44399725D01*
X210931018Y-44400474D01*
X210917892Y-44400767D01*
X210889869Y-44405438D01*
X210883375Y-44406344D01*
X210873337Y-44407475D01*
X210835315Y-44411760D01*
X210830259Y-44413530D01*
X210809692Y-44418801D01*
X210352854Y-44494941D01*
X210332468Y-44496628D01*
X209755131Y-44496628D01*
X209646718Y-44518193D01*
X209646717Y-44518193D01*
X209626482Y-44522218D01*
X209619798Y-44523548D01*
X209619797Y-44523548D01*
X209607508Y-44528638D01*
X209607509Y-44528639D01*
X209492319Y-44576351D01*
X209492316Y-44576353D01*
X209471578Y-44590209D01*
X209451535Y-44603602D01*
X209384860Y-44624480D01*
X209382645Y-44624500D01*
X208007102Y-44624500D01*
X207986717Y-44622813D01*
X207845105Y-44599211D01*
X207529886Y-44546674D01*
X207509329Y-44541407D01*
X207504251Y-44539630D01*
X207456200Y-44534217D01*
X207449698Y-44533310D01*
X207421671Y-44528639D01*
X207381055Y-44523549D01*
X207379185Y-44523392D01*
X207379184Y-44523392D01*
X207378783Y-44523395D01*
X207369210Y-44523489D01*
X207354128Y-44522716D01*
X207331385Y-44520154D01*
X207325000Y-44519435D01*
X207324999Y-44519435D01*
X207324996Y-44519435D01*
X207145750Y-44539630D01*
X207145745Y-44539631D01*
X206975476Y-44599211D01*
X206822737Y-44695184D01*
X206695186Y-44822735D01*
X206670028Y-44862772D01*
X206665939Y-44868870D01*
X206360571Y-45296385D01*
X206347349Y-45311992D01*
X204647181Y-47012161D01*
X204585858Y-47045646D01*
X204516166Y-47040662D01*
X204460233Y-46998790D01*
X204435816Y-46933326D01*
X204435500Y-46924480D01*
X204435500Y-46917975D01*
X204437302Y-46896911D01*
X204512087Y-46463073D01*
X204517241Y-46443189D01*
X204520368Y-46434255D01*
X204526216Y-46382345D01*
X204527230Y-46375220D01*
X204530801Y-46354513D01*
X204536236Y-46312566D01*
X204536406Y-46310617D01*
X204536322Y-46300674D01*
X204537097Y-46285772D01*
X204540565Y-46255000D01*
X204523292Y-46101694D01*
X204520369Y-46075750D01*
X204520368Y-46075745D01*
X204503377Y-46027187D01*
X204460789Y-45905478D01*
X204364816Y-45752738D01*
X204237262Y-45625184D01*
X204112278Y-45546651D01*
X204084523Y-45529211D01*
X203914254Y-45469631D01*
X203914249Y-45469630D01*
X203735004Y-45449435D01*
X203734996Y-45449435D01*
X203555750Y-45469630D01*
X203555745Y-45469631D01*
X203385476Y-45529211D01*
X203232737Y-45625184D01*
X203105184Y-45752737D01*
X203009211Y-45905476D01*
X202949631Y-46075745D01*
X202949630Y-46075750D01*
X202929435Y-46254996D01*
X202929435Y-46255003D01*
X202949631Y-46434252D01*
X202974234Y-46504565D01*
X202975434Y-46508226D01*
X202976408Y-46510778D01*
X203009211Y-46604523D01*
X203009214Y-46604529D01*
X203022863Y-46626251D01*
X203028654Y-46636520D01*
X203030444Y-46640080D01*
X203030445Y-46640081D01*
X203217032Y-46953325D01*
X203234500Y-47016780D01*
X203234500Y-50308330D01*
X203234499Y-50308348D01*
X203234499Y-50474054D01*
X203234498Y-50474054D01*
X203274944Y-50625000D01*
X203275423Y-50626785D01*
X203295954Y-50662345D01*
X203351500Y-50758555D01*
X203354479Y-50763714D01*
X203354481Y-50763717D01*
X203473349Y-50882585D01*
X203473355Y-50882590D01*
X203955887Y-51365122D01*
X203989372Y-51426445D01*
X203984388Y-51496137D01*
X203961822Y-51531248D01*
X203963045Y-51532224D01*
X203958704Y-51537666D01*
X203862732Y-51690404D01*
X203862731Y-51690405D01*
X203826511Y-51793914D01*
X203797151Y-51840639D01*
X203538115Y-52099675D01*
X203476792Y-52133160D01*
X203464319Y-52135214D01*
X203380750Y-52144630D01*
X203210478Y-52204210D01*
X203057737Y-52300184D01*
X202930184Y-52427737D01*
X202834211Y-52580476D01*
X202774631Y-52750745D01*
X202774630Y-52750750D01*
X202754435Y-52929996D01*
X141648265Y-52929996D01*
X141614191Y-52892982D01*
X141614186Y-52892978D01*
X141614184Y-52892976D01*
X141431041Y-52750430D01*
X141431030Y-52750423D01*
X141401153Y-52734254D01*
X141351563Y-52685034D01*
X141336456Y-52616817D01*
X141360627Y-52551262D01*
X141388242Y-52524195D01*
X141456213Y-52475794D01*
X141545179Y-52362663D01*
X141598670Y-52229051D01*
X141612350Y-52085781D01*
X141603113Y-52026543D01*
X141274460Y-50799996D01*
X142704435Y-50799996D01*
X142704435Y-50800003D01*
X142712597Y-50872447D01*
X142713346Y-50883554D01*
X142713639Y-50896673D01*
X142713640Y-50896683D01*
X142718311Y-50924705D01*
X142719218Y-50931207D01*
X142724631Y-50979256D01*
X142726402Y-50984316D01*
X142731673Y-51004882D01*
X142800249Y-51416334D01*
X142800249Y-51457106D01*
X142731672Y-51868564D01*
X142726403Y-51889124D01*
X142724633Y-51894182D01*
X142724631Y-51894191D01*
X142719218Y-51942231D01*
X142718311Y-51948728D01*
X142713638Y-51976771D01*
X142708528Y-52017625D01*
X142708371Y-52019499D01*
X142708371Y-52019502D01*
X142708470Y-52029374D01*
X142707696Y-52044500D01*
X142704435Y-52073442D01*
X142704435Y-52073447D01*
X142724630Y-52252693D01*
X142724631Y-52252698D01*
X142784211Y-52422967D01*
X142857434Y-52539500D01*
X142880184Y-52575706D01*
X143007738Y-52703260D01*
X143160478Y-52799233D01*
X143274580Y-52839159D01*
X143330745Y-52858812D01*
X143330750Y-52858813D01*
X143509996Y-52879009D01*
X143510000Y-52879009D01*
X143510004Y-52879009D01*
X143689249Y-52858813D01*
X143689252Y-52858812D01*
X143689255Y-52858812D01*
X143859522Y-52799233D01*
X144012262Y-52703260D01*
X144139816Y-52575706D01*
X144235789Y-52422966D01*
X144295368Y-52252699D01*
X144297009Y-52238140D01*
X144315565Y-52073446D01*
X144315565Y-52073443D01*
X144312977Y-52050476D01*
X144307399Y-52000973D01*
X144306651Y-51989865D01*
X144306359Y-51976763D01*
X144301686Y-51948728D01*
X144300783Y-51942259D01*
X144299177Y-51928003D01*
X144295368Y-51894189D01*
X144293596Y-51889124D01*
X144288324Y-51868556D01*
X144219749Y-51457103D01*
X144219749Y-51416339D01*
X144288325Y-51004881D01*
X144293598Y-50984312D01*
X144295368Y-50979255D01*
X144300787Y-50931151D01*
X144301682Y-50924736D01*
X144306359Y-50896680D01*
X144311446Y-50856088D01*
X144311605Y-50854204D01*
X144311507Y-50844239D01*
X144312280Y-50829146D01*
X144315565Y-50800000D01*
X144311477Y-50763714D01*
X144295369Y-50620750D01*
X144295368Y-50620745D01*
X144260644Y-50521509D01*
X144235789Y-50450478D01*
X144227252Y-50436892D01*
X144182705Y-50365996D01*
X144139816Y-50297738D01*
X144012262Y-50170184D01*
X143922087Y-50113523D01*
X143859523Y-50074211D01*
X143689254Y-50014631D01*
X143689249Y-50014630D01*
X143510004Y-49994435D01*
X143509996Y-49994435D01*
X143330750Y-50014630D01*
X143330745Y-50014631D01*
X143160476Y-50074211D01*
X143007737Y-50170184D01*
X142880184Y-50297737D01*
X142784211Y-50450476D01*
X142724631Y-50620745D01*
X142724630Y-50620750D01*
X142704435Y-50799996D01*
X141274460Y-50799996D01*
X141112457Y-50195394D01*
X141090839Y-50139473D01*
X141007356Y-50022237D01*
X141007354Y-50022235D01*
X141007353Y-50022234D01*
X141007352Y-50022233D01*
X140894224Y-49933270D01*
X140760614Y-49879780D01*
X140617344Y-49866100D01*
X140617343Y-49866100D01*
X140575427Y-49872635D01*
X140564730Y-49874304D01*
X140558105Y-49875337D01*
X138726956Y-50365993D01*
X138726951Y-50365994D01*
X138726947Y-50365996D01*
X138671037Y-50387610D01*
X138671036Y-50387610D01*
X138671035Y-50387611D01*
X138662125Y-50393956D01*
X138553796Y-50471096D01*
X138553795Y-50471097D01*
X138464832Y-50584225D01*
X138411342Y-50717835D01*
X138399246Y-50844522D01*
X138397662Y-50861107D01*
X134541969Y-50861107D01*
X134618842Y-50758510D01*
X134621279Y-50755368D01*
X134702183Y-50654504D01*
X134759482Y-50614527D01*
X134780190Y-50609513D01*
X136194800Y-50393600D01*
X147073257Y-41537995D01*
X230609500Y-41537995D01*
X230609500Y-41774004D01*
X230609501Y-41774020D01*
X230640306Y-42008010D01*
X230701394Y-42235993D01*
X230791714Y-42454045D01*
X230791719Y-42454056D01*
X230862677Y-42576957D01*
X230909727Y-42658450D01*
X230909729Y-42658453D01*
X230909730Y-42658454D01*
X231053406Y-42845697D01*
X231053412Y-42845704D01*
X231220295Y-43012587D01*
X231220301Y-43012592D01*
X231407550Y-43156273D01*
X231538918Y-43232118D01*
X231611943Y-43274280D01*
X231611948Y-43274282D01*
X231611951Y-43274284D01*
X231830007Y-43364606D01*
X232057986Y-43425693D01*
X232291989Y-43456500D01*
X232291996Y-43456500D01*
X232528004Y-43456500D01*
X232528011Y-43456500D01*
X232762014Y-43425693D01*
X232989993Y-43364606D01*
X233208049Y-43274284D01*
X233412450Y-43156273D01*
X233599699Y-43012592D01*
X233766592Y-42845699D01*
X233910273Y-42658450D01*
X234028284Y-42454049D01*
X234118606Y-42235993D01*
X234179693Y-42008014D01*
X234210500Y-41774011D01*
X234210500Y-41537989D01*
X234179693Y-41303986D01*
X234118606Y-41076007D01*
X234028284Y-40857951D01*
X234028282Y-40857948D01*
X234028280Y-40857943D01*
X233986118Y-40784918D01*
X233910273Y-40653550D01*
X233766592Y-40466301D01*
X233766587Y-40466295D01*
X233599704Y-40299412D01*
X233599697Y-40299406D01*
X233412454Y-40155730D01*
X233412453Y-40155729D01*
X233412450Y-40155727D01*
X233330957Y-40108677D01*
X233208056Y-40037719D01*
X233208045Y-40037714D01*
X232989993Y-39947394D01*
X232762010Y-39886306D01*
X232528020Y-39855501D01*
X232528017Y-39855500D01*
X232528011Y-39855500D01*
X232291989Y-39855500D01*
X232291983Y-39855500D01*
X232291979Y-39855501D01*
X232057989Y-39886306D01*
X231830006Y-39947394D01*
X231611954Y-40037714D01*
X231611943Y-40037719D01*
X231407545Y-40155730D01*
X231220302Y-40299406D01*
X231220295Y-40299412D01*
X231053412Y-40466295D01*
X231053406Y-40466302D01*
X230909730Y-40653545D01*
X230791719Y-40857943D01*
X230791714Y-40857954D01*
X230701394Y-41076006D01*
X230640306Y-41303989D01*
X230609501Y-41537979D01*
X230609500Y-41537995D01*
X147073257Y-41537995D01*
X148480772Y-40392208D01*
X148496910Y-40381072D01*
X150164440Y-39415660D01*
X150232319Y-39399107D01*
X150298373Y-39421881D01*
X150341629Y-39476750D01*
X150348354Y-39546295D01*
X150341129Y-39570426D01*
X150310460Y-39644468D01*
X150310459Y-39644471D01*
X150310459Y-39644472D01*
X150310458Y-39644473D01*
X150285461Y-39770140D01*
X150285461Y-39770143D01*
X150285461Y-39898281D01*
X150285461Y-39898283D01*
X150285460Y-39898283D01*
X150310458Y-40023950D01*
X150310460Y-40023956D01*
X150359494Y-40142336D01*
X150359499Y-40142345D01*
X150430684Y-40248880D01*
X150430687Y-40248884D01*
X150521288Y-40339485D01*
X150521292Y-40339488D01*
X150627827Y-40410673D01*
X150627833Y-40410676D01*
X150627834Y-40410677D01*
X150746217Y-40459713D01*
X150746221Y-40459713D01*
X150746222Y-40459714D01*
X150871889Y-40484712D01*
X150871892Y-40484712D01*
X151000032Y-40484712D01*
X151092616Y-40466295D01*
X151125705Y-40459713D01*
X151244088Y-40410677D01*
X151350630Y-40339488D01*
X151441237Y-40248881D01*
X151512426Y-40142339D01*
X151561462Y-40023956D01*
X151586461Y-39898281D01*
X151586461Y-39770143D01*
X151586461Y-39770140D01*
X151561463Y-39644473D01*
X151561462Y-39644472D01*
X151561462Y-39644468D01*
X151512426Y-39526085D01*
X151512425Y-39526084D01*
X151512422Y-39526078D01*
X151441237Y-39419543D01*
X151441234Y-39419539D01*
X151350633Y-39328938D01*
X151350629Y-39328935D01*
X151244094Y-39257750D01*
X151244085Y-39257745D01*
X151125705Y-39208711D01*
X151125699Y-39208709D01*
X150998847Y-39183476D01*
X150936936Y-39151091D01*
X150902362Y-39090375D01*
X150906103Y-39020605D01*
X150946969Y-38963933D01*
X150960901Y-38954552D01*
X152764780Y-37910201D01*
X152832657Y-37893648D01*
X152898711Y-37916422D01*
X152941967Y-37971291D01*
X152948692Y-38040836D01*
X152941467Y-38064966D01*
X152908537Y-38144468D01*
X152908535Y-38144473D01*
X152883538Y-38270140D01*
X152883538Y-38270143D01*
X152883538Y-38398281D01*
X152883538Y-38398283D01*
X152883537Y-38398283D01*
X152908535Y-38523950D01*
X152908537Y-38523956D01*
X152957571Y-38642336D01*
X152957576Y-38642345D01*
X153028761Y-38748880D01*
X153028764Y-38748884D01*
X153119365Y-38839485D01*
X153119369Y-38839488D01*
X153225904Y-38910673D01*
X153225910Y-38910676D01*
X153225911Y-38910677D01*
X153344294Y-38959713D01*
X153344298Y-38959713D01*
X153344299Y-38959714D01*
X153469966Y-38984712D01*
X153469969Y-38984712D01*
X153598109Y-38984712D01*
X153702567Y-38963933D01*
X153723782Y-38959713D01*
X153842165Y-38910677D01*
X153948707Y-38839488D01*
X154039314Y-38748881D01*
X154110503Y-38642339D01*
X154159539Y-38523956D01*
X154184538Y-38398281D01*
X154184538Y-38270143D01*
X154184538Y-38270140D01*
X154159540Y-38144473D01*
X154159539Y-38144472D01*
X154159539Y-38144468D01*
X154110503Y-38026085D01*
X154110502Y-38026084D01*
X154110499Y-38026078D01*
X154039314Y-37919543D01*
X154039311Y-37919539D01*
X153948710Y-37828938D01*
X153948706Y-37828935D01*
X153842171Y-37757750D01*
X153842162Y-37757745D01*
X153723782Y-37708711D01*
X153721197Y-37707927D01*
X153720008Y-37707148D01*
X153718154Y-37706380D01*
X153718299Y-37706028D01*
X153662759Y-37669628D01*
X153634304Y-37605815D01*
X153644866Y-37536748D01*
X153691092Y-37484356D01*
X153706122Y-37476273D01*
X158109204Y-35486419D01*
X158121034Y-35481788D01*
X163689777Y-33625540D01*
X163759599Y-33623016D01*
X163819704Y-33658641D01*
X163851007Y-33721106D01*
X163843569Y-33790579D01*
X163799753Y-33845002D01*
X163797881Y-33846278D01*
X163786032Y-33854195D01*
X163786027Y-33854199D01*
X163695426Y-33944800D01*
X163695423Y-33944804D01*
X163624238Y-34051339D01*
X163624233Y-34051348D01*
X163575199Y-34169728D01*
X163575197Y-34169734D01*
X163550200Y-34295401D01*
X163550200Y-34295404D01*
X163550200Y-34423542D01*
X163550200Y-34423544D01*
X163550199Y-34423544D01*
X163575197Y-34549211D01*
X163575199Y-34549217D01*
X163624233Y-34667597D01*
X163624238Y-34667606D01*
X163695423Y-34774141D01*
X163695426Y-34774145D01*
X163713975Y-34792694D01*
X163747460Y-34854017D01*
X163742476Y-34923709D01*
X163700604Y-34979642D01*
X163664768Y-34997052D01*
X163664877Y-34997314D01*
X163660483Y-34999133D01*
X163658398Y-35000147D01*
X163657375Y-35000421D01*
X163657363Y-35000426D01*
X163520444Y-35079475D01*
X163520436Y-35079481D01*
X162660555Y-35939361D01*
X162625163Y-35964116D01*
X162254660Y-36136420D01*
X162242371Y-36142778D01*
X162226371Y-36149677D01*
X162222977Y-36150864D01*
X162070238Y-36246837D01*
X161942685Y-36374390D01*
X161846712Y-36527129D01*
X161787132Y-36697398D01*
X161787131Y-36697403D01*
X161766936Y-36876649D01*
X161766936Y-36876656D01*
X161787131Y-37055902D01*
X161787132Y-37055907D01*
X161846712Y-37226176D01*
X161942685Y-37378915D01*
X162070239Y-37506469D01*
X162222979Y-37602442D01*
X162393246Y-37662021D01*
X162393251Y-37662022D01*
X162572497Y-37682218D01*
X162572501Y-37682218D01*
X162572505Y-37682218D01*
X162751750Y-37662022D01*
X162751753Y-37662021D01*
X162751756Y-37662021D01*
X162922023Y-37602442D01*
X163074763Y-37506469D01*
X163202317Y-37378915D01*
X163298290Y-37226175D01*
X163300525Y-37219785D01*
X163310971Y-37198570D01*
X163310586Y-37198357D01*
X163312726Y-37194498D01*
X163312737Y-37194483D01*
X163485033Y-36823990D01*
X163509784Y-36788603D01*
X164101571Y-36196819D01*
X164162894Y-36163334D01*
X164189252Y-36160500D01*
X170724974Y-36160500D01*
X170767505Y-36168022D01*
X171017565Y-36259329D01*
X171017567Y-36259329D01*
X171151314Y-36308165D01*
X171191824Y-36321054D01*
X171193226Y-36321227D01*
X171218956Y-36327246D01*
X171270745Y-36345368D01*
X171270749Y-36345368D01*
X171270751Y-36345369D01*
X171449996Y-36365565D01*
X171450000Y-36365565D01*
X171450004Y-36365565D01*
X171629249Y-36345369D01*
X171629252Y-36345368D01*
X171629255Y-36345368D01*
X171799522Y-36285789D01*
X171952262Y-36189816D01*
X172079816Y-36062262D01*
X172175789Y-35909522D01*
X172235368Y-35739255D01*
X172237276Y-35722320D01*
X172255565Y-35560003D01*
X172255565Y-35559996D01*
X172235369Y-35380750D01*
X172235368Y-35380745D01*
X172220151Y-35337257D01*
X172175789Y-35210478D01*
X172142814Y-35157998D01*
X182074435Y-35157998D01*
X182074435Y-35158005D01*
X182094630Y-35337251D01*
X182094631Y-35337256D01*
X182154211Y-35507525D01*
X182250184Y-35660264D01*
X182377738Y-35787818D01*
X182530478Y-35883791D01*
X182604013Y-35909522D01*
X182700745Y-35943370D01*
X182700750Y-35943371D01*
X182879996Y-35963567D01*
X182880000Y-35963567D01*
X182880004Y-35963567D01*
X183059249Y-35943371D01*
X183059252Y-35943370D01*
X183059255Y-35943370D01*
X183229522Y-35883791D01*
X183382262Y-35787818D01*
X183421112Y-35748966D01*
X183435267Y-35736799D01*
X183454938Y-35722320D01*
X183851119Y-35332451D01*
X183851303Y-35332270D01*
X183851370Y-35332204D01*
X183890221Y-35289278D01*
X183890227Y-35289267D01*
X183892687Y-35285934D01*
X183904792Y-35271863D01*
X184163020Y-35013634D01*
X184178616Y-35000423D01*
X184606109Y-34695071D01*
X184612199Y-34690989D01*
X184624331Y-34683365D01*
X184652262Y-34665816D01*
X184665515Y-34652561D01*
X184675035Y-34644165D01*
X184674987Y-34644108D01*
X184676903Y-34642491D01*
X184678349Y-34641271D01*
X184744938Y-34573387D01*
X184750106Y-34568119D01*
X184750121Y-34568134D01*
X184751406Y-34566670D01*
X184779816Y-34538262D01*
X184875789Y-34385522D01*
X184935368Y-34215255D01*
X184936127Y-34208518D01*
X184955565Y-34036003D01*
X184955565Y-34035996D01*
X184935369Y-33856750D01*
X184935368Y-33856745D01*
X184931259Y-33845002D01*
X184875789Y-33686478D01*
X184779816Y-33533738D01*
X184652262Y-33406184D01*
X184631713Y-33393272D01*
X184499523Y-33310211D01*
X184329254Y-33250631D01*
X184329249Y-33250630D01*
X184150004Y-33230435D01*
X184149996Y-33230435D01*
X183970750Y-33250630D01*
X183970745Y-33250631D01*
X183800476Y-33310211D01*
X183647737Y-33406184D01*
X183520186Y-33533735D01*
X183495028Y-33573772D01*
X183490939Y-33579869D01*
X183185570Y-34007386D01*
X183172348Y-34022994D01*
X182961279Y-34234063D01*
X182923278Y-34259995D01*
X182573165Y-34413091D01*
X182573149Y-34413099D01*
X182551306Y-34423924D01*
X182537208Y-34429857D01*
X182530481Y-34432211D01*
X182530480Y-34432211D01*
X182377737Y-34528186D01*
X182250184Y-34655739D01*
X182154211Y-34808478D01*
X182094631Y-34978747D01*
X182094630Y-34978752D01*
X182074435Y-35157998D01*
X172142814Y-35157998D01*
X172079816Y-35057738D01*
X171952262Y-34930184D01*
X171883553Y-34887011D01*
X171799523Y-34834211D01*
X171629254Y-34774631D01*
X171629249Y-34774630D01*
X171450004Y-34754435D01*
X171449996Y-34754435D01*
X171270746Y-34774631D01*
X171270745Y-34774631D01*
X171191764Y-34802267D01*
X171176338Y-34806569D01*
X171151314Y-34811833D01*
X170767503Y-34951978D01*
X170724972Y-34959500D01*
X164814112Y-34959500D01*
X164747073Y-34939815D01*
X164701318Y-34887011D01*
X164691374Y-34817853D01*
X164711010Y-34766609D01*
X164777161Y-34667606D01*
X164777161Y-34667605D01*
X164777165Y-34667600D01*
X164826201Y-34549217D01*
X164834382Y-34508088D01*
X164851200Y-34423544D01*
X164851200Y-34295401D01*
X164826202Y-34169734D01*
X164826201Y-34169733D01*
X164826201Y-34169729D01*
X164777165Y-34051346D01*
X164777164Y-34051345D01*
X164777161Y-34051339D01*
X164705976Y-33944804D01*
X164705973Y-33944800D01*
X164615372Y-33854199D01*
X164615368Y-33854196D01*
X164508833Y-33783011D01*
X164508824Y-33783006D01*
X164390444Y-33733972D01*
X164390438Y-33733970D01*
X164264771Y-33708973D01*
X164264769Y-33708973D01*
X164203604Y-33708973D01*
X164136565Y-33689288D01*
X164090810Y-33636484D01*
X164080866Y-33567326D01*
X164109891Y-33503770D01*
X164164392Y-33467336D01*
X164386584Y-33393272D01*
X165498036Y-33022787D01*
X165515083Y-33018424D01*
X166653951Y-32811757D01*
X166723427Y-32819155D01*
X166777874Y-32862941D01*
X166800006Y-32929213D01*
X166782796Y-32996929D01*
X166744982Y-33036866D01*
X166683805Y-33077743D01*
X166593204Y-33168344D01*
X166593201Y-33168348D01*
X166522016Y-33274883D01*
X166522011Y-33274892D01*
X166472977Y-33393272D01*
X166472975Y-33393278D01*
X166447978Y-33518945D01*
X166447978Y-33518948D01*
X166447978Y-33647086D01*
X166447978Y-33647088D01*
X166447977Y-33647088D01*
X166472975Y-33772755D01*
X166472977Y-33772761D01*
X166522011Y-33891141D01*
X166522016Y-33891150D01*
X166593201Y-33997685D01*
X166593204Y-33997689D01*
X166683805Y-34088290D01*
X166683809Y-34088293D01*
X166790344Y-34159478D01*
X166790350Y-34159481D01*
X166790351Y-34159482D01*
X166908734Y-34208518D01*
X166908738Y-34208518D01*
X166908739Y-34208519D01*
X167034406Y-34233517D01*
X167034409Y-34233517D01*
X167162549Y-34233517D01*
X167254384Y-34215249D01*
X167288222Y-34208518D01*
X167406605Y-34159482D01*
X167513147Y-34088293D01*
X167603754Y-33997686D01*
X167674943Y-33891144D01*
X167723979Y-33772761D01*
X167748978Y-33647086D01*
X167748978Y-33518948D01*
X167748978Y-33518945D01*
X167723980Y-33393278D01*
X167723979Y-33393277D01*
X167723979Y-33393273D01*
X167674943Y-33274890D01*
X167674942Y-33274889D01*
X167674939Y-33274883D01*
X167603754Y-33168348D01*
X167603751Y-33168344D01*
X167513150Y-33077743D01*
X167513146Y-33077740D01*
X167406611Y-33006555D01*
X167406602Y-33006550D01*
X167288222Y-32957516D01*
X167288217Y-32957514D01*
X167241935Y-32948308D01*
X167180024Y-32915922D01*
X167145451Y-32855206D01*
X167149192Y-32785436D01*
X167190059Y-32728765D01*
X167243984Y-32704685D01*
X172081181Y-31826892D01*
X172088837Y-31825749D01*
X180310002Y-30861539D01*
X180319222Y-30860806D01*
X187600001Y-30556383D01*
X187608807Y-30556330D01*
X194487794Y-30759399D01*
G37*
%TD.AperFunction*%
%TD*%
%TA.AperFunction,Conductor*%
%TO.N,+3V3*%
G36*
X143708362Y-51476871D02*
G01*
X143711630Y-51483221D01*
X143807737Y-52059866D01*
X143805717Y-52068589D01*
X143798119Y-52073330D01*
X143796235Y-52073489D01*
X143510039Y-52074443D01*
X143509961Y-52074443D01*
X143223764Y-52073489D01*
X143215502Y-52070035D01*
X143212103Y-52061750D01*
X143212260Y-52059878D01*
X143308370Y-51483219D01*
X143313111Y-51475623D01*
X143319911Y-51473444D01*
X143700089Y-51473444D01*
X143708362Y-51476871D01*
G37*
%TD.AperFunction*%
%TD*%
%TA.AperFunction,Conductor*%
%TO.N,+3V3*%
G36*
X143796235Y-50799954D02*
G01*
X143804497Y-50803408D01*
X143807896Y-50811693D01*
X143807737Y-50813577D01*
X143711630Y-51390223D01*
X143706889Y-51397821D01*
X143700089Y-51400000D01*
X143319911Y-51400000D01*
X143311638Y-51396573D01*
X143308370Y-51390223D01*
X143212262Y-50813574D01*
X143214282Y-50804854D01*
X143221880Y-50800113D01*
X143223762Y-50799954D01*
X143510000Y-50799000D01*
X143796235Y-50799954D01*
G37*
%TD.AperFunction*%
%TD*%
%TA.AperFunction,Conductor*%
%TO.N,+3V3*%
G36*
X220276638Y-57978105D02*
G01*
X220284069Y-57983102D01*
X220286022Y-57989574D01*
X220286022Y-58369765D01*
X220282595Y-58378038D01*
X220275878Y-58381361D01*
X219703211Y-58458226D01*
X219694556Y-58455930D01*
X219690059Y-58448186D01*
X219689955Y-58446677D01*
X219689007Y-58162362D01*
X219689909Y-58157822D01*
X219801104Y-57891692D01*
X219807455Y-57885382D01*
X219814215Y-57884736D01*
X220276638Y-57978105D01*
G37*
%TD.AperFunction*%
%TD*%
%TA.AperFunction,Conductor*%
%TO.N,+3V3*%
G36*
X216695145Y-57904282D02*
G01*
X216699886Y-57911880D01*
X216700045Y-57913764D01*
X216701000Y-58200000D01*
X216701000Y-58200078D01*
X216700045Y-58486235D01*
X216696590Y-58494497D01*
X216688306Y-58497896D01*
X216686422Y-58497737D01*
X216109777Y-58401629D01*
X216102179Y-58396888D01*
X216100000Y-58390088D01*
X216100000Y-58009911D01*
X216103427Y-58001638D01*
X216109775Y-57998370D01*
X216686424Y-57902262D01*
X216695145Y-57904282D01*
G37*
%TD.AperFunction*%
%TD*%
%TA.AperFunction,Conductor*%
%TO.N,+3V3*%
G36*
X234072108Y-66959549D02*
G01*
X234340948Y-67228389D01*
X234344375Y-67236662D01*
X234342438Y-67243109D01*
X234082467Y-67636773D01*
X234075049Y-67641789D01*
X234068260Y-67641149D01*
X233801483Y-67531606D01*
X233797626Y-67529029D01*
X233597244Y-67327306D01*
X233593845Y-67319021D01*
X233597299Y-67310759D01*
X233598421Y-67309780D01*
X234056721Y-66958535D01*
X234065369Y-66956223D01*
X234072108Y-66959549D01*
G37*
%TD.AperFunction*%
%TD*%
%TA.AperFunction,Conductor*%
%TO.N,+3V3*%
G36*
X219574321Y-57886579D02*
G01*
X219579055Y-57892075D01*
X219690088Y-58157817D01*
X219690992Y-58162367D01*
X219690043Y-58447098D01*
X219686589Y-58455360D01*
X219678304Y-58458759D01*
X219677163Y-58458699D01*
X219108476Y-58401066D01*
X219100591Y-58396823D01*
X219097956Y-58389426D01*
X219097956Y-58009175D01*
X219101383Y-58000902D01*
X219106864Y-57997812D01*
X219565470Y-57885223D01*
X219574321Y-57886579D01*
G37*
%TD.AperFunction*%
%TD*%
%TA.AperFunction,Conductor*%
%TO.N,+3V3*%
G36*
X216713566Y-57902261D02*
G01*
X217290224Y-57998370D01*
X217297821Y-58003111D01*
X217300000Y-58009911D01*
X217300000Y-58390088D01*
X217296573Y-58398361D01*
X217290223Y-58401629D01*
X216713577Y-58497737D01*
X216704854Y-58495717D01*
X216700113Y-58488119D01*
X216699954Y-58486235D01*
X216699661Y-58398361D01*
X216699000Y-58200000D01*
X216699954Y-57913763D01*
X216703408Y-57905502D01*
X216711693Y-57902103D01*
X216713566Y-57902261D01*
G37*
%TD.AperFunction*%
%TD*%
%TA.AperFunction,Conductor*%
%TO.N,+3V3*%
G36*
X183227767Y-34686680D02*
G01*
X183496625Y-34955538D01*
X183500052Y-34963811D01*
X183496625Y-34972084D01*
X183496558Y-34972150D01*
X183100377Y-35362019D01*
X183092077Y-35365380D01*
X183083925Y-35361981D01*
X182880970Y-35160375D01*
X182878393Y-35156518D01*
X182769539Y-34891417D01*
X182769566Y-34882464D01*
X182775672Y-34876256D01*
X183214808Y-34684232D01*
X183223760Y-34684058D01*
X183227767Y-34686680D01*
G37*
%TD.AperFunction*%
%TD*%
%TA.AperFunction,Conductor*%
%TO.N,+3V3*%
G36*
X183946187Y-33832348D02*
G01*
X183947633Y-33833568D01*
X184150707Y-34035293D01*
X184150762Y-34035348D01*
X184352431Y-34238366D01*
X184355830Y-34246651D01*
X184352376Y-34254913D01*
X184350930Y-34256133D01*
X183875222Y-34595924D01*
X183866499Y-34597944D01*
X183860149Y-34594676D01*
X183591323Y-34325850D01*
X183587896Y-34317577D01*
X183590074Y-34310778D01*
X183929868Y-33835067D01*
X183937464Y-33830328D01*
X183946187Y-33832348D01*
G37*
%TD.AperFunction*%
%TD*%
%TA.AperFunction,Conductor*%
%TO.N,+3V3*%
G36*
X207338566Y-45027261D02*
G01*
X207915224Y-45123370D01*
X207922821Y-45128111D01*
X207925000Y-45134911D01*
X207925000Y-45515088D01*
X207921573Y-45523361D01*
X207915223Y-45526629D01*
X207338577Y-45622737D01*
X207329854Y-45620717D01*
X207325113Y-45613119D01*
X207324954Y-45611235D01*
X207324661Y-45523361D01*
X207324000Y-45325000D01*
X207324954Y-45038763D01*
X207328408Y-45030502D01*
X207336693Y-45027103D01*
X207338566Y-45027261D01*
G37*
%TD.AperFunction*%
%TD*%
%TA.AperFunction,Conductor*%
%TO.N,+3V3*%
G36*
X213389850Y-58113323D02*
G01*
X213658676Y-58382149D01*
X213662103Y-58390422D01*
X213659924Y-58397222D01*
X213320133Y-58872930D01*
X213312535Y-58877671D01*
X213303812Y-58875651D01*
X213302366Y-58874431D01*
X213099293Y-58672707D01*
X213099238Y-58672652D01*
X212897568Y-58469633D01*
X212894169Y-58461348D01*
X212897623Y-58453086D01*
X212899059Y-58451874D01*
X213374778Y-58112074D01*
X213383500Y-58110055D01*
X213389850Y-58113323D01*
G37*
%TD.AperFunction*%
%TD*%
%TA.AperFunction,Conductor*%
%TO.N,+3V3*%
G36*
X207121187Y-45121348D02*
G01*
X207122633Y-45122568D01*
X207325707Y-45324293D01*
X207325762Y-45324348D01*
X207527431Y-45527366D01*
X207530830Y-45535651D01*
X207527376Y-45543913D01*
X207525930Y-45545133D01*
X207050222Y-45884924D01*
X207041499Y-45886944D01*
X207035149Y-45883676D01*
X206766323Y-45614850D01*
X206762896Y-45606577D01*
X206765074Y-45599778D01*
X207104868Y-45124067D01*
X207112464Y-45119328D01*
X207121187Y-45121348D01*
G37*
%TD.AperFunction*%
%TD*%
%TA.AperFunction,Conductor*%
%TO.N,+3V3*%
G36*
X204854633Y-47523954D02*
G01*
X205123502Y-47792823D01*
X205126929Y-47801096D01*
X205123516Y-47809355D01*
X204730377Y-48203857D01*
X204722110Y-48207298D01*
X204713844Y-48203899D01*
X204510970Y-48002373D01*
X204508393Y-47998516D01*
X204430721Y-47809355D01*
X204399490Y-47733295D01*
X204399517Y-47724342D01*
X204405501Y-47718188D01*
X204841551Y-47521560D01*
X204850501Y-47521284D01*
X204854633Y-47523954D01*
G37*
%TD.AperFunction*%
%TD*%
%TA.AperFunction,Conductor*%
%TO.N,+3V3*%
G36*
X211009718Y-44901410D02*
G01*
X211014459Y-44909008D01*
X211014618Y-44910892D01*
X211015573Y-45197128D01*
X211015573Y-45197206D01*
X211014618Y-45483363D01*
X211011163Y-45491625D01*
X211002879Y-45495024D01*
X211000995Y-45494865D01*
X210424350Y-45398757D01*
X210416752Y-45394016D01*
X210414573Y-45387216D01*
X210414573Y-45007039D01*
X210418000Y-44998766D01*
X210424348Y-44995498D01*
X211000997Y-44899390D01*
X211009718Y-44901410D01*
G37*
%TD.AperFunction*%
%TD*%
%TA.AperFunction,Conductor*%
%TO.N,+3V3*%
G36*
X235660838Y-64522646D02*
G01*
X235669100Y-64526100D01*
X235672499Y-64534385D01*
X235672340Y-64536269D01*
X235576233Y-65112915D01*
X235571492Y-65120513D01*
X235564692Y-65122692D01*
X235184514Y-65122692D01*
X235176241Y-65119265D01*
X235172973Y-65112915D01*
X235076865Y-64536266D01*
X235078885Y-64527546D01*
X235086483Y-64522805D01*
X235088365Y-64522646D01*
X235374603Y-64521692D01*
X235660838Y-64522646D01*
G37*
%TD.AperFunction*%
%TD*%
%TA.AperFunction,Conductor*%
%TO.N,+3V3*%
G36*
X225825221Y-58140074D02*
G01*
X226300930Y-58479867D01*
X226305671Y-58487464D01*
X226303651Y-58496187D01*
X226302431Y-58497633D01*
X226100762Y-58700652D01*
X226100707Y-58700707D01*
X225897633Y-58902431D01*
X225889348Y-58905830D01*
X225881086Y-58902376D01*
X225879869Y-58900934D01*
X225540074Y-58425221D01*
X225538055Y-58416499D01*
X225541321Y-58410151D01*
X225810150Y-58141322D01*
X225818422Y-58137896D01*
X225825221Y-58140074D01*
G37*
%TD.AperFunction*%
%TD*%
%TA.AperFunction,Conductor*%
%TO.N,RESET*%
G36*
X204021159Y-46254953D02*
G01*
X204029419Y-46258407D01*
X204032818Y-46266692D01*
X204032648Y-46268641D01*
X203936674Y-46825397D01*
X203931892Y-46832967D01*
X203925144Y-46835109D01*
X203741650Y-46835109D01*
X203733377Y-46831682D01*
X203731598Y-46829397D01*
X203464737Y-46381390D01*
X203463447Y-46372528D01*
X203468801Y-46365350D01*
X203470272Y-46364608D01*
X203732822Y-46254909D01*
X203737362Y-46254007D01*
X204021159Y-46254953D01*
G37*
%TD.AperFunction*%
%TD*%
%TA.AperFunction,Conductor*%
%TO.N,RESET*%
G36*
X208675404Y-52113407D02*
G01*
X208869738Y-52192972D01*
X208876096Y-52199278D01*
X208876133Y-52199367D01*
X208955697Y-52393699D01*
X208955660Y-52402654D01*
X208950450Y-52408415D01*
X208633759Y-52580278D01*
X208624853Y-52581212D01*
X208619905Y-52578268D01*
X208490837Y-52449200D01*
X208487410Y-52440927D01*
X208488826Y-52435348D01*
X208660692Y-52118653D01*
X208667648Y-52113019D01*
X208675404Y-52113407D01*
G37*
%TD.AperFunction*%
%TD*%
%TA.AperFunction,Conductor*%
%TO.N,Net-(D7-K)*%
G36*
X222859339Y-51910812D02*
G01*
X222989187Y-52040660D01*
X222992614Y-52048933D01*
X222991523Y-52053867D01*
X222781877Y-52504670D01*
X222775281Y-52510726D01*
X222766824Y-52510559D01*
X222503815Y-52402563D01*
X222497463Y-52396251D01*
X222497436Y-52396184D01*
X222389440Y-52133175D01*
X222389467Y-52124220D01*
X222395326Y-52118124D01*
X222846134Y-51908475D01*
X222855079Y-51908095D01*
X222859339Y-51910812D01*
G37*
%TD.AperFunction*%
%TD*%
%TA.AperFunction,Conductor*%
%TO.N,Net-(D7-K)*%
G36*
X225366851Y-47608496D02*
G01*
X225373163Y-47614848D01*
X225373330Y-47623305D01*
X225202807Y-48090313D01*
X225196751Y-48096909D01*
X225191817Y-48098000D01*
X225008183Y-48098000D01*
X224999910Y-48094573D01*
X224997193Y-48090313D01*
X224826669Y-47623302D01*
X224827050Y-47614358D01*
X224833147Y-47608496D01*
X225095490Y-47498883D01*
X225104444Y-47498857D01*
X225366851Y-47608496D01*
G37*
%TD.AperFunction*%
%TD*%
%TA.AperFunction,Conductor*%
%TO.N,VBAT*%
G36*
X240967470Y-65910754D02*
G01*
X240973782Y-65917106D01*
X240974176Y-65924877D01*
X240802387Y-66504091D01*
X240796749Y-66511048D01*
X240787843Y-66511981D01*
X240782897Y-66509037D01*
X240516122Y-66242262D01*
X240513129Y-66237145D01*
X240425631Y-65924783D01*
X240426699Y-65915895D01*
X240432404Y-65910827D01*
X240696206Y-65801163D01*
X240705159Y-65801153D01*
X240967470Y-65910754D01*
G37*
%TD.AperFunction*%
%TD*%
%TA.AperFunction,Conductor*%
%TO.N,VBAT*%
G36*
X236417850Y-70350217D02*
G01*
X236686676Y-70619043D01*
X236690103Y-70627316D01*
X236687924Y-70634116D01*
X236348133Y-71109824D01*
X236340535Y-71114565D01*
X236331812Y-71112545D01*
X236330366Y-71111325D01*
X236127293Y-70909601D01*
X236127238Y-70909546D01*
X235925568Y-70706527D01*
X235922169Y-70698242D01*
X235925623Y-70689980D01*
X235927059Y-70688768D01*
X236402778Y-70348968D01*
X236411500Y-70346949D01*
X236417850Y-70350217D01*
G37*
%TD.AperFunction*%
%TD*%
%TA.AperFunction,Conductor*%
%TO.N,SAOGP1*%
G36*
X259498641Y-108947050D02*
G01*
X259504503Y-108953148D01*
X259614115Y-109215489D01*
X259614142Y-109224444D01*
X259614115Y-109224511D01*
X259504503Y-109486851D01*
X259498151Y-109493163D01*
X259489694Y-109493329D01*
X259455119Y-109480705D01*
X259382746Y-109454278D01*
X259380434Y-109453131D01*
X259290053Y-109395047D01*
X259290054Y-109395047D01*
X259151962Y-109354500D01*
X259151961Y-109354500D01*
X259111553Y-109354500D01*
X259107540Y-109353790D01*
X259022687Y-109322806D01*
X259016091Y-109316750D01*
X259015000Y-109311816D01*
X259015000Y-109128183D01*
X259018427Y-109119910D01*
X259022687Y-109117193D01*
X259489697Y-108946669D01*
X259498641Y-108947050D01*
G37*
%TD.AperFunction*%
%TD*%
%TA.AperFunction,Conductor*%
%TO.N,SAOGP1*%
G36*
X256504412Y-109766704D02*
G01*
X256507209Y-109768771D01*
X256636162Y-109897724D01*
X256638257Y-109900575D01*
X257304372Y-111174388D01*
X257305169Y-111183308D01*
X257299426Y-111190178D01*
X257298486Y-111190617D01*
X256528780Y-111509846D01*
X256519825Y-111509850D01*
X256519809Y-111509844D01*
X255751564Y-111190647D01*
X255745239Y-111184308D01*
X255745248Y-111175353D01*
X255745703Y-111174387D01*
X256488597Y-109771567D01*
X256495497Y-109765861D01*
X256504412Y-109766704D01*
G37*
%TD.AperFunction*%
%TD*%
%TA.AperFunction,Conductor*%
%TO.N,SAOCLK*%
G36*
X259355779Y-109744467D02*
G01*
X259361877Y-109750329D01*
X259571523Y-110201132D01*
X259571904Y-110210079D01*
X259569187Y-110214339D01*
X259439339Y-110344187D01*
X259431066Y-110347614D01*
X259426132Y-110346523D01*
X259132736Y-110210079D01*
X258975328Y-110136876D01*
X258969273Y-110130281D01*
X258969439Y-110121825D01*
X259077436Y-109858814D01*
X259083746Y-109852464D01*
X259346825Y-109744440D01*
X259355779Y-109744467D01*
G37*
%TD.AperFunction*%
%TD*%
%TA.AperFunction,Conductor*%
%TO.N,SAOCLK*%
G36*
X260307547Y-112830772D02*
G01*
X260310974Y-112839045D01*
X260310481Y-112842407D01*
X259854014Y-114363891D01*
X259848354Y-114370831D01*
X259839445Y-114371736D01*
X259838341Y-114371343D01*
X259069488Y-114053853D01*
X259063150Y-114047529D01*
X258744582Y-113277457D01*
X258744586Y-113268503D01*
X258750920Y-113262174D01*
X258751828Y-113261842D01*
X260113265Y-112827897D01*
X260116818Y-112827345D01*
X260299274Y-112827345D01*
X260307547Y-112830772D01*
G37*
%TD.AperFunction*%
%TD*%
%TA.AperFunction,Conductor*%
%TO.N,SWITCH2*%
G36*
X171333641Y-35287050D02*
G01*
X171339503Y-35293148D01*
X171449115Y-35555489D01*
X171449142Y-35564444D01*
X171449115Y-35564511D01*
X171339503Y-35826851D01*
X171333151Y-35833163D01*
X171324694Y-35833329D01*
X171190947Y-35784493D01*
X170857687Y-35662806D01*
X170851091Y-35656750D01*
X170850000Y-35651816D01*
X170850000Y-35468183D01*
X170853427Y-35459910D01*
X170857687Y-35457193D01*
X171324697Y-35286669D01*
X171333641Y-35287050D01*
G37*
%TD.AperFunction*%
%TD*%
%TA.AperFunction,Conductor*%
%TO.N,SWITCH2*%
G36*
X162931840Y-36387465D02*
G01*
X163061688Y-36517313D01*
X163065115Y-36525586D01*
X163064024Y-36530520D01*
X162854378Y-36981323D01*
X162847782Y-36987379D01*
X162839325Y-36987212D01*
X162576316Y-36879216D01*
X162569964Y-36872904D01*
X162569937Y-36872837D01*
X162461941Y-36609828D01*
X162461968Y-36600873D01*
X162467827Y-36594777D01*
X162918635Y-36385128D01*
X162927580Y-36384748D01*
X162931840Y-36387465D01*
G37*
%TD.AperFunction*%
%TD*%
%TA.AperFunction,Conductor*%
%TO.N,Net-(SW5-B)*%
G36*
X235796658Y-67978708D02*
G01*
X235798060Y-67979905D01*
X235927175Y-68109020D01*
X235930426Y-68115270D01*
X236009596Y-68566309D01*
X236007651Y-68575050D01*
X236000095Y-68579856D01*
X235998100Y-68580032D01*
X235716179Y-68580695D01*
X235707897Y-68577288D01*
X235707850Y-68577241D01*
X235506881Y-68374928D01*
X235503482Y-68366643D01*
X235505710Y-68359814D01*
X235780318Y-67981306D01*
X235787949Y-67976623D01*
X235796658Y-67978708D01*
G37*
%TD.AperFunction*%
%TD*%
%TA.AperFunction,Conductor*%
%TO.N,Net-(SW5-B)*%
G36*
X237933174Y-65589439D02*
G01*
X238096804Y-65656629D01*
X238196184Y-65697436D01*
X238202536Y-65703748D01*
X238202563Y-65703815D01*
X238310559Y-65966824D01*
X238310532Y-65975779D01*
X238304670Y-65981877D01*
X237853867Y-66191523D01*
X237844920Y-66191904D01*
X237840660Y-66189187D01*
X237710812Y-66059339D01*
X237707385Y-66051066D01*
X237708474Y-66046136D01*
X237918124Y-65595327D01*
X237924718Y-65589273D01*
X237933174Y-65589439D01*
G37*
%TD.AperFunction*%
%TD*%
%TA.AperFunction,Conductor*%
%TO.N,/SWCLK_1*%
G36*
X212288980Y-54324660D02*
G01*
X212452610Y-54391850D01*
X212551990Y-54432657D01*
X212558342Y-54438969D01*
X212558369Y-54439036D01*
X212666365Y-54702045D01*
X212666338Y-54711000D01*
X212660476Y-54717098D01*
X212209673Y-54926744D01*
X212200726Y-54927125D01*
X212196466Y-54924408D01*
X212066618Y-54794560D01*
X212063191Y-54786287D01*
X212064280Y-54781357D01*
X212273930Y-54330548D01*
X212280524Y-54324494D01*
X212288980Y-54324660D01*
G37*
%TD.AperFunction*%
%TD*%
%TA.AperFunction,Conductor*%
%TO.N,/SWCLK_1*%
G36*
X209065386Y-55099136D02*
G01*
X209149859Y-55111285D01*
X209154512Y-55113020D01*
X209196420Y-55139953D01*
X209285548Y-55166123D01*
X209334511Y-55180500D01*
X209334512Y-55180500D01*
X209478435Y-55180500D01*
X209486496Y-55178132D01*
X209526189Y-55166477D01*
X209531142Y-55166123D01*
X209617594Y-55178557D01*
X209625294Y-55183126D01*
X209627627Y-55190137D01*
X209627627Y-55373591D01*
X209624200Y-55381864D01*
X209622226Y-55383450D01*
X209178612Y-55666891D01*
X209169796Y-55668458D01*
X209162454Y-55663331D01*
X209161517Y-55661543D01*
X209150346Y-55634807D01*
X209051988Y-55399400D01*
X209051085Y-55394858D01*
X209052033Y-55110678D01*
X209055487Y-55102417D01*
X209063772Y-55099018D01*
X209065386Y-55099136D01*
G37*
%TD.AperFunction*%
%TD*%
%TA.AperFunction,Conductor*%
%TO.N,/SWD_1*%
G36*
X209998786Y-54577193D02*
G01*
X210005382Y-54583249D01*
X210006473Y-54588183D01*
X210006473Y-54771816D01*
X210003046Y-54780089D01*
X209998786Y-54782806D01*
X209531778Y-54953330D01*
X209522831Y-54952949D01*
X209516969Y-54946851D01*
X209407356Y-54684509D01*
X209407330Y-54675556D01*
X209407335Y-54675542D01*
X209516969Y-54413147D01*
X209523321Y-54406836D01*
X209531775Y-54406669D01*
X209998786Y-54577193D01*
G37*
%TD.AperFunction*%
%TD*%
%TA.AperFunction,Conductor*%
%TO.N,/SWD_1*%
G36*
X211688982Y-53724660D02*
G01*
X211852612Y-53791850D01*
X211951992Y-53832657D01*
X211958344Y-53838969D01*
X211958371Y-53839036D01*
X212066367Y-54102045D01*
X212066340Y-54111000D01*
X212060478Y-54117098D01*
X211609675Y-54326744D01*
X211600728Y-54327125D01*
X211596468Y-54324408D01*
X211466620Y-54194560D01*
X211463193Y-54186287D01*
X211464282Y-54181357D01*
X211673932Y-53730548D01*
X211680526Y-53724494D01*
X211688982Y-53724660D01*
G37*
%TD.AperFunction*%
%TD*%
M02*
