%TF.GenerationSoftware,KiCad,Pcbnew,8.0.4-8.0.4-0~ubuntu22.04.1*%
%TF.CreationDate,2024-11-20T16:55:02+01:00*%
%TF.ProjectId,HH2025badge,48483230-3235-4626-9164-67652e6b6963,rev?*%
%TF.SameCoordinates,Original*%
%TF.FileFunction,Legend,Bot*%
%TF.FilePolarity,Positive*%
%FSLAX46Y46*%
G04 Gerber Fmt 4.6, Leading zero omitted, Abs format (unit mm)*
G04 Created by KiCad (PCBNEW 8.0.4-8.0.4-0~ubuntu22.04.1) date 2024-11-20 16:55:02*
%MOMM*%
%LPD*%
G01*
G04 APERTURE LIST*
%ADD10C,0.000000*%
G04 APERTURE END LIST*
D10*
G36*
X187853437Y-27780947D02*
G01*
X193168942Y-27863157D01*
X195499714Y-27906395D01*
X196669218Y-27944655D01*
X197839287Y-27998263D01*
X199008287Y-28070412D01*
X200174582Y-28164289D01*
X201336538Y-28283087D01*
X202492521Y-28429998D01*
X204449870Y-28720860D01*
X206401889Y-29047166D01*
X208347514Y-29411842D01*
X210285681Y-29817810D01*
X212215324Y-30267999D01*
X214135379Y-30765331D01*
X216044782Y-31312733D01*
X217942469Y-31913130D01*
X222142713Y-33334632D01*
X224227764Y-34074441D01*
X226296428Y-34852770D01*
X228343954Y-35683975D01*
X230365588Y-36582417D01*
X231365211Y-37061340D01*
X232356578Y-37562456D01*
X233339095Y-38087561D01*
X234312170Y-38638449D01*
X238604133Y-41144501D01*
X239668288Y-41785543D01*
X240724118Y-42442957D01*
X241769227Y-43122023D01*
X242801222Y-43828021D01*
X243635944Y-44437215D01*
X244455500Y-45071175D01*
X245263577Y-45723671D01*
X246063863Y-46388475D01*
X247655805Y-47730084D01*
X248454837Y-48394432D01*
X249260823Y-49046169D01*
X250389623Y-49958468D01*
X251493779Y-50894923D01*
X252573804Y-51854772D01*
X253630211Y-52837257D01*
X254663513Y-53841620D01*
X255674224Y-54867098D01*
X256662855Y-55912934D01*
X257629920Y-56978366D01*
X258575934Y-58062635D01*
X259501408Y-59164983D01*
X261292789Y-61420873D01*
X263008168Y-63739956D01*
X264651650Y-66116157D01*
X265143127Y-66869848D01*
X265619358Y-67631298D01*
X266081360Y-68399991D01*
X266530148Y-69175409D01*
X267392149Y-70744353D01*
X268213495Y-72333989D01*
X269002314Y-73940179D01*
X269766740Y-75558786D01*
X271254935Y-78816692D01*
X271534432Y-79445136D01*
X271799434Y-80077001D01*
X272049885Y-80712442D01*
X272285726Y-81351616D01*
X272506902Y-81994680D01*
X272713355Y-82641790D01*
X272905029Y-83293104D01*
X273081865Y-83948778D01*
X273243808Y-84608968D01*
X273390799Y-85273831D01*
X273522783Y-85943525D01*
X273639702Y-86618205D01*
X273741499Y-87298028D01*
X273828116Y-87983152D01*
X273899498Y-88673732D01*
X273955587Y-89369925D01*
X274000348Y-90114061D01*
X274026718Y-90853632D01*
X274034464Y-91588790D01*
X274023353Y-92319689D01*
X273993153Y-93046478D01*
X273943631Y-93769309D01*
X273874554Y-94488336D01*
X273785689Y-95203710D01*
X273676804Y-95915583D01*
X273547666Y-96624106D01*
X273398043Y-97329433D01*
X273227701Y-98031714D01*
X273036407Y-98731101D01*
X272823930Y-99427746D01*
X272590036Y-100121802D01*
X272334492Y-100813421D01*
X272136896Y-101299971D01*
X271932007Y-101780555D01*
X271721346Y-102256199D01*
X271506429Y-102727929D01*
X270634615Y-104596230D01*
X267763683Y-110819868D01*
X266867942Y-112740033D01*
X266654357Y-113227391D01*
X266452130Y-113721248D01*
X266264869Y-114223391D01*
X266177979Y-114478128D01*
X266096183Y-114735605D01*
X265641756Y-116262582D01*
X265231663Y-117799068D01*
X264861002Y-119344228D01*
X264524874Y-120897223D01*
X264218375Y-122457217D01*
X263936607Y-124023372D01*
X263427660Y-127170821D01*
X262517487Y-132860288D01*
X262414312Y-133505228D01*
X262395528Y-133610089D01*
X262371967Y-133709545D01*
X262358352Y-133757266D01*
X262343489Y-133803661D01*
X262327361Y-133848738D01*
X262309950Y-133892505D01*
X262291238Y-133934970D01*
X262271207Y-133976142D01*
X262249840Y-134016029D01*
X262227118Y-134054639D01*
X262203026Y-134091981D01*
X262177542Y-134128063D01*
X262150652Y-134162894D01*
X262122336Y-134196481D01*
X262092576Y-134228832D01*
X262061355Y-134259957D01*
X262028655Y-134289864D01*
X261994458Y-134318560D01*
X261958748Y-134346055D01*
X261921504Y-134372355D01*
X261882710Y-134397470D01*
X261842349Y-134421408D01*
X261800401Y-134444179D01*
X261756851Y-134465788D01*
X261711678Y-134486245D01*
X261664866Y-134505559D01*
X261616398Y-134523737D01*
X261566254Y-134540787D01*
X261514417Y-134556719D01*
X261460871Y-134571540D01*
X260118613Y-134930999D01*
X259888565Y-134979205D01*
X259660433Y-135019058D01*
X259434232Y-135050031D01*
X259209975Y-135071598D01*
X258987678Y-135083230D01*
X258767355Y-135084401D01*
X258549020Y-135074584D01*
X258332688Y-135053251D01*
X258118373Y-135019877D01*
X257906090Y-134973933D01*
X257695852Y-134914892D01*
X257487674Y-134842226D01*
X257281572Y-134755410D01*
X257077557Y-134653917D01*
X256875647Y-134537217D01*
X256675854Y-134404786D01*
X255967642Y-133909777D01*
X255791537Y-133789918D01*
X255613837Y-133671847D01*
X255433552Y-133555673D01*
X255249695Y-133441514D01*
X254816921Y-133174603D01*
X254378937Y-132923305D01*
X253500571Y-132436401D01*
X253066806Y-132185220D01*
X252852723Y-132054292D01*
X252641059Y-131918504D01*
X252432228Y-131776887D01*
X252226642Y-131628467D01*
X252024715Y-131472269D01*
X251826861Y-131307319D01*
X251664497Y-131188282D01*
X251585860Y-131130873D01*
X251507601Y-131075023D01*
X251428734Y-131020843D01*
X251348271Y-130968449D01*
X251265223Y-130917953D01*
X251178605Y-130869470D01*
X251093535Y-130820986D01*
X251015698Y-130770346D01*
X250944957Y-130717436D01*
X250912204Y-130690097D01*
X250881173Y-130662149D01*
X250851848Y-130633581D01*
X250824210Y-130604377D01*
X250798242Y-130574524D01*
X250773929Y-130544008D01*
X250751251Y-130512816D01*
X250730193Y-130480936D01*
X250710735Y-130448350D01*
X250692863Y-130415048D01*
X250676558Y-130381014D01*
X250661803Y-130346237D01*
X250648581Y-130310701D01*
X250636874Y-130274394D01*
X250626666Y-130237300D01*
X250617940Y-130199409D01*
X250610678Y-130160704D01*
X250604861Y-130121172D01*
X250597502Y-130039576D01*
X250595723Y-129954510D01*
X250599387Y-129865865D01*
X250608356Y-129773531D01*
X250835600Y-128025850D01*
X251095671Y-126271190D01*
X251384922Y-124519578D01*
X251699698Y-122781040D01*
X251929491Y-121651515D01*
X252182343Y-120527543D01*
X252724250Y-118288044D01*
X253259472Y-116046112D01*
X253503968Y-114919099D01*
X253722062Y-113785316D01*
X253789743Y-113401092D01*
X253862856Y-113018846D01*
X254020364Y-112258460D01*
X254345411Y-110741339D01*
X254370227Y-110671423D01*
X254382170Y-110634492D01*
X254393069Y-110596531D01*
X254402373Y-110557751D01*
X254409530Y-110518369D01*
X254412131Y-110498517D01*
X254413989Y-110478595D01*
X254415035Y-110458629D01*
X254415201Y-110438646D01*
X254414416Y-110418672D01*
X254412613Y-110398732D01*
X254409723Y-110378856D01*
X254405675Y-110359069D01*
X254400403Y-110339399D01*
X254393837Y-110319871D01*
X254385907Y-110300512D01*
X254376546Y-110281350D01*
X254365684Y-110262409D01*
X254353252Y-110243718D01*
X254339182Y-110225305D01*
X254323404Y-110207192D01*
X254305851Y-110189410D01*
X254286452Y-110171984D01*
X254265140Y-110154941D01*
X254241844Y-110138306D01*
X254157343Y-110083004D01*
X254076190Y-110025489D01*
X253998011Y-109965980D01*
X253922430Y-109904696D01*
X253849073Y-109841854D01*
X253777563Y-109777674D01*
X253638586Y-109646171D01*
X253366294Y-109376707D01*
X253226976Y-109242240D01*
X253155210Y-109175837D01*
X253081539Y-109110278D01*
X252069717Y-108177461D01*
X251091865Y-107216311D01*
X250149735Y-106224628D01*
X249692612Y-105716648D01*
X249245074Y-105200208D01*
X248807340Y-104675033D01*
X248379629Y-104140847D01*
X247962160Y-103597375D01*
X247555151Y-103044342D01*
X247158820Y-102481473D01*
X246773385Y-101908492D01*
X246399066Y-101325122D01*
X246036081Y-100731091D01*
X245063488Y-99143348D01*
X244073985Y-97566961D01*
X243065557Y-96003559D01*
X242036192Y-94454778D01*
X240983875Y-92922251D01*
X239906593Y-91407611D01*
X238802331Y-89912489D01*
X237669077Y-88438521D01*
X237140394Y-87741491D01*
X236620525Y-87041044D01*
X235587778Y-85641749D01*
X235065174Y-84948824D01*
X234531928Y-84264332D01*
X233983181Y-83591231D01*
X233414066Y-82932486D01*
X232664955Y-82136618D01*
X231888139Y-81371361D01*
X231087230Y-80633299D01*
X230265837Y-79919013D01*
X229427570Y-79225084D01*
X228576039Y-78548095D01*
X227714855Y-77884628D01*
X226847625Y-77231263D01*
X225781193Y-76453030D01*
X224699138Y-75706019D01*
X223601346Y-74989244D01*
X222487703Y-74301718D01*
X221358096Y-73642453D01*
X220212411Y-73010461D01*
X219050533Y-72404755D01*
X217872350Y-71824345D01*
X216992544Y-71412475D01*
X216104525Y-71023169D01*
X215209814Y-70652249D01*
X214309932Y-70295537D01*
X210689112Y-68927188D01*
X208578472Y-68163002D01*
X206452160Y-67462672D01*
X204309719Y-66827455D01*
X202150694Y-66258604D01*
X199974630Y-65757372D01*
X197781070Y-65325013D01*
X195569557Y-64962781D01*
X193339636Y-64671928D01*
X190285343Y-64330018D01*
X187223139Y-64030659D01*
X185688118Y-63906052D01*
X184149974Y-63803024D01*
X182608327Y-63725219D01*
X181062797Y-63676287D01*
X179656546Y-63653362D01*
X178252868Y-63664971D01*
X176851006Y-63702795D01*
X175450202Y-63758513D01*
X172648742Y-63890352D01*
X171246570Y-63949833D01*
X169842427Y-63993928D01*
X159258674Y-64351466D01*
X148682194Y-64772230D01*
X147220301Y-64821800D01*
X145755487Y-64854692D01*
X142821191Y-64885181D01*
X136962630Y-64908171D01*
X136812833Y-64903721D01*
X136665082Y-64893804D01*
X136519604Y-64877972D01*
X136376621Y-64855773D01*
X136236356Y-64826754D01*
X136099032Y-64790467D01*
X135964875Y-64746458D01*
X135834105Y-64694277D01*
X135706947Y-64633474D01*
X135583624Y-64563597D01*
X135464360Y-64484193D01*
X135349378Y-64394815D01*
X135238899Y-64295009D01*
X135133151Y-64184324D01*
X135032353Y-64062311D01*
X134936731Y-63928515D01*
X134660630Y-63523905D01*
X134524382Y-63319890D01*
X134390300Y-63113824D01*
X134259106Y-62905024D01*
X134131521Y-62692804D01*
X134008269Y-62476484D01*
X133890070Y-62255378D01*
X133695009Y-61831489D01*
X137550255Y-61831489D01*
X137550921Y-61855838D01*
X137552758Y-61881278D01*
X137555785Y-61907832D01*
X137560026Y-61935524D01*
X137570336Y-62007418D01*
X137578346Y-62078476D01*
X137584268Y-62148774D01*
X137588311Y-62218387D01*
X137590681Y-62287393D01*
X137591588Y-62355866D01*
X137589852Y-62491520D01*
X137566188Y-63028046D01*
X137563737Y-63077790D01*
X137563852Y-63123734D01*
X137566742Y-63165956D01*
X137569292Y-63185695D01*
X137572615Y-63204532D01*
X137576735Y-63222476D01*
X137581681Y-63239538D01*
X137587476Y-63255725D01*
X137594149Y-63271048D01*
X137601723Y-63285517D01*
X137610226Y-63299141D01*
X137619684Y-63311930D01*
X137630123Y-63323892D01*
X137641569Y-63335038D01*
X137654048Y-63345378D01*
X137667586Y-63354918D01*
X137682210Y-63363672D01*
X137697946Y-63371647D01*
X137714817Y-63378853D01*
X137732855Y-63385299D01*
X137752081Y-63390995D01*
X137772522Y-63395951D01*
X137794206Y-63400176D01*
X137817158Y-63403679D01*
X137841405Y-63406471D01*
X137893885Y-63409955D01*
X137951855Y-63410707D01*
X139698208Y-63357329D01*
X141443033Y-63318536D01*
X143189671Y-63295546D01*
X144941468Y-63289572D01*
X146715059Y-63269689D01*
X148488351Y-63224618D01*
X152034041Y-63079729D01*
X159121792Y-62716698D01*
X168322408Y-62511925D01*
X176086912Y-62147885D01*
X177622191Y-62100809D01*
X179155148Y-62082226D01*
X180686502Y-62091454D01*
X182216974Y-62127807D01*
X183747288Y-62190602D01*
X185278164Y-62279156D01*
X186810324Y-62392784D01*
X188344490Y-62530804D01*
X190293734Y-62732983D01*
X192231424Y-62946100D01*
X194164248Y-63172590D01*
X196098891Y-63414886D01*
X196644283Y-63497615D01*
X197187053Y-63588854D01*
X198268830Y-63790781D01*
X200446062Y-64229895D01*
X201095601Y-64364094D01*
X201745631Y-64506044D01*
X202395735Y-64655591D01*
X203045495Y-64812585D01*
X203694494Y-64976873D01*
X204342315Y-65148303D01*
X205632751Y-65511983D01*
X206404719Y-65739954D01*
X207181845Y-65984947D01*
X207960787Y-66245745D01*
X208738204Y-66521131D01*
X210615081Y-67189114D01*
X212482221Y-67883841D01*
X214339627Y-68605311D01*
X216187302Y-69353525D01*
X216883312Y-69646286D01*
X217573849Y-69954091D01*
X218259520Y-70275266D01*
X218940933Y-70608143D01*
X219618696Y-70951049D01*
X220293418Y-71302312D01*
X221636170Y-72023223D01*
X222950710Y-72759893D01*
X224234576Y-73543132D01*
X225491153Y-74367545D01*
X226723822Y-75227738D01*
X227935967Y-76118318D01*
X229130970Y-77033891D01*
X230312214Y-77969063D01*
X231483082Y-78918440D01*
X231931046Y-79300011D01*
X232368569Y-79690442D01*
X232796156Y-80089322D01*
X233214308Y-80496244D01*
X233623529Y-80910800D01*
X234024326Y-81332581D01*
X234802650Y-82196186D01*
X235553310Y-83083796D01*
X236280334Y-83992140D01*
X236987748Y-84917956D01*
X237679582Y-85857976D01*
X238226282Y-86612116D01*
X238780581Y-87360977D01*
X239901036Y-88852132D01*
X241019057Y-90349973D01*
X241570315Y-91107192D01*
X242112756Y-91873033D01*
X242805142Y-92872641D01*
X243487344Y-93879426D01*
X244159513Y-94892970D01*
X244821804Y-95912856D01*
X245474367Y-96938666D01*
X246117356Y-97969982D01*
X246750921Y-99006384D01*
X247375217Y-100047456D01*
X247846570Y-100811637D01*
X248339089Y-101557968D01*
X248852052Y-102287132D01*
X249384737Y-102999815D01*
X249936424Y-103696699D01*
X250506388Y-104378468D01*
X251093910Y-105045807D01*
X251698265Y-105699398D01*
X251921908Y-105861558D01*
X251957117Y-105911736D01*
X251993505Y-105961281D01*
X252031107Y-106010082D01*
X252069964Y-106058040D01*
X252110113Y-106105048D01*
X252151593Y-106151002D01*
X252194440Y-106195799D01*
X252238693Y-106239332D01*
X252284390Y-106281499D01*
X252331570Y-106322192D01*
X252380270Y-106361311D01*
X252430527Y-106398749D01*
X252482380Y-106434402D01*
X252535869Y-106468165D01*
X252591029Y-106499935D01*
X252647899Y-106529605D01*
X252116448Y-105770836D01*
X251957947Y-105499256D01*
X251801081Y-105224482D01*
X251646267Y-104946671D01*
X251493923Y-104665972D01*
X251344467Y-104382538D01*
X251198316Y-104096520D01*
X251055891Y-103808073D01*
X250917606Y-103517348D01*
X250715310Y-103167599D01*
X250520425Y-102814394D01*
X250331239Y-102458533D01*
X250146043Y-102100810D01*
X249780779Y-101382972D01*
X249597292Y-101024451D01*
X249410956Y-100667259D01*
X248892812Y-99653073D01*
X248356203Y-98645413D01*
X247804244Y-97643525D01*
X247240052Y-96646647D01*
X246087424Y-94664887D01*
X244923246Y-92694064D01*
X244349876Y-91691641D01*
X243782280Y-90683744D01*
X242668057Y-88683153D01*
X242146834Y-87764534D01*
X241604027Y-86863613D01*
X241039940Y-85979555D01*
X240454877Y-85111523D01*
X239849143Y-84258684D01*
X239223042Y-83420197D01*
X238576878Y-82595231D01*
X237910955Y-81782947D01*
X235740435Y-79231327D01*
X235188875Y-78598452D01*
X234630551Y-77971160D01*
X234063867Y-77351235D01*
X233487225Y-76740463D01*
X233085057Y-76320450D01*
X232674889Y-75910064D01*
X231832301Y-75115976D01*
X230962957Y-74353793D01*
X230070354Y-73619109D01*
X229157990Y-72907518D01*
X228229360Y-72214613D01*
X227287962Y-71535990D01*
X226337291Y-70867242D01*
X225651090Y-70380880D01*
X224960822Y-69904394D01*
X224266068Y-69437631D01*
X223566410Y-68980441D01*
X222861431Y-68532670D01*
X222150713Y-68094167D01*
X221433836Y-67664781D01*
X220710385Y-67244359D01*
X219981686Y-66833385D01*
X219249336Y-66432438D01*
X218513336Y-66041519D01*
X217773684Y-65660629D01*
X217030381Y-65289767D01*
X216283429Y-64928934D01*
X215532824Y-64578130D01*
X214778570Y-64237354D01*
X213239971Y-63572615D01*
X212469185Y-63253426D01*
X211695887Y-62943735D01*
X210918939Y-62644071D01*
X210137203Y-62354968D01*
X209349537Y-62076957D01*
X208554804Y-61810569D01*
X206786503Y-61260342D01*
X205013332Y-60723484D01*
X203230428Y-60213371D01*
X202333807Y-59972520D01*
X201432927Y-59743370D01*
X199681509Y-59324215D01*
X197923430Y-58948065D01*
X196158727Y-58618718D01*
X194387436Y-58339973D01*
X192609596Y-58115631D01*
X190825241Y-57949488D01*
X189034411Y-57845344D01*
X187237141Y-57807000D01*
X183787377Y-57839163D01*
X180350065Y-57909929D01*
X176920641Y-58021423D01*
X173494545Y-58175771D01*
X171934025Y-58247102D01*
X170372182Y-58299968D01*
X167245276Y-58384655D01*
X165680587Y-58433645D01*
X164115325Y-58498517D01*
X162549677Y-58587855D01*
X160983829Y-58710245D01*
X153079007Y-59432073D01*
X149124759Y-59839639D01*
X145179005Y-60307083D01*
X144260470Y-60432414D01*
X143347249Y-60569143D01*
X141532498Y-60867675D01*
X137920004Y-61501217D01*
X137873720Y-61507577D01*
X137829809Y-61515866D01*
X137788443Y-61526264D01*
X137749793Y-61538952D01*
X137731540Y-61546212D01*
X137714030Y-61554111D01*
X137697284Y-61562673D01*
X137681324Y-61571921D01*
X137666171Y-61581876D01*
X137651846Y-61592562D01*
X137638372Y-61604000D01*
X137625769Y-61616215D01*
X137614058Y-61629227D01*
X137603261Y-61643060D01*
X137593399Y-61657736D01*
X137584494Y-61673278D01*
X137576566Y-61689708D01*
X137569639Y-61707050D01*
X137563732Y-61725325D01*
X137558867Y-61744556D01*
X137555065Y-61764764D01*
X137552349Y-61785974D01*
X137550738Y-61808208D01*
X137550255Y-61831489D01*
X133695009Y-61831489D01*
X133595107Y-61614391D01*
X133304781Y-60968468D01*
X132733477Y-59663936D01*
X131596350Y-57019009D01*
X131537559Y-56876411D01*
X131484106Y-56735400D01*
X131436313Y-56595738D01*
X131394502Y-56457189D01*
X131358998Y-56319517D01*
X131330123Y-56182482D01*
X131308201Y-56045848D01*
X131293553Y-55909377D01*
X131286504Y-55772833D01*
X131287377Y-55635977D01*
X131289962Y-55597023D01*
X132738820Y-55597023D01*
X132739218Y-55611719D01*
X132740477Y-55626492D01*
X132742646Y-55641359D01*
X132745780Y-55656342D01*
X132749930Y-55671457D01*
X132755149Y-55686724D01*
X132761488Y-55702163D01*
X132769000Y-55717792D01*
X132777738Y-55733631D01*
X132787753Y-55749698D01*
X132799097Y-55766012D01*
X132811822Y-55782593D01*
X132825983Y-55799459D01*
X132841630Y-55816630D01*
X133280966Y-56268112D01*
X133713539Y-56725178D01*
X134138360Y-57187943D01*
X134554441Y-57656516D01*
X134960795Y-58131014D01*
X135356434Y-58611550D01*
X135740370Y-59098235D01*
X136111615Y-59591184D01*
X136198442Y-59699980D01*
X136285348Y-59796856D01*
X136328927Y-59840969D01*
X136372638Y-59882277D01*
X136416522Y-59920838D01*
X136460616Y-59956710D01*
X136504957Y-59989950D01*
X136549584Y-60020619D01*
X136594535Y-60048774D01*
X136639848Y-60074471D01*
X136685560Y-60097771D01*
X136731710Y-60118731D01*
X136778336Y-60137409D01*
X136825475Y-60153864D01*
X136873165Y-60168153D01*
X136921445Y-60180335D01*
X136970352Y-60190469D01*
X137019926Y-60198611D01*
X137121220Y-60209157D01*
X137225632Y-60212437D01*
X137333465Y-60208918D01*
X137445022Y-60199066D01*
X137560609Y-60183345D01*
X137680527Y-60162221D01*
X138746354Y-59948379D01*
X139815711Y-59744340D01*
X140887875Y-59550787D01*
X141962125Y-59368404D01*
X143037738Y-59197875D01*
X144113994Y-59039883D01*
X145190170Y-58895112D01*
X146265545Y-58764246D01*
X149368715Y-58429268D01*
X152480084Y-58123774D01*
X158711636Y-57519778D01*
X160139610Y-57387668D01*
X161562564Y-57279756D01*
X162981867Y-57192283D01*
X164398885Y-57121487D01*
X167231543Y-57014884D01*
X170071489Y-56929864D01*
X175393149Y-56731645D01*
X178048810Y-56636333D01*
X180705075Y-56560171D01*
X183027528Y-56489334D01*
X185345110Y-56431866D01*
X186501692Y-56422202D01*
X187656595Y-56432750D01*
X188809668Y-56469131D01*
X189960756Y-56536969D01*
X190841934Y-56607676D01*
X191716460Y-56690159D01*
X192585892Y-56784038D01*
X193451789Y-56888934D01*
X194315707Y-57004467D01*
X195179204Y-57130256D01*
X196911166Y-57411087D01*
X197595095Y-57529253D01*
X198276095Y-57656764D01*
X198954889Y-57792935D01*
X199632199Y-57937084D01*
X200985253Y-58246579D01*
X202341031Y-58579780D01*
X203554227Y-58907777D01*
X204762554Y-59249146D01*
X205966012Y-59603883D01*
X207164599Y-59971991D01*
X207843933Y-60180997D01*
X208516654Y-60400372D01*
X209184358Y-60628333D01*
X209848642Y-60863094D01*
X212503483Y-61834426D01*
X213110397Y-62075989D01*
X213711459Y-62325832D01*
X214307809Y-62583425D01*
X214900584Y-62848234D01*
X216079977Y-63397377D01*
X217258753Y-63969011D01*
X218823502Y-64761258D01*
X219604031Y-65168304D01*
X220380645Y-65584808D01*
X221151328Y-66012406D01*
X221914067Y-66452727D01*
X222666848Y-66907407D01*
X223407658Y-67378077D01*
X226384073Y-69334640D01*
X227849363Y-70343383D01*
X229288125Y-71386006D01*
X230691921Y-72472690D01*
X231378072Y-73035735D01*
X232052316Y-73613611D01*
X232713601Y-74207593D01*
X233360870Y-74818951D01*
X233993071Y-75448960D01*
X234609148Y-76098889D01*
X235703672Y-77291395D01*
X236787971Y-78497690D01*
X237855474Y-79721531D01*
X238899605Y-80966678D01*
X239913792Y-82236891D01*
X240891460Y-83535929D01*
X241826037Y-84867550D01*
X242275111Y-85546755D01*
X242710948Y-86235514D01*
X243003272Y-86712358D01*
X243286362Y-87197670D01*
X243562534Y-87688984D01*
X243834108Y-88183829D01*
X244372734Y-89174242D01*
X244644424Y-89664872D01*
X244920788Y-90149159D01*
X245536892Y-91221398D01*
X246163024Y-92297290D01*
X247432005Y-94455162D01*
X248339022Y-96035204D01*
X249229928Y-97628312D01*
X249665823Y-98429669D01*
X250093474Y-99234177D01*
X250511475Y-100041797D01*
X250918418Y-100852491D01*
X251334796Y-101689490D01*
X251773896Y-102513465D01*
X252234427Y-103325366D01*
X252715096Y-104126141D01*
X253214611Y-104916740D01*
X253731681Y-105698113D01*
X254265015Y-106471209D01*
X254813318Y-107236977D01*
X254887741Y-107344841D01*
X254999879Y-107507365D01*
X255165020Y-107781019D01*
X255309361Y-108057869D01*
X255433517Y-108337841D01*
X255538108Y-108620866D01*
X255623749Y-108906872D01*
X255691060Y-109195789D01*
X255740655Y-109487545D01*
X255773154Y-109782069D01*
X255789172Y-110079290D01*
X255789330Y-110379138D01*
X255774242Y-110681540D01*
X255744528Y-110986427D01*
X255700802Y-111293727D01*
X255643685Y-111603368D01*
X255573792Y-111915281D01*
X255334022Y-113009159D01*
X255104281Y-114106685D01*
X254661516Y-116307818D01*
X254579905Y-116688706D01*
X254491949Y-117070125D01*
X254303236Y-117833032D01*
X254107838Y-118593509D01*
X253918215Y-119348521D01*
X253633355Y-120486547D01*
X253365206Y-121630660D01*
X253117112Y-122782076D01*
X253001631Y-123360903D01*
X252892418Y-123942011D01*
X252340257Y-127456091D01*
X252336162Y-127485762D01*
X252330338Y-127516284D01*
X252315706Y-127579022D01*
X252300769Y-127642596D01*
X252294564Y-127674162D01*
X252289936Y-127705298D01*
X252288385Y-127720636D01*
X252287435Y-127735787D01*
X252287155Y-127750723D01*
X252287612Y-127765418D01*
X252288878Y-127779845D01*
X252291020Y-127793977D01*
X252294107Y-127807787D01*
X252298208Y-127821250D01*
X252303391Y-127834338D01*
X252309727Y-127847024D01*
X252317282Y-127859281D01*
X252326128Y-127871084D01*
X252336332Y-127882406D01*
X252347964Y-127893218D01*
X252361091Y-127903497D01*
X252375783Y-127913213D01*
X252395445Y-127919670D01*
X252414338Y-127924485D01*
X252432485Y-127927728D01*
X252449916Y-127929469D01*
X252466656Y-127929775D01*
X252482732Y-127928716D01*
X252498172Y-127926359D01*
X252513002Y-127922775D01*
X252527247Y-127918032D01*
X252540934Y-127912200D01*
X252554092Y-127905346D01*
X252566747Y-127897539D01*
X252578923Y-127888850D01*
X252590650Y-127879345D01*
X252601954Y-127869095D01*
X252612860Y-127858169D01*
X252633589Y-127834560D01*
X252653050Y-127809070D01*
X252671458Y-127782251D01*
X252689026Y-127754652D01*
X252722493Y-127699322D01*
X252738821Y-127672693D01*
X252755162Y-127647488D01*
X253011311Y-127347636D01*
X253139214Y-127198831D01*
X253269586Y-127052346D01*
X253404363Y-126909355D01*
X253474010Y-126839539D01*
X253545485Y-126771040D01*
X253619030Y-126704003D01*
X253694887Y-126638576D01*
X253773299Y-126574908D01*
X253854507Y-126513144D01*
X253956853Y-126443806D01*
X254059518Y-126380987D01*
X254162366Y-126324652D01*
X254265262Y-126274767D01*
X254368071Y-126231300D01*
X254470657Y-126194213D01*
X254572885Y-126163472D01*
X254674619Y-126139044D01*
X254775725Y-126120893D01*
X254876068Y-126108987D01*
X254975510Y-126103289D01*
X255073919Y-126103766D01*
X255171157Y-126110383D01*
X255267089Y-126123105D01*
X255361581Y-126141898D01*
X255454497Y-126166728D01*
X255545701Y-126197560D01*
X255635059Y-126234360D01*
X255722434Y-126277093D01*
X255807693Y-126325724D01*
X255890698Y-126380220D01*
X255971316Y-126440546D01*
X256049410Y-126506667D01*
X256124845Y-126578549D01*
X256197486Y-126656158D01*
X256267198Y-126739458D01*
X256333846Y-126828416D01*
X256397292Y-126922997D01*
X256457404Y-127023166D01*
X256514044Y-127128889D01*
X256567079Y-127240133D01*
X256616372Y-127356861D01*
X256685209Y-127536971D01*
X256748575Y-127721714D01*
X256806773Y-127910254D01*
X256860108Y-128101757D01*
X256908882Y-128295386D01*
X256953402Y-128490306D01*
X256993969Y-128685681D01*
X257030889Y-128880677D01*
X257062043Y-129031655D01*
X257100769Y-129177107D01*
X257146885Y-129317203D01*
X257200212Y-129452116D01*
X257260569Y-129582016D01*
X257327775Y-129707075D01*
X257401650Y-129827463D01*
X257482013Y-129943350D01*
X257568685Y-130054909D01*
X257661483Y-130162309D01*
X257760228Y-130265721D01*
X257864740Y-130365318D01*
X257974838Y-130461268D01*
X258090340Y-130553744D01*
X258211068Y-130642917D01*
X258336839Y-130728956D01*
X258654612Y-130937603D01*
X258970712Y-131150846D01*
X259284684Y-131369938D01*
X259596069Y-131596134D01*
X259904413Y-131830686D01*
X260209260Y-132074849D01*
X260510151Y-132329877D01*
X260806631Y-132597024D01*
X260855943Y-132494292D01*
X260899588Y-132390385D01*
X260938058Y-132285423D01*
X260971840Y-132179524D01*
X261001426Y-132072807D01*
X261027302Y-131965390D01*
X261049958Y-131857394D01*
X261069884Y-131748936D01*
X261103501Y-131531110D01*
X261132064Y-131312866D01*
X261159488Y-131095154D01*
X261189685Y-130878923D01*
X262475834Y-122907431D01*
X262717082Y-121601463D01*
X262976261Y-120298239D01*
X263257932Y-118995631D01*
X263566654Y-117691510D01*
X263750217Y-116954016D01*
X263946393Y-116218272D01*
X264156548Y-115485724D01*
X264382052Y-114757813D01*
X264624269Y-114035987D01*
X264884568Y-113321688D01*
X265164316Y-112616362D01*
X265464879Y-111921452D01*
X266730855Y-109136623D01*
X267376299Y-107761988D01*
X268040585Y-106397994D01*
X268229568Y-106025899D01*
X268409016Y-105647495D01*
X268581552Y-105264683D01*
X268749796Y-104879362D01*
X269083890Y-104108796D01*
X269254982Y-103727352D01*
X269432264Y-103351002D01*
X269852646Y-102504582D01*
X270055732Y-102078786D01*
X270252971Y-101650861D01*
X270443523Y-101220501D01*
X270626553Y-100787404D01*
X270801226Y-100351265D01*
X270966707Y-99911779D01*
X271149871Y-99387954D01*
X271319931Y-98859831D01*
X271477149Y-98327981D01*
X271621793Y-97792975D01*
X271754129Y-97255380D01*
X271874422Y-96715770D01*
X271982938Y-96174712D01*
X272079944Y-95632778D01*
X272137010Y-95404617D01*
X272187916Y-95175990D01*
X272232963Y-94946885D01*
X272272449Y-94717295D01*
X272306674Y-94487209D01*
X272335936Y-94256619D01*
X272380768Y-93793888D01*
X272409343Y-93329023D01*
X272424051Y-92861951D01*
X272427286Y-92392595D01*
X272421444Y-91920880D01*
X272400424Y-91265716D01*
X272373098Y-90614882D01*
X272338931Y-89967236D01*
X272297394Y-89321640D01*
X272247956Y-88676953D01*
X272190082Y-88032035D01*
X272123243Y-87385748D01*
X272046907Y-86736949D01*
X272000371Y-86419017D01*
X271947139Y-86102257D01*
X271887581Y-85786624D01*
X271822068Y-85472078D01*
X271674656Y-84846071D01*
X271507868Y-84223896D01*
X271324667Y-83605212D01*
X271128016Y-82989677D01*
X270920879Y-82376950D01*
X270706220Y-81766689D01*
X270387606Y-80916138D01*
X270052310Y-80073711D01*
X269701891Y-79239030D01*
X269337906Y-78411715D01*
X268961915Y-77591387D01*
X268575473Y-76777665D01*
X268180140Y-75970172D01*
X267777473Y-75168525D01*
X266731613Y-73054643D01*
X266203003Y-71999655D01*
X265662957Y-70951389D01*
X265105734Y-69913905D01*
X264525600Y-68891270D01*
X263916814Y-67887546D01*
X263599885Y-67394046D01*
X263273641Y-66906796D01*
X262758215Y-66149289D01*
X262233177Y-65398694D01*
X261699246Y-64654325D01*
X261157146Y-63915503D01*
X260051324Y-62451755D01*
X258921485Y-61001983D01*
X258253492Y-60164180D01*
X257572119Y-59342330D01*
X256877979Y-58534762D01*
X256171678Y-57739802D01*
X255453825Y-56955782D01*
X254725028Y-56181027D01*
X253985894Y-55413868D01*
X253237032Y-54652633D01*
X252564931Y-53983219D01*
X251873335Y-53332263D01*
X251165853Y-52696347D01*
X250446098Y-52072053D01*
X247516531Y-49622731D01*
X245024527Y-47524476D01*
X244398198Y-47005800D01*
X243764990Y-46496923D01*
X243122127Y-46001570D01*
X242466837Y-45523460D01*
X241743762Y-45008610D01*
X241013543Y-44502992D01*
X240276027Y-44007021D01*
X239531061Y-43521116D01*
X238778495Y-43045694D01*
X238018175Y-42581173D01*
X237249949Y-42127972D01*
X236473666Y-41686507D01*
X232490013Y-39428956D01*
X232086826Y-39210122D01*
X231684017Y-38998050D01*
X230877411Y-38589637D01*
X230065938Y-38194596D01*
X229245342Y-37803804D01*
X228040238Y-37240569D01*
X226817002Y-36718056D01*
X225579093Y-36228060D01*
X224329970Y-35762374D01*
X219290540Y-33978648D01*
X218712841Y-33772089D01*
X218130354Y-33570887D01*
X216954967Y-33184092D01*
X215772282Y-32817355D01*
X214590204Y-32469770D01*
X213754875Y-32231906D01*
X212918975Y-32004718D01*
X212082237Y-31787636D01*
X211244396Y-31580089D01*
X209564334Y-31191322D01*
X207876664Y-30833857D01*
X205896716Y-30474435D01*
X203914586Y-30169112D01*
X201929630Y-29915759D01*
X199941199Y-29712249D01*
X197948652Y-29556456D01*
X195951343Y-29446249D01*
X193948624Y-29379504D01*
X191939854Y-29354091D01*
X186415236Y-29291675D01*
X185029236Y-29286137D01*
X183641219Y-29297847D01*
X182251144Y-29333416D01*
X180858971Y-29399453D01*
X179606807Y-29490344D01*
X178357409Y-29613947D01*
X177111117Y-29768020D01*
X175868275Y-29950321D01*
X174629224Y-30158609D01*
X173394307Y-30390643D01*
X172163867Y-30644182D01*
X170938246Y-30916983D01*
X169018135Y-31371502D01*
X167103187Y-31843041D01*
X166149262Y-32090513D01*
X165198564Y-32348624D01*
X164251738Y-32619500D01*
X163309429Y-32905271D01*
X160990188Y-33600028D01*
X159832066Y-33954340D01*
X158679144Y-34324269D01*
X157534574Y-34718059D01*
X156401507Y-35143954D01*
X155840271Y-35371518D01*
X155283092Y-35610201D01*
X154730365Y-35861032D01*
X154182484Y-36125044D01*
X153046454Y-36703814D01*
X151929451Y-37307018D01*
X150831971Y-37937202D01*
X149754503Y-38596912D01*
X148697543Y-39288693D01*
X147661582Y-40015089D01*
X146647113Y-40778648D01*
X146148093Y-41175159D01*
X145654629Y-41581915D01*
X143447493Y-43452555D01*
X142356593Y-44400532D01*
X141276517Y-45359074D01*
X140209051Y-46329777D01*
X139155980Y-47314238D01*
X138119090Y-48314051D01*
X137100163Y-49330813D01*
X136772309Y-49669476D01*
X136454712Y-50018969D01*
X136146686Y-50378573D01*
X135847548Y-50747562D01*
X135556614Y-51125217D01*
X135273201Y-51510815D01*
X134996624Y-51903632D01*
X134726205Y-52302944D01*
X134726206Y-52302945D01*
X134726206Y-52302944D01*
X134726207Y-52302944D01*
X134726208Y-52302943D01*
X134726209Y-52302944D01*
X134726210Y-52302944D01*
X134726212Y-52302943D01*
X134726213Y-52302944D01*
X134726214Y-52302945D01*
X134726216Y-52302945D01*
X134726217Y-52302946D01*
X134726218Y-52302946D01*
X134466562Y-52647976D01*
X134211158Y-52996920D01*
X133960918Y-53352476D01*
X133716754Y-53717341D01*
X133479578Y-54094214D01*
X133250299Y-54485793D01*
X133029829Y-54894773D01*
X132819081Y-55323855D01*
X132770618Y-55450071D01*
X132760307Y-55479917D01*
X132751554Y-55509382D01*
X132744777Y-55538620D01*
X132742259Y-55553201D01*
X132740392Y-55567783D01*
X132739229Y-55582384D01*
X132738820Y-55597023D01*
X131289962Y-55597023D01*
X131296494Y-55498573D01*
X131314178Y-55360383D01*
X131340752Y-55221170D01*
X131376540Y-55080696D01*
X131421865Y-54938725D01*
X131477048Y-54795019D01*
X131642572Y-54402873D01*
X131820669Y-54019089D01*
X132011755Y-53643817D01*
X132216251Y-53277212D01*
X132434574Y-52919426D01*
X132667140Y-52570609D01*
X132788896Y-52399613D01*
X132914370Y-52230915D01*
X133043614Y-52064537D01*
X133176681Y-51900496D01*
X133687651Y-51166623D01*
X134224449Y-50450196D01*
X134785253Y-49751025D01*
X135368237Y-49068919D01*
X135971580Y-48403687D01*
X136593457Y-47755138D01*
X137232046Y-47123084D01*
X137885522Y-46507331D01*
X139676000Y-44859191D01*
X141486230Y-43229598D01*
X142400745Y-42426032D01*
X143322589Y-41632231D01*
X144252559Y-40849904D01*
X145191451Y-40080764D01*
X145895580Y-39517951D01*
X146608423Y-38970851D01*
X147330112Y-38439747D01*
X148060781Y-37924925D01*
X148800564Y-37426670D01*
X149549592Y-36945267D01*
X150307999Y-36481000D01*
X151075917Y-36034155D01*
X151853479Y-35605017D01*
X152640819Y-35193871D01*
X153438069Y-34801002D01*
X154245363Y-34426694D01*
X155062832Y-34071233D01*
X155890611Y-33734903D01*
X156728832Y-33417990D01*
X157577627Y-33120779D01*
X159115785Y-32613130D01*
X160658954Y-32122920D01*
X162206982Y-31650570D01*
X163759716Y-31196494D01*
X165317005Y-30761113D01*
X166878696Y-30344842D01*
X168444635Y-29948100D01*
X170014671Y-29571305D01*
X171558132Y-29221354D01*
X173107701Y-28900127D01*
X174663417Y-28611422D01*
X176225317Y-28359040D01*
X177793437Y-28146777D01*
X179367812Y-27978434D01*
X180948479Y-27857809D01*
X182535476Y-27788702D01*
X183864535Y-27766495D01*
X185194008Y-27760054D01*
X187853437Y-27780947D01*
G37*
M02*
