%TF.GenerationSoftware,KiCad,Pcbnew,8.0.4-8.0.4-0~ubuntu22.04.1*%
%TF.CreationDate,2024-11-20T16:55:02+01:00*%
%TF.ProjectId,HH2025badge,48483230-3235-4626-9164-67652e6b6963,rev?*%
%TF.SameCoordinates,Original*%
%TF.FileFunction,Profile,NP*%
%FSLAX46Y46*%
G04 Gerber Fmt 4.6, Leading zero omitted, Abs format (unit mm)*
G04 Created by KiCad (PCBNEW 8.0.4-8.0.4-0~ubuntu22.04.1) date 2024-11-20 16:55:02*
%MOMM*%
%LPD*%
G01*
G04 APERTURE LIST*
%TA.AperFunction,Profile*%
%ADD10C,0.100000*%
%TD*%
G04 APERTURE END LIST*
D10*
X187853437Y-27780947D02*
X193168942Y-27863157D01*
X195499714Y-27906395D01*
X196669218Y-27944655D01*
X197839287Y-27998263D01*
X199008287Y-28070412D01*
X200174582Y-28164289D01*
X201336538Y-28283087D01*
X202492521Y-28429998D01*
X204449870Y-28720860D01*
X206401889Y-29047166D01*
X208347514Y-29411842D01*
X210285681Y-29817810D01*
X212215324Y-30267999D01*
X214135379Y-30765331D01*
X216044782Y-31312733D01*
X217942469Y-31913130D01*
X222142713Y-33334632D01*
X224227764Y-34074441D01*
X226296428Y-34852770D01*
X228343954Y-35683975D01*
X230365588Y-36582417D01*
X231365211Y-37061340D01*
X232356578Y-37562456D01*
X233339095Y-38087561D01*
X234312170Y-38638449D01*
X238604133Y-41144501D01*
X239668288Y-41785543D01*
X240724118Y-42442957D01*
X241769227Y-43122023D01*
X242801222Y-43828021D01*
X243635944Y-44437215D01*
X244455500Y-45071175D01*
X245263577Y-45723671D01*
X246063863Y-46388475D01*
X247655805Y-47730084D01*
X248454837Y-48394432D01*
X249260823Y-49046169D01*
X250389623Y-49958468D01*
X251493779Y-50894923D01*
X252573804Y-51854772D01*
X253630211Y-52837257D01*
X254663513Y-53841620D01*
X255674224Y-54867098D01*
X256662855Y-55912934D01*
X257629920Y-56978366D01*
X258575934Y-58062635D01*
X259501408Y-59164983D01*
X261292789Y-61420873D01*
X263008168Y-63739956D01*
X264651650Y-66116157D01*
X265143127Y-66869848D01*
X265619358Y-67631298D01*
X266081360Y-68399991D01*
X266530148Y-69175409D01*
X267392149Y-70744353D01*
X268213495Y-72333989D01*
X269002314Y-73940179D01*
X269766740Y-75558786D01*
X271254935Y-78816692D01*
X271534432Y-79445136D01*
X271799434Y-80077001D01*
X272049885Y-80712442D01*
X272285726Y-81351616D01*
X272506902Y-81994680D01*
X272713355Y-82641790D01*
X272905029Y-83293104D01*
X273081865Y-83948778D01*
X273243808Y-84608968D01*
X273390799Y-85273831D01*
X273522783Y-85943525D01*
X273639702Y-86618205D01*
X273741499Y-87298028D01*
X273828116Y-87983152D01*
X273899498Y-88673732D01*
X273955587Y-89369925D01*
X274000348Y-90114061D01*
X274026718Y-90853632D01*
X274034464Y-91588790D01*
X274023353Y-92319689D01*
X273993153Y-93046478D01*
X273943631Y-93769309D01*
X273874554Y-94488336D01*
X273785689Y-95203710D01*
X273676804Y-95915583D01*
X273547666Y-96624106D01*
X273398043Y-97329433D01*
X273227701Y-98031714D01*
X273036407Y-98731101D01*
X272823930Y-99427746D01*
X272590036Y-100121802D01*
X272334492Y-100813421D01*
X272136896Y-101299971D01*
X271932007Y-101780555D01*
X271721346Y-102256199D01*
X271506429Y-102727929D01*
X270634615Y-104596230D01*
X267763683Y-110819868D01*
X266867942Y-112740033D01*
X266654357Y-113227391D01*
X266452130Y-113721248D01*
X266264869Y-114223391D01*
X266177979Y-114478128D01*
X266096183Y-114735605D01*
X265641756Y-116262582D01*
X265231663Y-117799068D01*
X264861002Y-119344228D01*
X264524874Y-120897223D01*
X264218375Y-122457217D01*
X263936607Y-124023372D01*
X263427660Y-127170821D01*
X262414312Y-133505228D01*
X262395528Y-133610089D01*
X262371967Y-133709545D01*
X262358352Y-133757266D01*
X262343489Y-133803661D01*
X262327361Y-133848738D01*
X262309950Y-133892505D01*
X262291238Y-133934970D01*
X262271207Y-133976142D01*
X262249840Y-134016029D01*
X262227118Y-134054639D01*
X262203026Y-134091981D01*
X262177542Y-134128063D01*
X262150652Y-134162894D01*
X262122336Y-134196481D01*
X262092576Y-134228832D01*
X262061355Y-134259957D01*
X262028655Y-134289864D01*
X261994458Y-134318560D01*
X261958748Y-134346055D01*
X261921504Y-134372355D01*
X261882710Y-134397470D01*
X261842349Y-134421408D01*
X261800401Y-134444179D01*
X261756851Y-134465788D01*
X261711678Y-134486245D01*
X261664866Y-134505559D01*
X261616398Y-134523737D01*
X261566254Y-134540787D01*
X261514417Y-134556719D01*
X261460871Y-134571540D01*
X260118613Y-134930999D01*
X259888565Y-134979205D01*
X259660433Y-135019058D01*
X259434232Y-135050031D01*
X259209975Y-135071598D01*
X258987678Y-135083230D01*
X258767355Y-135084401D01*
X258549020Y-135074584D01*
X258332688Y-135053251D01*
X258118373Y-135019877D01*
X257906090Y-134973933D01*
X257695852Y-134914892D01*
X257487674Y-134842226D01*
X257281572Y-134755410D01*
X257077557Y-134653917D01*
X256875647Y-134537217D01*
X256675854Y-134404786D01*
X255967642Y-133909777D01*
X255791537Y-133789918D01*
X255613837Y-133671847D01*
X255433552Y-133555673D01*
X255249695Y-133441514D01*
X254816921Y-133174603D01*
X254378937Y-132923305D01*
X253500571Y-132436401D01*
X253066806Y-132185220D01*
X252852723Y-132054292D01*
X252641059Y-131918504D01*
X252432228Y-131776887D01*
X252226642Y-131628467D01*
X252024715Y-131472269D01*
X251826861Y-131307319D01*
X251664497Y-131188282D01*
X251585860Y-131130873D01*
X251507601Y-131075023D01*
X251428734Y-131020843D01*
X251348271Y-130968449D01*
X251265223Y-130917953D01*
X251178605Y-130869470D01*
X251093535Y-130820986D01*
X251015698Y-130770346D01*
X250944957Y-130717436D01*
X250912204Y-130690097D01*
X250881173Y-130662149D01*
X250851848Y-130633581D01*
X250824210Y-130604377D01*
X250798242Y-130574524D01*
X250773929Y-130544008D01*
X250751251Y-130512816D01*
X250730193Y-130480936D01*
X250710735Y-130448350D01*
X250692863Y-130415048D01*
X250676558Y-130381014D01*
X250661803Y-130346237D01*
X250648581Y-130310701D01*
X250636874Y-130274394D01*
X250626666Y-130237300D01*
X250617940Y-130199409D01*
X250610678Y-130160704D01*
X250604861Y-130121172D01*
X250597502Y-130039576D01*
X250595723Y-129954510D01*
X250599387Y-129865865D01*
X250608356Y-129773531D01*
X250835600Y-128025850D01*
X251095671Y-126271190D01*
X251384922Y-124519578D01*
X251699698Y-122781040D01*
X251929491Y-121651515D01*
X252182343Y-120527543D01*
X252724250Y-118288044D01*
X253259472Y-116046112D01*
X253503968Y-114919099D01*
X253722062Y-113785316D01*
X253789743Y-113401092D01*
X253862856Y-113018846D01*
X254020364Y-112258460D01*
X254345411Y-110741339D01*
X254370227Y-110671423D01*
X254382170Y-110634492D01*
X254393069Y-110596531D01*
X254402373Y-110557751D01*
X254409530Y-110518369D01*
X254412131Y-110498517D01*
X254413989Y-110478595D01*
X254415035Y-110458629D01*
X254415201Y-110438646D01*
X254414416Y-110418672D01*
X254412613Y-110398732D01*
X254409723Y-110378856D01*
X254405675Y-110359069D01*
X254400403Y-110339399D01*
X254393837Y-110319871D01*
X254385907Y-110300512D01*
X254376546Y-110281350D01*
X254365684Y-110262409D01*
X254353252Y-110243718D01*
X254339182Y-110225305D01*
X254323404Y-110207192D01*
X254305851Y-110189410D01*
X254286452Y-110171984D01*
X254265140Y-110154941D01*
X254241844Y-110138306D01*
X254157343Y-110083004D01*
X254076190Y-110025489D01*
X253998011Y-109965980D01*
X253922430Y-109904696D01*
X253849073Y-109841854D01*
X253777563Y-109777674D01*
X253638586Y-109646171D01*
X253366294Y-109376707D01*
X253226976Y-109242240D01*
X253155210Y-109175837D01*
X253081539Y-109110278D01*
X252069717Y-108177461D01*
X251091865Y-107216311D01*
X250149735Y-106224628D01*
X249692612Y-105716648D01*
X249245074Y-105200208D01*
X248807340Y-104675033D01*
X248379629Y-104140847D01*
X247962160Y-103597375D01*
X247555151Y-103044342D01*
X247158820Y-102481473D01*
X246773385Y-101908492D01*
X246399066Y-101325122D01*
X246036081Y-100731091D01*
X245063488Y-99143348D01*
X244073985Y-97566961D01*
X243065557Y-96003559D01*
X242036192Y-94454778D01*
X240983875Y-92922251D01*
X239906593Y-91407611D01*
X238802331Y-89912489D01*
X237669077Y-88438521D01*
X237140394Y-87741491D01*
X236620525Y-87041044D01*
X235587778Y-85641749D01*
X235065174Y-84948824D01*
X234531928Y-84264332D01*
X233983181Y-83591231D01*
X233414066Y-82932486D01*
X232664955Y-82136618D01*
X231888139Y-81371361D01*
X231087230Y-80633299D01*
X230265837Y-79919013D01*
X229427570Y-79225084D01*
X228576039Y-78548095D01*
X227714855Y-77884628D01*
X226847625Y-77231263D01*
X225781193Y-76453030D01*
X224699138Y-75706019D01*
X223601346Y-74989244D01*
X222487703Y-74301718D01*
X221358096Y-73642453D01*
X220212411Y-73010461D01*
X219050533Y-72404755D01*
X217872350Y-71824345D01*
X216992544Y-71412475D01*
X216104525Y-71023169D01*
X215209814Y-70652249D01*
X214309932Y-70295537D01*
X210689112Y-68927188D01*
X208578472Y-68163002D01*
X206452160Y-67462672D01*
X204309719Y-66827455D01*
X202150694Y-66258604D01*
X199974630Y-65757372D01*
X197781070Y-65325013D01*
X195569557Y-64962781D01*
X193339636Y-64671928D01*
X190285343Y-64330018D01*
X187223139Y-64030659D01*
X185688118Y-63906052D01*
X184149974Y-63803024D01*
X182608327Y-63725219D01*
X181062797Y-63676287D01*
X179656546Y-63653362D01*
X178252868Y-63664971D01*
X176851006Y-63702795D01*
X175450202Y-63758513D01*
X172648742Y-63890352D01*
X171246570Y-63949833D01*
X169842427Y-63993928D01*
X159258674Y-64351466D01*
X148682194Y-64772230D01*
X147220301Y-64821800D01*
X145755487Y-64854692D01*
X142821191Y-64885181D01*
X136962630Y-64908171D01*
X136812833Y-64903721D01*
X136665082Y-64893804D01*
X136519604Y-64877972D01*
X136376621Y-64855773D01*
X136236356Y-64826754D01*
X136099032Y-64790467D01*
X135964875Y-64746458D01*
X135834105Y-64694277D01*
X135706947Y-64633474D01*
X135583624Y-64563597D01*
X135464360Y-64484193D01*
X135349378Y-64394815D01*
X135238899Y-64295009D01*
X135133151Y-64184324D01*
X135032353Y-64062311D01*
X134936731Y-63928515D01*
X134660630Y-63523905D01*
X134524382Y-63319890D01*
X134390300Y-63113824D01*
X134259106Y-62905024D01*
X134131521Y-62692804D01*
X134008269Y-62476484D01*
X133890070Y-62255378D01*
X133595107Y-61614391D01*
X133304781Y-60968468D01*
X132733477Y-59663936D01*
X131596350Y-57019009D01*
X131537559Y-56876411D01*
X131484106Y-56735400D01*
X131436313Y-56595738D01*
X131394502Y-56457189D01*
X131358998Y-56319517D01*
X131330123Y-56182482D01*
X131308201Y-56045848D01*
X131293553Y-55909377D01*
X131286504Y-55772833D01*
X131287377Y-55635977D01*
X131296494Y-55498573D01*
X131314178Y-55360383D01*
X131340752Y-55221170D01*
X131376540Y-55080696D01*
X131421865Y-54938725D01*
X131477048Y-54795019D01*
X131642572Y-54402873D01*
X131820669Y-54019089D01*
X132011755Y-53643817D01*
X132216251Y-53277212D01*
X132434574Y-52919426D01*
X132667140Y-52570609D01*
X132788896Y-52399613D01*
X132914370Y-52230915D01*
X133043614Y-52064537D01*
X133176681Y-51900496D01*
X133687651Y-51166623D01*
X134224449Y-50450196D01*
X134785253Y-49751025D01*
X135368237Y-49068919D01*
X135971580Y-48403687D01*
X136593457Y-47755138D01*
X137232046Y-47123084D01*
X137885522Y-46507331D01*
X139676000Y-44859191D01*
X141486230Y-43229598D01*
X142400745Y-42426032D01*
X143322589Y-41632231D01*
X144252559Y-40849904D01*
X145191451Y-40080764D01*
X145895580Y-39517951D01*
X146608423Y-38970851D01*
X147330112Y-38439747D01*
X148060781Y-37924925D01*
X148800564Y-37426670D01*
X149549592Y-36945267D01*
X150307999Y-36481000D01*
X151075917Y-36034155D01*
X151853479Y-35605017D01*
X152640819Y-35193871D01*
X153438069Y-34801002D01*
X154245363Y-34426694D01*
X155062832Y-34071233D01*
X155890611Y-33734903D01*
X156728832Y-33417990D01*
X157577627Y-33120779D01*
X159115785Y-32613130D01*
X160658954Y-32122920D01*
X162206982Y-31650570D01*
X163759716Y-31196494D01*
X165317005Y-30761113D01*
X166878696Y-30344842D01*
X168444635Y-29948100D01*
X170014671Y-29571305D01*
X171558132Y-29221354D01*
X173107701Y-28900127D01*
X174663417Y-28611422D01*
X176225317Y-28359040D01*
X177793437Y-28146777D01*
X179367812Y-27978434D01*
X180948479Y-27857809D01*
X182535476Y-27788702D01*
X183864535Y-27766495D01*
X185194008Y-27760054D01*
X187853437Y-27780947D01*
M02*
