M48
; DRILL file {KiCad 8.0.4-8.0.4-0~ubuntu22.04.1} date 2024-11-20T16:55:05+0100
; FORMAT={-:-/ absolute / inch / decimal}
; #@! TF.CreationDate,2024-11-20T16:55:05+01:00
; #@! TF.GenerationSoftware,Kicad,Pcbnew,8.0.4-8.0.4-0~ubuntu22.04.1
; #@! TF.FileFunction,Plated,1,2,PTH
FMAT,2
INCH
; #@! TA.AperFunction,Plated,PTH,ViaDrill
T1C0.0118
; #@! TA.AperFunction,Plated,PTH,ComponentDrill
T2C0.0138
; #@! TA.AperFunction,Plated,PTH,ViaDrill
T3C0.0157
; #@! TA.AperFunction,Plated,PTH,ComponentDrill
T4C0.0236
; #@! TA.AperFunction,Plated,PTH,ComponentDrill
T5C0.0354
; #@! TA.AperFunction,Plated,PTH,ComponentDrill
T6C0.0394
; #@! TA.AperFunction,Plated,PTH,ComponentDrill
T7C0.0512
%
G90
G05
T1
X5.281Y-2.348
X5.3976Y-2.3189
X5.4055Y-2.4646
X5.5Y-2.2874
X5.54Y-1.87
X5.65Y-2.0
X5.65Y-2.0501
X5.9705Y-1.6756
X6.05Y-1.58
X6.1496Y-2.025
X6.1969Y-1.8071
X6.2205Y-1.7441
X6.23Y-1.61
X6.2638Y-1.8228
X6.2913Y-1.7559
X6.4005Y-1.4518
X6.4252Y-2.0201
X6.43Y-1.73
X6.5197Y-2.2008
X6.6209Y-2.2752
X6.67Y-1.97
X6.71Y-2.15
X6.75Y-1.4
X6.79Y-2.15
X6.84Y-1.43
X6.86Y-2.15
X6.94Y-2.15
X7.0136Y-2.0236
X7.0232Y-2.2598
X7.13Y-2.2
X7.17Y-1.55
X7.17Y-1.71
X7.2Y-1.3842
X7.25Y-1.34
X7.3386Y-1.4331
X7.3425Y-1.6
X7.3819Y-1.3898
X7.3819Y-1.5354
X7.3833Y-1.4882
X7.3858Y-1.6457
X7.4331Y-1.5906
X7.437Y-1.4341
X7.6142Y-1.5906
X7.6256Y-1.4341
X7.6654Y-1.5394
X7.6654Y-1.6457
X7.6689Y-1.3925
X7.6689Y-1.478
X7.7378Y-1.3252
X7.85Y-1.65
X7.85Y-2.0
X7.9094Y-1.8268
X7.925Y-1.525
X7.943Y-2.128
X7.994Y-1.331
X8.0039Y-2.252
X8.0106Y-2.2041
X8.0142Y-2.0839
X8.0211Y-1.8211
X8.0516Y-1.8898
X8.0547Y-2.0488
X8.0567Y-2.2561
X8.1624Y-1.7844
X8.2234Y-2.0549
X8.2304Y-2.181
X8.2421Y-2.3085
X8.2443Y-2.1528
X8.2732Y-2.4374
X8.2756Y-2.3386
X8.2775Y-1.685
X8.3077Y-1.7794
X8.311Y-2.311
X8.3169Y-1.685
X8.3307Y-2.3307
X8.3447Y-2.1195
X8.345Y-1.865
X8.3562Y-1.685
X8.3683Y-2.1431
X8.3812Y-2.0088
X8.3898Y-2.3099
X8.3995Y-1.685
X8.44Y-1.99
X8.4488Y-1.6811
X8.47Y-2.39
X8.479Y-1.396
X8.5161Y-1.9592
X8.5236Y-1.7205
X8.5315Y-2.2913
X8.59Y-2.195
X8.595Y-1.925
X8.595Y-2.39
X8.6102Y-2.0
X8.6492Y-2.2898
X8.6654Y-1.5945
X8.6654Y-1.7087
X8.6654Y-1.8071
X8.672Y-2.555
X8.6929Y-2.0945
X8.7205Y-2.122
X8.7283Y-2.5433
X8.7323Y-1.5433
X8.7598Y-2.063
X8.77Y-2.185
X8.775Y-1.745
X8.8Y-2.39
X8.8021Y-2.0937
X8.8386Y-2.0433
X8.86Y-1.73
X8.8622Y-1.87
X8.8937Y-2.1575
X8.9016Y-2.311
X9.0512Y-2.1142
X9.122Y-2.2559
X9.1661Y-2.2276
X9.2Y-2.14
X9.2047Y-2.6587
X9.2667Y-2.5403
X9.28Y-2.7
X9.2964Y-2.7917
X9.37Y-2.41
X9.378Y-2.5866
X9.4764Y-2.5906
X10.022Y-4.101
X10.1205Y-4.7386
X10.2Y-4.325
X10.2211Y-4.3
X10.2425Y-3.9374
X10.27Y-4.804
X10.3563Y-4.2382
X10.404Y-4.65
X10.53Y-3.64
T2
X8.0998Y-1.8996
X8.0998Y-1.9498
X8.0998Y-2.0
X8.15Y-1.8996
X8.15Y-1.9498
X8.15Y-2.0
X8.2002Y-1.8996
X8.2002Y-1.9498
X8.2002Y-2.0
T3
X5.6969Y-2.27
X8.0984Y-2.1969
X8.0988Y-2.1259
X8.1929Y-2.3504
X8.8976Y-2.5315
X8.9333Y-2.6788
X9.0787Y-2.2953
X9.2951Y-2.2364
T5
X5.512Y-2.0265
X5.5379Y-2.1231
T6
X9.125Y-2.6498
X9.125Y-2.7498
X10.0994Y-4.3902
X10.0994Y-4.4902
X10.1994Y-4.3902
X10.1994Y-4.4902
X10.2994Y-4.3902
X10.2994Y-4.4902
T7
X8.5Y-2.5169
X8.5Y-2.6744
T4
G00X9.9401Y-5.0296
M15
G01X9.932Y-5.0518
M16
G05
G00X9.9997Y-4.8657
M15
G01X9.9849Y-4.9064
M16
G05
G00X10.2597Y-5.1459
M15
G01X10.2516Y-5.1681
M16
G05
G00X10.3194Y-4.982
M15
G01X10.3046Y-5.0227
M16
G05
M30
